<?xml version="1.0" standalone="no"?>
<!DOCTYPE svg PUBLIC "-//W3C//DTD SVG 20010904//EN"
 "http://www.w3.org/TR/2001/REC-SVG-20010904/DTD/svg10.dtd">
<svg version="1.0" xmlns="http://www.w3.org/2000/svg"
 width="503.000000pt" height="503.000000pt" viewBox="0 0 503.000000 503.000000"
 preserveAspectRatio="xMidYMid meet">
<metadata>
Created by potrace 1.11, written by Peter Selinger 2001-2013
</metadata>
<g transform="translate(0.000000,503.000000) scale(0.100000,-0.100000)"
fill="#000000" stroke="none">
<path d="M2329 5026 c-2 -2 -35 -6 -74 -10 -96 -9 -115 -12 -230 -36 -55 -11
-113 -23 -130 -26 -42 -8 -291 -92 -345 -117 -228 -103 -376 -189 -533 -308
-349 -265 -605 -591 -801 -1021 -14 -31 -26 -60 -26 -63 0 -4 -6 -21 -14 -38
-49 -109 -121 -385 -141 -542 -4 -27 -9 -61 -12 -75 -3 -14 -6 -119 -8 -235
-4 -292 24 -502 98 -750 151 -498 451 -944 852 -1266 297 -239 676 -416 1045
-489 199 -39 270 -45 510 -45 286 1 436 22 705 101 175 52 422 160 559 245 27
16 52 26 56 22 4 -4 30 -66 59 -138 29 -72 59 -146 68 -167 l16 -36 378 0 378
0 -18 47 c-11 25 -49 123 -86 216 -37 94 -104 263 -149 376 l-82 206 43 54
c45 55 194 272 206 299 4 8 17 31 28 50 107 177 224 476 265 680 3 14 9 41 14
60 5 19 11 53 15 75 3 22 7 51 10 65 27 174 27 574 0 705 -3 11 -7 36 -9 55
-35 247 -142 554 -280 805 -84 153 -232 364 -325 464 -17 18 -41 45 -54 60
-81 94 -284 263 -442 368 -75 50 -257 155 -275 159 -3 0 -36 15 -74 33 -188
88 -488 176 -671 197 -33 3 -69 8 -80 11 -23 5 -441 14 -446 9z m-522 -1147
c-74 -184 -137 -343 -142 -354 -4 -11 -9 -22 -10 -25 -1 -3 -5 -14 -10 -25 -4
-11 -28 -72 -52 -135 -25 -63 -51 -128 -58 -145 -7 -16 -29 -70 -48 -120 -92
-233 -428 -1082 -436 -1100 -5 -11 -33 -81 -62 -156 -47 -120 -55 -135 -66
-119 -31 44 -123 282 -137 355 -2 11 -7 27 -10 35 -7 18 -15 62 -22 115 -3 21
-7 42 -9 46 -7 10 -18 177 -18 264 -2 424 155 849 428 1164 37 43 157 163 212
213 40 36 255 188 267 188 3 0 27 13 53 28 52 30 244 113 250 108 1 -1 -57
-153 -130 -337z m1478 251 c414 -201 724 -539 891 -971 29 -76 70 -209 79
-264 10 -51 27 -164 31 -200 6 -49 6 -319 0 -360 -2 -16 -7 -55 -10 -85 -16
-133 -87 -366 -159 -519 -22 -46 -27 -50 -35 -35 -9 17 -208 517 -484 1214
-59 151 -112 284 -117 295 -5 11 -86 216 -181 455 -94 239 -176 446 -182 460
-6 14 -12 27 -13 30 -1 3 -5 13 -8 23 -19 48 -19 48 26 31 23 -9 96 -42 162
-74z m-755 -299 c0 -10 3 -21 7 -25 4 -3 8 -12 9 -19 1 -7 26 -77 54 -157 54
-151 86 -244 164 -470 25 -74 50 -144 55 -155 5 -11 12 -29 14 -40 3 -11 33
-99 67 -195 34 -96 66 -186 70 -200 12 -36 137 -392 145 -412 7 -17 -26 -18
-605 -18 -579 0 -612 1 -605 18 4 9 26 71 50 137 23 66 50 138 58 160 8 22 34
94 57 160 23 66 76 215 117 330 90 252 116 325 183 515 28 80 55 154 60 165 4
11 20 56 35 100 15 44 32 92 38 107 12 29 27 28 27 -1z m902 -2451 c21 -52 42
-104 47 -115 8 -17 63 -152 78 -190 10 -27 -232 -168 -404 -235 -398 -156
-812 -166 -1218 -29 -90 31 -310 141 -397 199 -83 56 -82 53 -48 125 21 44
130 307 130 314 0 4 4 11 10 17 5 5 344 9 886 9 l878 0 38 -95z"/>
</g>
</svg>
