<?xml version="1.0" standalone="no"?>
<!DOCTYPE svg PUBLIC "-//W3C//DTD SVG 1.1//EN" "http://www.w3.org/Graphics/SVG/1.1/DTD/svg11.dtd" >
<svg xmlns="http://www.w3.org/2000/svg">
<metadata></metadata>
<defs>
<font id="dator-italicregular" horiz-adv-x="1228" >
<font-face units-per-em="2048" ascent="1366" descent="-682" />
<missing-glyph horiz-adv-x="500" />
<glyph horiz-adv-x="2048" />
<glyph horiz-adv-x="2048" />
<glyph unicode="&#xd;" horiz-adv-x="2048" />
<glyph unicode=" " />
<glyph unicode="!" d="M520 0l64 303h188l-63 -303h-189zM637 424l164 942h209l-242 -942h-131z" />
<glyph unicode="#" d="M207 489l16 91h275l57 321h-274l16 90h274l119 658h90l-331 -1846h-93l125 686h-274zM725 -197l338 1846h90l-119 -658h277l-19 -90h-274l-57 -321h274l-16 -91h-275l-127 -686h-92z" />
<glyph unicode="$" d="M313 354l129 82q14 -29 20.5 -42.5t22 -37.5t29 -36t35.5 -24t47 -15l80 370q-108 30 -164.5 104.5t-32.5 184.5q21 103 113.5 179.5t202.5 94.5l36 170h144l-37 -170q81 -7 144.5 -55.5t105.5 -122.5l-121 -88q-51 75 -84 103t-72 34l-71 -335q62 -10 111.5 -33.5 t85.5 -62t48.5 -91t-0.5 -121.5q-27 -124 -137.5 -206t-234.5 -84l-37 -170h-144l37 170q-90 4 -155.5 60.5t-100.5 141.5zM621 934q-10 -50 13.5 -89t70.5 -57l63 297q-53 -12 -94.5 -56t-52.5 -95zM739 281q71 3 129.5 48.5t73.5 114.5q13 65 -27 111t-106 55z" />
<glyph unicode="%" d="M178 47l928 1188q-41 -16 -96 -16q-56 0 -105 18q9 -50 -4 -109q-23 -108 -98.5 -183t-179.5 -75q-71 0 -116 36.5t-55.5 94t1.5 127.5q23 107 99 181.5t181 74.5q41 0 131 -28q98 -35 160 -35q152 0 256 61l66 -41l-1059 -1359zM569 1058.5q-1 -34.5 18.5 -60 t57.5 -25.5q54 0 87 46.5t46 108.5q5 34 6.5 68t-17.5 60t-56 26q-55 0 -89 -47t-47 -107q-5 -35 -6 -69.5zM612 238q23 107 98.5 181.5t180.5 74.5q104 0 148.5 -74.5t21.5 -181.5t-99 -181.5t-180 -74.5q-105 0 -149 74.5t-21 181.5zM729 169q-1 -34 18.5 -59.5 t57.5 -25.5q54 0 87 46.5t46 107.5q5 35 5.5 69t-18 59t-55.5 25q-56 0 -90 -46.5t-45 -106.5q-5 -35 -6 -69z" />
<glyph unicode="&#x26;" d="M299 293q21 93 85.5 158.5t170.5 130.5l-20 41q-16 31 -23.5 47.5t-17.5 44t-12.5 48.5t-2 49.5t7.5 59.5q28 125 115.5 202t208.5 77q118 0 178 -81t35 -198q-20 -96 -85 -165.5t-208 -153.5l143 -272q68 79 103 200l129 -26q-55 -170 -170 -291l59 -117l-121 -76 l-53 101q-134 -90 -264 -90q-136 0 -211.5 88t-46.5 223zM444 295q-17 -81 24.5 -132.5t123.5 -51.5q95 0 178 67l-160 305q-73 -44 -112.5 -84t-53.5 -104zM616 881q-10 -51 4.5 -101t59.5 -127l49 31q35 22 56.5 37t46.5 37.5t40 49t21 58.5q14 70 -15.5 113t-99.5 43 q-61 0 -104.5 -39.5t-57.5 -101.5z" />
<glyph unicode="'" d="M762 881l4 276l49 227h189l-50 -227l-114 -276h-78z" />
<glyph unicode="(" d="M534.5 417q2.5 105 24.5 208q45 215 170 422.5t307 336.5l64 -79q-157 -125 -257 -304t-141 -376q-25 -128 -27.5 -246.5t32 -233.5t104.5 -200l-98 -82q-64 66 -106 157t-58.5 191.5t-14 205.5z" />
<glyph unicode=")" d="M393 -55q158 125 257.5 303t142.5 377q24 127 26.5 245.5t-32 234t-105.5 200.5l100 79q64 -66 106 -156t58.5 -190t14 -205t-24.5 -208q-29 -139 -91.5 -276.5t-163 -267.5t-222.5 -218z" />
<glyph unicode="*" d="M500 975l39 180l200 -20l-98 151l162 98l65 -192l148 192l117 -98l-160 -151l209 20l-39 -180l-201 18l98 -149l-161 -101l-66 195l-147 -195l-117 101l160 149zM784 1065q-6 -24 7.5 -40.5t37.5 -16.5t44 16.5t26 40.5q4 23 -10 40t-37 17t-43 -17t-25 -40z" />
<glyph unicode="+" d="M209 692v90h500v500h90v-500h499v-90h-499v-499h-90v499h-500z" />
<glyph unicode="," d="M455 -8q100 56 125 186l26 125h189l-19 -92q-19 -99 -104 -189.5t-195 -142.5z" />
<glyph unicode="-" d="M487 469l27 129h455l-27 -129h-455z" />
<glyph unicode="." d="M520 0l64 303h188l-63 -303h-189z" />
<glyph unicode="/" d="M264 -55l606 1585h95l-607 -1585h-94z" />
<glyph unicode="0" d="M316.5 271q-1.5 56 7 123t19.5 122t24 114q8 36 12 52q49 232 78 321q79 242 229 327q94 54 223 54q63 0 112.5 -16t81.5 -41.5t53.5 -65.5t31.5 -79t12 -92t-1 -93.5t-12 -95.5t-15.5 -86.5t-17.5 -76.5t-13 -56q-40 -185 -45 -207q-84 -324 -261 -433q-98 -60 -225 -60 q-81 0 -138.5 23.5t-89.5 61.5t-48 93t-17.5 111zM470 334q-3 -60 5.5 -102t21 -65.5t37 -36t47 -16t56.5 -3.5q52 0 88 10.5t75 44t69.5 96t63 166t64.5 254.5q24 112 36.5 198t15.5 146.5t-5 102.5t-20.5 66.5t-36.5 38t-47.5 17.5t-58.5 4q-50 0 -92.5 -17t-72.5 -39.5 t-57 -69t-42.5 -80t-34 -101t-26 -102.5t-23.5 -111q-7 -36 -11 -53q-24 -113 -36.5 -200.5t-15.5 -147.5z" />
<glyph unicode="1" d="M227 0l27 123h344l229 1077l-270 -96l-16 125l465 164l-271 -1270h293l-27 -123h-774z" />
<glyph unicode="2" d="M233 0l27 123l645 653q40 41 58 61t44.5 54t41.5 67.5t24 73.5q20 98 -26.5 160.5t-145.5 62.5q-115 0 -197 -77t-124 -197l-131 18q63 178 184.5 281.5t296.5 103.5q163 0 242.5 -93.5t46.5 -254.5q-20 -89 -73.5 -167t-141.5 -167l-570 -579h588l-27 -123h-762z" />
<glyph unicode="3" d="M242 -18l26 129q158 0 250 16.5t158 48.5q108 54 187.5 140t101.5 188q13 63 -2.5 109t-55 71t-89 37t-109.5 12q-24 0 -50 -2.5t-62.5 -7t-51.5 -6.5l24 110l492 416h-569l26 123h758l-27 -123l-461 -387q167 3 261.5 -90.5t60.5 -257.5q-28 -133 -116 -239t-220 -177 q-103 -56 -224 -83t-308 -27z" />
<glyph unicode="4" d="M297 342l428 1051l129 -37l-367 -891h371l148 694h137l-148 -694h109l-27 -123h-108l-72 -342h-137l71 342h-534z" />
<glyph unicode="5" d="M233 -18l27 129q291 0 414 59q104 51 180.5 140t99.5 194q23 108 -29.5 170.5t-160.5 62.5q-95 0 -244 -71h-98l149 700h701l-27 -123h-563l-90 -420q127 43 213 43q76 0 137.5 -24.5t102.5 -71t56 -114t-3 -152.5q-27 -130 -114.5 -238.5t-215.5 -181.5 q-94 -53 -217.5 -77.5t-317.5 -24.5z" />
<glyph unicode="6" d="M329 288q-3 57 4 131.5t16.5 128t23.5 120.5q15 69 30.5 128.5t41.5 135t56 136t74 121.5t95 102.5t119 67t145 25.5q174 0 276 -118l-100 -113q-47 49 -93 75.5t-106 26.5q-51 0 -96.5 -19t-78 -46.5t-62.5 -74t-48.5 -84.5t-38 -96t-28.5 -91.5t-22 -85.5 q151 110 294 110q75 0 130.5 -24t87 -65t46.5 -97.5t13.5 -119t-16.5 -132.5q-26 -125 -90.5 -224.5t-168.5 -161.5t-231 -62q-73 0 -126 25t-83 64.5t-45.5 99.5t-18.5 117zM472 390.5q-6 -91.5 4 -144t36 -84t56 -41.5t71 -10q119 0 199 89t108 224q13 63 13.5 115.5 t-14 99.5t-55.5 73.5t-106 26.5q-111 0 -280 -133q-26 -124 -32 -215.5z" />
<glyph unicode="7" d="M319 29l803 1214h-563l27 123h762l-918 -1393z" />
<glyph unicode="8" d="M297 348q15 69 46.5 124.5t80.5 98t100.5 73.5t122.5 63q-94 67 -137.5 143.5t-20.5 185.5q32 150 151 249t269 99t227.5 -99t45.5 -249q-23 -109 -99 -185t-200 -144q32 -18 56.5 -34.5t49 -37.5t42 -42.5t31.5 -48t20 -56t6 -65t-9 -75.5q-35 -164 -168.5 -265 t-300.5 -101q-166 0 -257 101t-56 265zM438 342q-21 -104 36.5 -167.5t162.5 -63.5t190.5 64t106.5 167q6 30 5.5 56.5t-4.5 47t-17 41.5t-23 34.5t-32.5 32t-34.5 27.5t-39.5 28.5t-38.5 27.5q-15 -8 -50.5 -27.5t-52 -28.5t-46.5 -27.5t-46 -32t-38.5 -34.5t-35 -41.5 t-25 -47t-18.5 -56.5zM628.5 988q0.5 -23 2.5 -40t14 -36.5t17.5 -29.5t26 -29t27 -24.5t33 -26t31.5 -24.5q9 5 42 24.5t43.5 26t38 24.5t38.5 28.5t31 30t29.5 36.5t20 40t15.5 48q21 95 -21 157t-136 62t-160.5 -61.5t-87.5 -157.5q-5 -25 -4.5 -48z" />
<glyph unicode="9" d="M307 100l103 113q91 -102 198 -102q45 0 85 13t72 39.5t58.5 56t48.5 72.5t37.5 78t31 84.5t23.5 79t19 74.5q-148 -110 -293 -110q-75 0 -130.5 24t-86.5 64.5t-46 97.5t-13.5 119.5t16.5 132.5q19 92 61 172.5t103 142t145 97.5t179 36q57 0 102.5 -15.5t75.5 -40.5 t50 -64.5t30.5 -79.5t13 -93.5t0 -98.5t-10.5 -103t-15.5 -98.5t-18.5 -92.5q-146 -716 -559 -716q-173 0 -279 118zM575 940q-66 -313 162 -313q108 0 279 131q26 122 32 212.5t-4 144t-35 86t-55.5 43.5t-72.5 11q-119 0 -197.5 -89t-108.5 -226z" />
<glyph unicode=":" d="M520 0l64 303h188l-63 -303h-189zM643 582l66 303h188l-66 -303h-188z" />
<glyph unicode=";" d="M455 -8q100 56 125 186l26 125h189l-19 -92q-19 -99 -104 -189.5t-195 -142.5zM666 582l65 303h189l-66 -303h-188z" />
<glyph unicode="=" d="M209 555v90h1089v-90h-1089zM209 829v91h1089v-91h-1089z" />
<glyph unicode="&#x3e;" d="M340 66l696 671l-696 672l51 66l776 -738l-776 -737z" />
<glyph unicode="?" d="M457 1008q151 376 471 376q159 0 236.5 -93.5t43.5 -252.5q-24 -108 -92 -186.5t-186 -163.5q-61 -46 -80.5 -63.5t-38.5 -52t-31 -93.5l-6 -28h-141l6 34q20 111 52 158t136 121q6 5 33 25t35.5 26t31.5 24.5t32 28t27.5 27t27 31t20 32t18.5 37.5t11 39 q22 98 -20 159.5t-140 61.5q-113 0 -192 -80t-127 -202zM512 0l63 303h189l-64 -303h-188z" />
<glyph unicode="@" d="M144.5 350q-11.5 96 15.5 219q24 114 72.5 228t123 220t164 187.5t204.5 130.5t237 49q56 0 111 -14t109 -43.5t95.5 -75t69.5 -108.5t33 -145t-15 -183q-17 -75 -51 -152.5t-84.5 -150t-123 -118.5t-153.5 -46q-59 0 -86 17t-65 67q-65 -46 -106.5 -65t-100.5 -19 q-82 0 -123.5 51.5t-24.5 132.5q17 80 68 172t113 154q43 43 90.5 68.5t140.5 41.5t227 11l-116 -309q-36 -97 -39 -111q-8 -36 5 -59t48 -23q46 0 88 36t71 91.5t48 106t29 94.5q43 202 -39.5 326t-259.5 124q-91 0 -185 -46.5t-178 -132t-152 -218.5t-102 -293 q-45 -211 37 -332.5t266 -121.5q117 0 230 40t249 117l21 -129q-272 -157 -537 -157q-79 0 -149.5 21.5t-130.5 66.5t-96.5 114.5t-48 165.5zM592 543q-5 -27 4.5 -46.5t36.5 -19.5q123 0 246 320l20 53q-5 -1 -31.5 -5.5t-36.5 -7t-30.5 -9t-35.5 -15.5t-28 -22 q-47 -45 -89.5 -117t-55.5 -131z" />
<glyph unicode="A" d="M188 10l635 1356h164l57 -1356l-143 -37l-10 449h-373l-203 -449zM578 545h307l-17 639h-4z" />
<glyph unicode="B" d="M250 0l26 123h111l238 1120h-111l27 123h417q120 0 192 -94q49 -64 48 -158q0 -43 -10 -92q-41 -185 -201 -264q101 -48 131 -134q16 -45 17 -103q0 -51 -13 -111q-44 -203 -162.5 -306.5t-269.5 -103.5h-440zM524 123h187q96 0 166.5 72t101.5 217q11 51 11 93 q0 177 -197 177h-150zM670 805h123q204 0 251 217q8 41 8 74q0 66 -32 98q-49 50 -178 49h-80z" />
<glyph unicode="C" d="M344 426q4 72 12.5 132t22.5 124q20 93 46 178.5t73.5 185t105.5 171t145 119.5t189 48q211 0 287 -221l-131 -69q-51 161 -185 161q-263 0 -387 -573q-37 -178 -37 -300q0 -271 181 -271q73 0 146 49.5t132 122.5l96 -78q-84 -103 -186.5 -163t-214.5 -60 q-74 0 -129.5 25t-88 66t-52 100t-24.5 119q-3 34 -3 71q0 31 2 63z" />
<glyph unicode="D" d="M244 0l26 123h111l237 1120h-110l27 123h360q87 0 147.5 -17t107 -62t64.5 -121q14 -57 14 -140q0 -27 -1 -57q-6 -121 -41 -287q-16 -78 -30 -133.5t-39.5 -132t-53.5 -130t-72.5 -111.5t-97 -93.5t-126 -58.5t-159.5 -23h-364zM518 123h113q57 0 96.5 8.5t87 40 t83.5 90.5t74 164t70 256q23 108 33 194q9 79 9 134v11q-1 58 -13 100t-28 65t-42 36.5t-48 17t-52 3.5h-145z" />
<glyph unicode="E" d="M322 0l290 1366h666l-27 -123h-528l-96 -450h436l-25 -123h-436l-117 -547h529l-27 -123h-665z" />
<glyph unicode="F" d="M360 0l291 1366h672l-27 -123h-534l-96 -450h448l-24 -123h-449l-143 -670h-138z" />
<glyph unicode="G" d="M355 424q3 71 12 131.5t22 124.5q13 60 30 120t43.5 131.5t58.5 133.5t76 122t93 102.5t113.5 68.5t134.5 26q209 0 295 -219l-137 -73q-57 163 -195 163q-47 0 -90.5 -24t-76.5 -62t-63.5 -91.5t-51.5 -105t-40 -111.5t-29.5 -101.5t-19.5 -83.5q-24 -114 -33 -204 q-5 -51 -5 -93q0 -32 3 -59q7 -60 22.5 -102t43 -65t56.5 -32.5t65 -9.5q44 0 98 17t94 46l89 412h-256l26 123h393l-131 -609q-167 -118 -342 -118q-73 0 -128 25t-88.5 65.5t-53 99t-25.5 119.5q-4 41 -4 86q0 23 1 47z" />
<glyph unicode="H" d="M266 0l291 1366h137l-123 -573h422l123 573h137l-290 -1366h-138l144 670h-422l-144 -670h-137z" />
<glyph unicode="I" d="M360 0l27 123h184l238 1120h-184l26 123h508l-26 -123h-187l-237 -1120h186l-27 -123h-508z" />
<glyph unicode="J" d="M293 195q-4 27 -4 57q0 53 12 117l27 127h137l-29 -138q-9 -32 -9 -66q0 -9 1 -18q3 -44 16 -80t49.5 -59.5t92.5 -23.5q91 0 160 73.5t94 192.5l211 989h137l-213 -1004q-26 -124 -95.5 -212.5t-154 -128t-176.5 -39.5q-65 0 -117.5 23t-90 70t-48.5 120z" />
<glyph unicode="K" d="M332 0l291 1366h137l-121 -563h37l508 590l94 -70l-498 -578l299 -702l-129 -70l-288 707h-48l-145 -680h-137z" />
<glyph unicode="L" d="M346 0l291 1366h137l-264 -1243h561l-27 -123h-698z" />
<glyph unicode="M" d="M207 0l332 1366h170l73 -580l320 580h172l-250 -1366h-145l215 1139h-4l-379 -686l-88 686h-5l-268 -1139h-143z" />
<glyph unicode="N" d="M258 0l291 1366h172l162 -1149l4 4l59 305l178 840h138l-291 -1366h-172l-162 1151l-4 -4l-60 -309l-178 -838h-137z" />
<glyph unicode="O" d="M367 615q2 10 14 69q13 61 25 110.5t36.5 125.5t51.5 135t69 123.5t90 107t114.5 70.5t141.5 28q79 0 134.5 -30.5t85.5 -73t43 -114.5q12 -71 14 -125q0 -7 1 -14q1 -50 -9 -122q-10 -82 -17.5 -118t-20.5 -98q-1 -3 -1 -5q-50 -233 -111 -369q-151 -333 -418 -333 q-276 0 -276 350q0 121 33 283zM476 372q-2 -25 -2 -47q0 -37 4 -67q8 -46 26.5 -80t51.5 -50.5t81 -16.5q39 0 73.5 13t61.5 31t52.5 53t43 62.5t36 77.5t28.5 80.5t24.5 88.5t20.5 83.5t18 83.5q48 226 54 318q1 19 1 36q0 183 -117 211q-24 6 -52 6q-56 0 -103.5 -23.5 t-84 -78.5t-60 -95t-48 -126t-32 -115.5t-25.5 -115.5l-1.5 -6t-1 -5t-1.5 -6q-21 -97 -32.5 -171t-15.5 -141z" />
<glyph unicode="P" d="M332 0l291 1366h297q180 0 258 -94q52 -63 53 -163q0 -48 -12 -105q-39 -185 -154.5 -290.5t-261.5 -105.5h-205l-129 -608h-137zM625 731l192 2q96 2 163 72t95 199q10 44 10 79q0 160 -194 160h-158z" />
<glyph unicode="Q" d="M344 356v7q0 132 37 319q72 343 216 522.5t312 179.5q75 0 132 -37t96 -121q40 -84 40 -220q0 -133 -38 -324q-69 -331 -213 -516l75 -119l-122 -86l-60 96q-101 -75 -209 -75q-75 0 -131.5 37.5t-95 120.5t-39.5 216zM486 336q3 -58 15 -111t44.5 -83.5t81.5 -30.5 q76 0 129 45l-129 206l123 89l106 -170q84 155 137 397q9 43 16 81.5t15 100t10 111.5v19q0 41 -6 86q-6 55 -22 92.5t-48.5 62t-78.5 24.5t-88.5 -25t-74 -62.5t-61 -93.5t-49 -106.5t-38 -112.5t-28 -101t-18.5 -82q-10 -46 -17.5 -93t-14.5 -116q-6 -47 -6 -89 q0 -20 2 -38z" />
<glyph unicode="R" d="M332 0l291 1366h368q53 0 100.5 -22t84 -67t48.5 -113q5 -28 6 -60q0 -46 -11 -100q-28 -135 -109 -240t-209 -146l158 -585l-135 -60l-172 635h-154l-129 -608h-137zM625 731h200q92 0 156.5 68.5t93.5 204.5q11 48 11 86q0 64 -29 98q-46 56 -156 55h-168z" />
<glyph unicode="S" d="M342 208q-4 30 -5 63q0 41 7 87l141 19q-5 -40 -5 -76q0 -15 1 -29q3 -48 16.5 -84.5t50.5 -56.5t97 -20q93 0 162 62t94 181q7 33 7 62v8q-1 32 -5 55.5t-21 49t-28 40t-40 37.5t-43.5 32.5t-50.5 33.5l-9 6q-43 29 -65 45.5t-52.5 43t-43.5 50.5t-25 57q-11 30 -11 67 v6q1 40 12 89q30 143 140 245.5t252 102.5q136 0 196 -84t60 -225l-140 -20q0 200 -145 200q-91 0 -147.5 -62t-77.5 -157q-8 -37 -8.5 -59.5t6.5 -47t29.5 -48t57 -51.5t93.5 -68q42 -29 68.5 -50t56.5 -49.5t46 -56.5q15 -29 27 -65q11 -34 11 -75q0 -44 -11 -99 q-35 -169 -148 -277t-278 -108q-88 0 -147.5 28t-87 78.5t-37.5 119.5z" />
<glyph unicode="T" d="M518 1243l27 123h721l-27 -123h-289l-264 -1243h-137l264 1243h-295z" />
<glyph unicode="U" d="M350 326l221 1040h138l-211 -993q-10 -45 -14 -79q-2 -15 -1 -31q1 -20 3 -40q4 -36 20 -59t49 -38t82 -15t89 15t66.5 38.5t47 59t32 70.5t21.5 79l211 993h137l-221 -1034q-34 -159 -145.5 -254.5t-264.5 -95.5t-223 95q-48 65 -48 156q0 44 11 93z" />
<glyph unicode="V" d="M483 1364l146 29l61 -1022h4l500 1022l133 -29l-702 -1391h-33z" />
<glyph unicode="W" d="M319 -27l160 1393l144 27l-154 -1026h4l352 718h41l45 -718h4l285 1026l131 -27l-434 -1393h-59l-52 826h-4l-403 -826h-60z" />
<glyph unicode="X" d="M197 31l508 712l-168 586l141 64l125 -510l342 510l112 -64l-417 -586l204 -712l-135 -58l-166 625l-436 -625z" />
<glyph unicode="Y" d="M477 1341l139 52l146 -695l444 695l115 -52l-524 -802l-115 -539h-137l114 539z" />
<glyph unicode="Z" d="M213 0l844 1243h-520l26 123h727l-841 -1243h593l-26 -123h-803z" />
<glyph unicode="[" d="M348 -78l311 1462h553l-26 -122h-416l-258 -1217h416l-27 -123h-553z" />
<glyph unicode="\" d="M264 1530h94l607 -1585h-95z" />
<glyph unicode="]" d="M295 -78l27 123h415l258 1217h-415l26 122h553l-311 -1462h-553z" />
<glyph unicode="^" d="M365 731l335 662h107l330 -662h-103l-280 563l-287 -563h-102z" />
<glyph unicode="_" d="M0 -147h1229v-74h-1229v74z" />
<glyph unicode="`" d="M684 1294l102 129l318 -206l-72 -91z" />
<glyph unicode="a" d="M195 23l559 1044h176l112 -1044l-145 -50l-31 318h-379l-168 -318zM551 414h303l-47 493z" />
<glyph unicode="b" d="M250 0l26 123h111l174 821h-110l26 123h336q198 -1 277 -73q57 -53 57 -140q0 -33 -8 -72q-14 -71 -57 -128.5t-111 -90.5q82 -27 115 -96q21 -44 20 -97q0 -31 -6 -65q-31 -145 -140 -225t-276 -80h-434zM524 123h160q50 0 89.5 7t78 24.5t65 53t37.5 87.5q5 25 5 48 q0 51 -28 89q-41 54 -136 55h-193zM627 610h153q86 0 142.5 48.5t72.5 123.5q5 25 5 46q0 116 -156 116h-146z" />
<glyph unicode="c" d="M325 373q4 76 21 159q26 123 72 220.5t99 158.5t115 101.5t118.5 56.5t111.5 16q119 0 186 -57.5t103 -169.5l-139 -63q-23 75 -63.5 118t-112.5 43q-61 0 -114.5 -28.5t-90 -72t-66.5 -102t-47 -111t-29 -107.5q-10 -46 -15 -89.5t-6 -93.5v-9q0 -45 10 -83 q10 -42 29.5 -76t57.5 -53.5t90 -19.5q59 0 113 25t90.5 58t85.5 89l96 -78q-93 -110 -188 -166.5t-213 -56.5q-90 0 -154.5 32t-99 85t-49.5 125q-12 57 -12 117q0 16 1 32z" />
<glyph unicode="d" d="M244 0l26 123h111l174 821h-111l27 123h356q93 0 159 -16t112 -53q46 -38 66 -98q19 -56 20 -135v-12q-2 -87 -27 -206q-20 -91 -40 -157.5t-51 -132t-71.5 -110t-95.5 -79.5t-130 -51.5t-169 -16.5h-356zM518 123h146q138 0 217.5 91.5t128.5 317.5q27 123 27 206 q1 80 -25 124q-26 46 -68.5 64t-109.5 18h-142z" />
<glyph unicode="e" d="M322 0l227 1067h665l-26 -123h-529l-67 -319h436l-27 -123h-436l-80 -379h529l-27 -123h-665z" />
<glyph unicode="f" d="M360 0l228 1067h672l-27 -123h-535l-67 -319h448l-26 -123h-449l-106 -502h-138z" />
<glyph unicode="g" d="M334 376q5 76 22 159q17 81 45 156.5t73.5 148.5t101 126t133 86t165.5 33q105 0 183 -55.5t114 -148.5l-131 -76q-61 151 -202 151q-60 0 -112.5 -29.5t-87.5 -73t-64.5 -104t-45.5 -112.5t-28 -107q-10 -46 -15 -89t-7 -93v-13q0 -42 9 -77q10 -41 29.5 -75t56.5 -53 t89 -19q109 0 210 55l60 280h-256l26 123h394l-101 -471q-76 -52 -173 -84t-179 -32q-91 0 -155 33t-97.5 86t-46.5 127q-11 55 -11 111q0 19 1 37z" />
<glyph unicode="h" d="M266 0l228 1067h137l-94 -442h421l95 442h137l-227 -1067h-138l107 502h-422l-107 -502h-137z" />
<glyph unicode="i" d="M395 0l27 123h149l174 821h-149l27 123h438l-27 -123h-151l-174 -821h151l-26 -123h-439z" />
<glyph unicode="j" d="M307 397h137q-20 -86 -20 -144q0 -48 14 -77q30 -65 137 -65q102 0 167.5 57t86.5 156l158 743h137l-163 -770q-13 -59 -45.5 -113.5t-83 -100.5t-124 -73.5t-159.5 -27.5q-171 0 -229 100q-32 57 -32 150q0 72 19 165z" />
<glyph unicode="k" d="M332 0l227 1067h137l-96 -455h51l469 482l86 -82l-450 -449l309 -502l-123 -88l-319 527h-48l-106 -500h-137z" />
<glyph unicode="l" d="M348 0l227 1067h138l-201 -944h559l-27 -123h-696z" />
<glyph unicode="m" d="M199 0l270 1067h180l94 -463l291 463h180l-184 -1067h-145l157 864h-4l-360 -563l-119 563h-4l-211 -864h-145z" />
<glyph unicode="n" d="M258 0l227 1067h170l222 -899l6 4l47 277l131 618h137l-227 -1067h-170l-223 899l-5 -4l-47 -279l-131 -616h-137z" />
<glyph unicode="o" d="M324 343q2 85 24 189q32 152 90 264.5t128 173t139.5 88t140.5 27.5q38 0 73 -8t69 -26.5t61 -47.5t47 -73t29 -100q6 -37 6 -84q0 -23 -2 -48q-4 -76 -23 -166q-6 -29 -13.5 -58t-27.5 -87.5t-44 -107.5t-65 -106.5t-88 -97t-114.5 -66.5t-143.5 -27q-45 0 -85.5 11.5 t-79 36t-65 67.5t-42.5 102q-14 52 -14 125v19zM468 354q-1 -12 0 -23q0 -39 6 -69q8 -40 25.5 -75.5t52.5 -55.5t85 -20q59 0 110 29.5t85 73t61.5 103.5t42.5 110.5t27 104.5q13 54 19 105q5 39 4 84v27q-2 60 -17.5 104.5t-54 74t-97.5 29.5q-231 0 -325 -424 q-9 -45 -15.5 -86t-8.5 -92z" />
<glyph unicode="p" d="M332 0l227 1067h332q175 0 243 -82q48 -59 48 -140q0 -33 -8 -69q-18 -81 -58 -144t-93 -99.5t-110.5 -55t-115.5 -18.5h-230l-98 -459h-137zM592 582h188q206 0 246 184q7 28 7 51q0 12 -2 23q-6 31 -18.5 51t-37.5 32t-53 16.5t-64 4.5h-188z" />
<glyph unicode="q" d="M324 343q2 85 24 189q25 119 66.5 214t90.5 157.5t107.5 104t116 59.5t117.5 18q38 0 73 -8t69 -26.5t61 -47.5t47 -73t29 -100q6 -37 6 -84q0 -23 -1 -48q-5 -76 -24 -166q-56 -258 -172 -389l96 -110l-104 -92l-97 108q-104 -67 -219 -67q-45 0 -85 11.5t-78.5 36 t-65.5 67.5t-43 102q-15 51 -15 122q0 11 1 22zM468 354v-23q0 -37 6 -69q9 -40 26 -75.5t52 -55.5t85 -20q59 0 113 28l-144 162l105 94l139 -157q79 128 113 294q12 54 19 105q4 39 4 84v27q-2 61 -17.5 105t-54 73.5t-97.5 29.5q-231 0 -325 -424q-9 -45 -15 -86t-9 -92z " />
<glyph unicode="r" d="M305 0l227 1067h363q69 0 121.5 -16.5t90 -51.5t49.5 -90q5 -25 5 -54q0 -36 -8 -79q-22 -100 -101 -185t-180 -114l170 -432l-135 -72l-170 484h-198l-97 -457h-137zM565 580h180q102 0 173.5 53t91.5 143q5 23 5 43q1 47 -25 79q-36 46 -126 46h-221z" />
<glyph unicode="s" d="M332 299l131 39v-7q0 -220 184 -220q89 0 155.5 47t84.5 133q4 19 4.5 36.5t-1.5 31t-9.5 27t-13.5 22.5t-19.5 19.5t-21.5 16.5t-26 15t-26.5 13t-28.5 13.5t-28 12.5q-12 6 -42 19t-42.5 19t-37.5 19t-36.5 21.5t-30 24t-26 29t-17.5 33t-12 40t-1 46.5t7 56 q27 130 134 205t239 75q130 0 196 -69.5t72 -198.5l-139 -39q-3 178 -160 178q-72 0 -130.5 -36.5t-72.5 -104.5q-5 -21 -5 -39t3 -31.5t11.5 -26t17 -21t23.5 -18t26.5 -15.5t30.5 -15l207 -100q102 -64 103 -180q0 -33 -9 -70q-32 -149 -143 -233t-262 -84q-147 0 -221 86 q-69 79 -68 210v21z" />
<glyph unicode="t" d="M455 944l26 123h721l-26 -123h-289l-201 -944h-137l201 944h-295z" />
<glyph unicode="u" d="M340 283l168 784h137l-156 -727q-11 -55 -12 -96q0 -48 17 -78q30 -54 133 -55q123 0 177.5 53t80.5 176l155 727h138l-170 -793q-12 -55 -42.5 -105.5t-78.5 -93t-120 -68t-157 -25.5q-163 0 -230 87q-48 62 -48 144q0 34 8 70z" />
<glyph unicode="v" d="M414 1044l143 50l123 -783l459 783l118 -50l-636 -1071h-25z" />
<glyph unicode="w" d="M338 -27l82 1104l145 17l-78 -750h5l288 524h37l68 -524h4l244 750l135 -17l-389 -1104h-48l-83 658l-363 -658h-47z" />
<glyph unicode="x" d="M215 43l442 522l-204 457l141 72l166 -406l342 406l108 -72l-397 -457l217 -522l-137 -70l-184 471l-385 -471z" />
<glyph unicode="y" d="M418 1026l145 68l168 -549l402 549l112 -68l-475 -614l-88 -412h-137l88 412z" />
<glyph unicode="z" d="M213 0l760 944h-500l27 123h727l-756 -944h571l-26 -123h-803z" />
<glyph unicode="{" d="M442 623q30 10 70.5 20t59 15.5t43 18t37 29.5t25.5 46.5t23 74.5l58 273q32 154 115 219t251 65h115l-12 -51h-49q-99 0 -154.5 -22t-80.5 -63t-42 -120l-61 -286q-10 -44 -17 -67.5t-22 -55.5t-39.5 -55t-61.5 -41q24 -14 38 -33.5t20 -35.5t4.5 -45.5t-4.5 -46 t-10 -54.5l-60 -287q-24 -118 14 -162.5t177 -44.5h47l-11 -51h-67q-142 0 -211.5 28t-87 91.5t7.5 167.5l57 270q10 46 10 76.5t-5.5 48t-25 29.5t-36 16.5t-53 14t-62.5 18.5z" />
<glyph unicode="|" d="M709 -590v2212h90v-2212h-90z" />
<glyph unicode="}" d="M256 -137l10 51h49q75 0 123.5 10.5t79 37.5t46 62.5t28.5 94.5l61 287q7 34 12.5 54t16.5 47.5t24.5 45.5t36 37.5t52.5 34.5q-24 14 -38.5 33t-20.5 37t-5.5 44.5t4 47t10.5 53.5l62 286q18 75 6.5 121t-58 66t-141.5 20h-47l13 51h67q142 0 211.5 -27.5t87 -91.5 t-7.5 -167l-57 -271q-10 -46 -10 -76.5t5.5 -48t25 -29t36 -16.5t53 -14t62.5 -18q-30 -10 -70.5 -20.5t-59 -16t-43 -17.5t-37 -29.5t-25.5 -47t-23 -74.5l-60 -273q-34 -155 -115.5 -219.5t-248.5 -64.5h-115z" />
<glyph unicode="~" d="M201 618q27 48 53.5 86t64 78t83.5 62t96 22q57 0 132.5 -24t137 -52.5t126.5 -52.5t103 -24q74 0 141 57.5t103 132.5l66 -47q-51 -95 -133 -164t-175 -69q-51 0 -151.5 38.5t-198 76.5t-141.5 38q-35 0 -66 -12t-52.5 -28t-45.5 -45.5t-37 -49.5t-34 -55q-2 -4 -3 -5.5 l-3 -4.5t-3 -5z" />
<glyph unicode="&#xa0;" />
<glyph unicode="&#xa1;" d="M500 0l237 942h131l-159 -942h-209zM735 1063l66 303h188l-65 -303h-189z" />
<glyph unicode="&#xa2;" d="M359 548q5 67 20 140q16 73 39.5 140t61.5 135.5t85.5 122t113.5 94t142 55.5l33 149h137l-33 -147q85 -10 142.5 -72t83.5 -149l-137 -66q-38 120 -117 152l-176 -830q108 24 223 166l96 -78q-166 -200 -348 -221l-33 -157h-137l35 161q-71 15 -120 55t-73.5 93 t-33.5 121.5t-4 135.5zM524 690q-74 -345 94 -411l175 821q-197 -69 -269 -410z" />
<glyph unicode="&#xa3;" d="M285 78q127 155 176 230t61 134q17 83 8 263h-217l27 122h182q-1 7 -3.5 36t-3 39.5t-1.5 36t-0.5 40.5t2.5 36t6 40q30 141 156 235t270 94q122 0 204.5 -62.5t104.5 -174.5l-135 -45q-43 160 -192 160q-99 0 -171.5 -60.5t-94.5 -161.5q-8 -37 -9.5 -75.5t-0.5 -61 t5 -76.5h377l-26 -122h-340l4 -60t3.5 -67.5t-1.5 -58.5t-8 -66q-12 -52 -39 -104.5t-49.5 -83.5t-71.5 -93q72 16 139 16q8 0 16.5 -0.5t14.5 -1.5t15 -3l13.5 -3t13.5 -4.5t12 -4.5t13 -5t11.5 -5t12.5 -6l11 -5q4 -2 14 -8.5t14 -9t12.5 -7t13.5 -7t12.5 -5t13.5 -3.5 t12 -1q25 0 55 13.5t45.5 24.5t47.5 35l63 -90q-48 -37 -77 -56.5t-72.5 -36.5t-85.5 -17q-55 0 -125 38q-29 14 -40.5 19.5t-40 12.5t-56.5 7q-42 0 -88 -12.5t-75.5 -25t-84.5 -39.5z" />
<glyph unicode="&#xa4;" d="M166 219l223 219q-102 138 -102 299t102 299l-223 219l67 66l222 -219q130 106 303 106t303 -106l221 219l68 -66l-224 -219q103 -139 103 -299t-103 -299l224 -219l-68 -65l-221 219q-131 -107 -303 -107t-303 107l-222 -219zM367 737q0 -166 112.5 -278.5t278.5 -112.5 t278.5 112.5t112.5 278.5t-112.5 279.5t-278.5 113.5t-278.5 -113.5t-112.5 -279.5z" />
<glyph unicode="&#xa5;" d="M362 547l27 123h250l-162 671l139 52l146 -695l444 695l115 -52l-444 -671h249l-26 -123h-301l-117 -547h-137l117 547h-300z" />
<glyph unicode="&#xa6;" d="M709 147h90v-737h-90v737zM709 885v737h90v-737h-90z" />
<glyph unicode="&#xa7;" d="M328 250l147 47q8 -87 55.5 -140t135.5 -53q70 0 127 38.5t71 105.5q8 25 2 47.5t-13.5 37.5t-25 29t-33 23.5t-36.5 21.5q-9 5 -13 7l-88 51q-94 54 -120 74q-92 74 -75 183q1 8 3 17q12 58 51.5 112.5t93.5 86.5q-70 73 -45 186q24 116 131.5 188t227.5 72 q100 0 171.5 -58.5t90.5 -151.5l-133 -54q-13 64 -53 103t-107 39t-119 -38t-67 -104q-5 -12 -2.5 -25t3.5 -22.5t8 -19.5t11.5 -17t15 -15t17.5 -13t18.5 -12t19.5 -11t19.5 -10t18.5 -10l79 -45q24 -13 30 -17t28.5 -17t29.5 -19t25 -19.5t24.5 -22.5t19 -24t16 -28t8 -30 t3.5 -36t-5 -39q-27 -125 -154 -207q93 -84 70 -201q-27 -126 -139.5 -202t-243.5 -76q-128 0 -210 73t-89 195zM608 743q-8 -36 5 -62t53 -50l186 -111q36 24 62.5 59.5t33.5 73.5q6 28 -1 51.5t-28.5 43t-36.5 29.5t-44 26q-5 3 -7 4l-131 74q-75 -62 -92 -138z" />
<glyph unicode="&#xa8;" d="M596 1264q10 50 45 89.5t82 39.5t63.5 -40t6.5 -89t-44 -89t-81 -40t-64.5 40t-7.5 89zM973 1264q10 50 45 89.5t82 39.5t63 -40t6 -89t-44 -89t-81 -40t-64 40t-7 89z" />
<glyph unicode="&#xa9;" d="M136 461.5q-6 104.5 16 222.5q40 191 156 352.5t276.5 254.5t326.5 93t285.5 -93t165.5 -254t6 -353q-30 -143 -105.5 -273t-176.5 -224t-225 -149.5t-249 -55.5q-100 0 -185.5 35.5t-146 99.5t-99.5 152t-45 192.5zM254 684q-34 -160 7 -299t141 -220t233 -81 q84 0 181 43t187.5 118t162.5 191t100 248q33 155 -5.5 293t-138 221.5t-233.5 83.5q-93 0 -192 -41.5t-187.5 -115.5t-157.5 -189.5t-98 -251.5zM453 690q37 176 152.5 290t266.5 114q110 0 171.5 -71t52.5 -194h-103q9 162 -141 162q-116 0 -192 -81.5t-105 -217.5 q-15 -85 -6 -153.5t55 -111t121 -42.5q74 0 129 43.5t82 128.5h102q-38 -121 -133.5 -197.5t-202.5 -76.5q-148 0 -217 117t-32 290z" />
<glyph unicode="&#xaa;" d="M389 483l25 113h655l-25 -113h-655zM471 733l363 633h143l92 -633l-137 -41l-27 185h-209l-104 -185zM758 989h135l-27 199z" />
<glyph unicode="&#xab;" d="M223 676l625 491l76 -100l-504 -391l336 -393l-117 -103zM682 676l625 491l75 -100l-503 -391l335 -393l-116 -103z" />
<glyph unicode="&#xac;" d="M209 829v91h1089v-566h-90v475h-999z" />
<glyph unicode="&#xad;" d="M487 469l27 129h455l-27 -129h-455z" />
<glyph unicode="&#xae;" d="M128.5 459q-6.5 104 16.5 221q40 190 156.5 350t278 253t329.5 93q167 0 288.5 -93t169 -253.5t7.5 -349.5q-31 -143 -107 -272t-177.5 -222.5t-227 -148.5t-250.5 -55q-101 0 -188 35.5t-148.5 99t-101 151t-46 191.5zM248 680q-34 -159 6 -296.5t141.5 -218.5 t239.5 -81q130 0 262.5 75t235.5 214t139 307q28 132 5.5 241.5t-79.5 187.5t-139 121.5t-172 43.5q-93 0 -194 -44t-190.5 -120t-158.5 -189.5t-96 -240.5zM451 289l165 780h297q121 0 170.5 -50.5t26.5 -156.5q-42 -206 -258 -213l131 -360h-121l-119 360h-114l-76 -360 h-102zM651 752h187q70 0 114 25t58 89l3.5 31.5t-4.5 24t-11 18t-17 12.5t-22 8t-26 4.5t-29.5 2t-31.5 0.5h-176z" />
<glyph unicode="&#xaf;" d="M578 1200l24 123h588l-25 -123h-587z" />
<glyph unicode="&#xb0;" d="M358 1124q0 164 116 280t280 116t279.5 -116t115.5 -280q0 -163 -115.5 -279t-279.5 -116t-280 116t-116 279zM444 1124q0 -127 91 -218t219 -91t218.5 90.5t90.5 218.5t-91 219t-218 91q-128 0 -219 -91t-91 -219z" />
<glyph unicode="&#xb1;" d="M209 96v90h1089v-90h-1089zM209 788v91h500v499h90v-499h499v-91h-499v-499h-90v499h-500z" />
<glyph unicode="&#xb2;" d="M532 680l17 86l338 311q2 1 13 11t13 12.5t11.5 11t12.5 12t10 12t10 14t7.5 13t6.5 15.5l4 16q9 41 -13 64.5t-63 23.5q-109 0 -154 -133l-112 14q34 104 108.5 162.5t178.5 58.5q92 0 144.5 -48.5t33.5 -137.5q-7 -36 -29.5 -71t-43 -56t-58.5 -57l-254 -232h295 l-21 -102h-455z" />
<glyph unicode="&#xb3;" d="M539 680l20 102q332 -3 369 170q11 51 -27.5 73t-95.5 22q-29 0 -113 -13l19 80l223 168h-279l23 102h452l-18 -86l-211 -161q76 -8 121 -57.5t29 -125.5q-6 -30 -23 -63.5t-56.5 -75.5t-93.5 -73t-142.5 -50t-196.5 -12z" />
<glyph unicode="&#xb4;" d="M668 1217l407 206l45 -129l-418 -168z" />
<glyph unicode="&#xb5;" d="M178 -432l320 1499h137l-150 -705q-15 -62 -7 -106t24 -72t41.5 -44.5t47 -22.5t40.5 -6q56 0 105 28t83 72.5t56.5 94.5t33.5 100l142 661h137l-227 -1067h-138l19 90q-44 -50 -105.5 -79t-122.5 -29q-132 0 -188 100l-111 -514h-137z" />
<glyph unicode="&#xb6;" d="M326 985q7 33 16.5 62t30 71t48 76.5t72.5 71t100.5 61.5t135.5 41t174 16h504l-27 -122h-94l-297 -1399h-137l297 1399h-174l-297 -1399h-137l153 729q-92 -7 -168.5 18.5t-127.5 76t-71 128t-1 170.5z" />
<glyph unicode="&#xb7;" d="M655 737q0 43 30 73t73 30t72.5 -30t29.5 -73t-29.5 -72.5t-72.5 -29.5t-73 29.5t-30 72.5z" />
<glyph unicode="&#xb8;" d="M367 -330l63 105q73 -41 141 -41q64 0 74 41q4 19 -6.5 32t-33.5 19t-42 8.5t-47 4t-33 1.5l109 187h123l-62 -113q70 -3 108.5 -40t24.5 -105q-14 -69 -83 -113.5t-140 -44.5q-80 0 -196 59z" />
<glyph unicode="&#xb9;" d="M569 680l21 102h151l99 465l-135 -43l-17 92l307 97l-131 -611h119l-20 -102h-394z" />
<glyph unicode="&#xba;" d="M389 483l25 113h655l-25 -113h-655zM561 923.5q-4 60.5 12 123.5q15 67 42 125t67 107t98.5 77t128.5 28t117.5 -29t66.5 -76t23.5 -107.5t-12.5 -124.5q-14 -66 -41 -124t-68 -106.5t-100 -77t-129 -28.5t-116.5 29t-65.5 76t-23 107.5zM711 1047q-47 -224 77 -224 q40 0 72.5 22t53 58.5t33 71t20.5 72.5q46 225 -82 225q-127 0 -174 -225z" />
<glyph unicode="&#xbb;" d="M133 283l504 393l-336 391l117 100l416 -491l-625 -496zM592 283l504 393l-336 391l117 100l415 -491l-624 -496z" />
<glyph unicode="&#xbc;" d="M176 27l1063 1366l94 -60l-1061 -1360zM231 680l21 102h151l99 465l-135 -43l-17 92l307 97l-131 -611h119l-20 -102h-394zM717 160l233 547l113 -21l-184 -424h151l72 332h123l-72 -332h57l-20 -102h-57l-35 -160h-123l35 160h-293z" />
<glyph unicode="&#xbd;" d="M184 27l1063 1366l94 -60l-1060 -1360zM246 680l20 102h152l98 465l-135 -43l-16 92l307 97l-131 -611h118l-20 -102h-393zM684 0l18 86l336 311q5 5 19 17.5t19.5 18t16 17t15.5 20t10.5 20.5t7.5 24q9 42 -12.5 65t-62.5 23q-111 0 -152 -133l-115 14q34 104 108.5 163 t178.5 59q92 0 145.5 -49t34.5 -138q-11 -51 -43.5 -92.5t-87.5 -91.5l-254 -232h295l-22 -102h-455z" />
<glyph unicode="&#xbe;" d="M178 27l1063 1366l94 -60l-1061 -1360zM229 682l21 102q331 -3 368 168q11 51 -27 73t-95 22q-28 0 -113 -13l18 80l224 168h-279l23 102h452l-18 -86l-211 -161q76 -8 120.5 -57.5t28.5 -125.5q-6 -30 -23 -63.5t-56.5 -75t-93.5 -72.5t-142.5 -49.5t-196.5 -11.5z M719 160l233 547l113 -21l-184 -424h151l72 332h123l-72 -332h57l-20 -102h-57l-35 -160h-123l35 160h-293z" />
<glyph unicode="&#xbf;" d="M311 328q23 108 91 186.5t186 163.5q29 21 35 25.5t26.5 21t24.5 21.5t17 19.5t16 23.5t11 25.5t12 33t9 39.5l6 28h142l-8 -34q-27 -113 -57.5 -159t-131.5 -120q-108 -79 -146 -116q-71 -71 -89 -154q-21 -98 20.5 -159.5t138.5 -61.5q113 0 194 80.5t128 201.5 l127 -35q-73 -178 -186.5 -277t-284.5 -99q-160 0 -237 93.5t-44 252.5zM752 1063l65 303h189l-66 -303h-188z" />
<glyph unicode="&#xc0;" d="M188 10l635 1356h164l57 -1356l-143 -37l-10 449h-373l-203 -449zM578 545h307l-17 639h-4zM725 1593l102 129l318 -206l-72 -91z" />
<glyph unicode="&#xc1;" d="M188 10l635 1356h164l57 -1356l-143 -37l-10 449h-373l-203 -449zM578 545h307l-17 639h-4zM709 1516l407 206l45 -129l-418 -168z" />
<glyph unicode="&#xc2;" d="M188 10l635 1356h164l57 -1356l-143 -37l-10 449h-373l-203 -449zM578 545h307l-17 639h-4zM602 1501l352 209l267 -209l-64 -74l-235 127l-287 -127z" />
<glyph unicode="&#xc3;" d="M188 10l635 1356h164l57 -1356l-143 -37l-10 449h-373l-203 -449zM578 545h307l-17 639h-4zM590 1473q22 37 35.5 59t39 54.5t48.5 50.5t55 32t66 14q26 0 49.5 -10t36 -20t34.5 -31q1 -1 9.5 -9t11 -10t10.5 -9t12 -9.5l12 -7.5t13.5 -6.5t12.5 -3.5t14 -2q16 0 31 8.5 t28 25.5t21 29.5t19.5 35.5t14.5 28l97 -33q-24 -48 -40.5 -75.5t-45.5 -65t-65 -56t-79 -18.5t-70.5 14.5t-64.5 48.5q-54 54 -88 54q-15 0 -29 -7t-24 -15.5t-22.5 -25t-18.5 -26t-17 -29t-14 -24.5z" />
<glyph unicode="&#xc4;" d="M188 10l635 1356h164l57 -1356l-143 -37l-10 449h-373l-203 -449zM578 545h307l-17 639h-4zM637 1563q10 50 45 89.5t82 39.5t63.5 -40t6.5 -89t-44 -89t-81 -40t-64.5 40t-7.5 89zM1014 1563q10 50 45 89.5t82 39.5t63 -40t6 -89t-44 -89t-81 -40t-64 40t-7 89z" />
<glyph unicode="&#xc5;" d="M188 10l635 1356h164l57 -1356l-143 -37l-10 449h-373l-203 -449zM578 545h307l-17 639h-4zM756 1559q15 72 79 124t138 52q73 0 113.5 -52t25.5 -124q-15 -74 -78.5 -126.5t-136.5 -52.5t-114.5 52.5t-26.5 126.5zM838 1559q-9 -40 13 -68.5t62 -28.5t74 28.5t43 68.5 q8 39 -14.5 66.5t-61.5 27.5q-40 0 -74 -28t-42 -66z" />
<glyph unicode="&#xc6;" d="M90 10l633 1356h608l-26 -123h-322l-96 -450h297l-25 -123h-297l-117 -547h322l-27 -123h-458l90 422h-246l-205 -449zM479 545h219l148 698h-55z" />
<glyph unicode="&#xc7;" d="M342.5 345.5q-1.5 93.5 8.5 171.5t28 165q20 93 46 178.5t73.5 185t105.5 171t145 119.5t189 48q211 0 287 -221l-131 -69q-51 161 -185 161q-263 0 -387 -573q-119 -571 144 -571q73 0 146 49.5t132 122.5l96 -78q-158 -193 -348 -219l-39 -72q70 -3 108.5 -40 t24.5 -105q-14 -69 -83 -113.5t-140 -44.5q-80 0 -196 59l63 105q73 -41 141 -41q64 0 74 41q4 19 -6.5 32t-33.5 19t-42 8.5t-47 4t-33 1.5l86 148q-81 15 -132.5 69.5t-72 124.5t-22 163.5z" />
<glyph unicode="&#xc8;" d="M322 0l290 1366h666l-27 -123h-528l-96 -450h436l-25 -123h-436l-117 -547h529l-27 -123h-665zM745 1593l103 129l317 -206l-71 -91z" />
<glyph unicode="&#xc9;" d="M322 0l290 1366h666l-27 -123h-528l-96 -450h436l-25 -123h-436l-117 -547h529l-27 -123h-665zM729 1516l408 206l45 -129l-418 -168z" />
<glyph unicode="&#xca;" d="M322 0l290 1366h666l-27 -123h-528l-96 -450h436l-25 -123h-436l-117 -547h529l-27 -123h-665zM623 1501l352 209l266 -209l-63 -74l-236 127l-287 -127z" />
<glyph unicode="&#xcb;" d="M322 0l290 1366h666l-27 -123h-528l-96 -450h436l-25 -123h-436l-117 -547h529l-27 -123h-665zM657 1563q10 50 45 89.5t82 39.5t63.5 -40t6.5 -89t-44 -89t-81 -40t-64.5 40t-7.5 89zM1034 1563q10 50 45 89.5t82 39.5t63.5 -40t6.5 -89t-44 -89t-81 -40t-64.5 40 t-7.5 89z" />
<glyph unicode="&#xcc;" d="M360 0l27 123h184l238 1120h-184l26 123h508l-26 -123h-187l-237 -1120h186l-27 -123h-508zM725 1593l102 129l318 -206l-72 -91z" />
<glyph unicode="&#xcd;" d="M360 0l27 123h184l238 1120h-184l26 123h508l-26 -123h-187l-237 -1120h186l-27 -123h-508zM709 1516l407 206l45 -129l-418 -168z" />
<glyph unicode="&#xce;" d="M360 0l27 123h184l238 1120h-184l26 123h508l-26 -123h-187l-237 -1120h186l-27 -123h-508zM602 1501l352 209l267 -209l-64 -74l-235 127l-287 -127z" />
<glyph unicode="&#xcf;" d="M360 0l27 123h184l238 1120h-184l26 123h508l-26 -123h-187l-237 -1120h186l-27 -123h-508zM637 1563q10 50 45 89.5t82 39.5t63.5 -40t6.5 -89t-44 -89t-81 -40t-64.5 40t-7.5 89zM1014 1563q10 50 45 89.5t82 39.5t63 -40t6 -89t-44 -89t-81 -40t-64 40t-7 89z" />
<glyph unicode="&#xd0;" d="M244 0l26 123h111l104 498h-110l26 122h111l106 500h-110l27 123h360q87 0 147.5 -17t107 -62t65 -121t12.5 -197t-41 -287q-16 -78 -30 -133.5t-39.5 -132t-53.5 -130t-72.5 -111.5t-97 -93.5t-126 -58.5t-159.5 -23h-364zM518 123h113q57 0 96.5 8.5t87 40t83.5 90.5 t74 164t70 256q23 108 33 194.5t9 144.5t-13 100t-28 65t-42 36.5t-48 17t-52 3.5h-145l-107 -500h162l-27 -122h-161z" />
<glyph unicode="&#xd1;" d="M258 0l291 1366h172l162 -1149l4 4l59 305l178 840h138l-291 -1366h-172l-162 1151l-4 -4l-60 -309l-178 -838h-137zM590 1473q22 37 35.5 59t39 54.5t48.5 50.5t55 32t66 14q26 0 49.5 -10t36 -20t34.5 -31q1 -1 9.5 -9t11 -10t10.5 -9t12 -9.5l12 -7.5t13.5 -6.5 t12.5 -3.5t14 -2q16 0 31 8.5t28 25.5t21 29.5t19.5 35.5t14.5 28l97 -33q-24 -48 -40.5 -75.5t-45.5 -65t-65 -56t-79 -18.5t-70.5 14.5t-64.5 48.5q-54 54 -88 54q-15 0 -29 -7t-24 -15.5t-22.5 -25t-18.5 -26t-17 -29t-14 -24.5z" />
<glyph unicode="&#xd2;" d="M367 615q2 10 14 69q13 61 25 110.5t36.5 125.5t51.5 135t69 123.5t90 107t114.5 70.5t141.5 28q79 0 134.5 -30.5t85.5 -73t43 -114t14.5 -125.5t-9 -136t-17.5 -118t-20 -98q-1 -3 -1 -5q-50 -233 -111 -369q-151 -333 -418 -333q-371 0 -243 633zM475.5 372 q-4.5 -67 3 -113.5t26 -80.5t51.5 -50.5t81 -16.5q39 0 73.5 13t61.5 31t52.5 53t43 62.5t36 77.5t28.5 80.5t24.5 88.5t20.5 83.5t18 83.5q48 226 54 318q12 216 -116 247q-24 6 -52 6q-56 0 -103.5 -23.5t-84 -78.5t-60 -95t-48 -126t-32 -115.5t-25.5 -115.5l-1.5 -6 t-1 -5t-1.5 -6q-21 -97 -32.5 -171t-16 -141zM725 1593l102 129l318 -206l-72 -91z" />
<glyph unicode="&#xd3;" d="M367 615q2 10 14 69q13 61 25 110.5t36.5 125.5t51.5 135t69 123.5t90 107t114.5 70.5t141.5 28q79 0 134.5 -30.5t85.5 -73t43 -114t14.5 -125.5t-9 -136t-17.5 -118t-20 -98q-1 -3 -1 -5q-50 -233 -111 -369q-151 -333 -418 -333q-371 0 -243 633zM475.5 372 q-4.5 -67 3 -113.5t26 -80.5t51.5 -50.5t81 -16.5q39 0 73.5 13t61.5 31t52.5 53t43 62.5t36 77.5t28.5 80.5t24.5 88.5t20.5 83.5t18 83.5q48 226 54 318q12 216 -116 247q-24 6 -52 6q-56 0 -103.5 -23.5t-84 -78.5t-60 -95t-48 -126t-32 -115.5t-25.5 -115.5l-1.5 -6 t-1 -5t-1.5 -6q-21 -97 -32.5 -171t-16 -141zM709 1516l407 206l45 -129l-418 -168z" />
<glyph unicode="&#xd4;" d="M367 615q2 10 14 69q13 61 25 110.5t36.5 125.5t51.5 135t69 123.5t90 107t114.5 70.5t141.5 28q79 0 134.5 -30.5t85.5 -73t43 -114t14.5 -125.5t-9 -136t-17.5 -118t-20 -98q-1 -3 -1 -5q-50 -233 -111 -369q-151 -333 -418 -333q-371 0 -243 633zM475.5 372 q-4.5 -67 3 -113.5t26 -80.5t51.5 -50.5t81 -16.5q39 0 73.5 13t61.5 31t52.5 53t43 62.5t36 77.5t28.5 80.5t24.5 88.5t20.5 83.5t18 83.5q48 226 54 318q12 216 -116 247q-24 6 -52 6q-56 0 -103.5 -23.5t-84 -78.5t-60 -95t-48 -126t-32 -115.5t-25.5 -115.5l-1.5 -6 t-1 -5t-1.5 -6q-21 -97 -32.5 -171t-16 -141zM602 1501l352 209l267 -209l-64 -74l-235 127l-287 -127z" />
<glyph unicode="&#xd5;" d="M367 615q2 10 14 69q13 61 25 110.5t36.5 125.5t51.5 135t69 123.5t90 107t114.5 70.5t141.5 28q79 0 134.5 -30.5t85.5 -73t43 -114t14.5 -125.5t-9 -136t-17.5 -118t-20 -98q-1 -3 -1 -5q-50 -233 -111 -369q-151 -333 -418 -333q-371 0 -243 633zM475.5 372 q-4.5 -67 3 -113.5t26 -80.5t51.5 -50.5t81 -16.5q39 0 73.5 13t61.5 31t52.5 53t43 62.5t36 77.5t28.5 80.5t24.5 88.5t20.5 83.5t18 83.5q48 226 54 318q12 216 -116 247q-24 6 -52 6q-56 0 -103.5 -23.5t-84 -78.5t-60 -95t-48 -126t-32 -115.5t-25.5 -115.5l-1.5 -6 t-1 -5t-1.5 -6q-21 -97 -32.5 -171t-16 -141zM590 1473q22 37 35.5 59t39 54.5t48.5 50.5t55 32t66 14q26 0 49.5 -10t36 -20t34.5 -31q1 -1 9.5 -9t11 -10t10.5 -9t12 -9.5l12 -7.5t13.5 -6.5t12.5 -3.5t14 -2q16 0 31 8.5t28 25.5t21 29.5t19.5 35.5t14.5 28l97 -33 q-24 -48 -40.5 -75.5t-45.5 -65t-65 -56t-79 -18.5t-70.5 14.5t-64.5 48.5q-54 54 -88 54q-15 0 -29 -7t-24 -15.5t-22.5 -25t-18.5 -26t-17 -29t-14 -24.5z" />
<glyph unicode="&#xd6;" d="M367 615q2 10 14 69q13 61 25 110.5t36.5 125.5t51.5 135t69 123.5t90 107t114.5 70.5t141.5 28q79 0 134.5 -30.5t85.5 -73t43 -114t14.5 -125.5t-9 -136t-17.5 -118t-20 -98q-1 -3 -1 -5q-50 -233 -111 -369q-151 -333 -418 -333q-371 0 -243 633zM475.5 372 q-4.5 -67 3 -113.5t26 -80.5t51.5 -50.5t81 -16.5q39 0 73.5 13t61.5 31t52.5 53t43 62.5t36 77.5t28.5 80.5t24.5 88.5t20.5 83.5t18 83.5q48 226 54 318q12 216 -116 247q-24 6 -52 6q-56 0 -103.5 -23.5t-84 -78.5t-60 -95t-48 -126t-32 -115.5t-25.5 -115.5l-1.5 -6 t-1 -5t-1.5 -6q-21 -97 -32.5 -171t-16 -141zM637 1563q10 50 45 89.5t82 39.5t63.5 -40t6.5 -89t-44 -89t-81 -40t-64.5 40t-7.5 89zM1014 1563q10 50 45 89.5t82 39.5t63 -40t6 -89t-44 -89t-81 -40t-64 40t-7 89z" />
<glyph unicode="&#xd7;" d="M209 258l481 479l-481 482l63 63l482 -481l481 481l63 -63l-481 -482l481 -479l-63 -65l-481 481l-482 -481z" />
<glyph unicode="&#xd8;" d="M203 47l149 199q-15 169 43 438q47 213 94 330q149 369 435 370q67 0 123 -27t92 -75l90 119l96 -55l-137 -181q31 -174 -35 -481q-14 -64 -26.5 -114.5t-37 -127.5t-51.5 -135t-69 -122.5t-90 -106t-113.5 -69t-140.5 -27.5t-139.5 36.5t-96.5 96.5l-94 -121zM494 250 q26 -139 157 -139q25 0 43.5 2.5t47.5 14.5t52.5 33.5t53 62t54.5 97t52 143t50 195.5q37 164 55 334l2 4h-4l-563 -743v-4zM496 434l548 723q-36 98 -149 98q-41 0 -73 -9.5t-72 -42.5t-72.5 -90t-67.5 -159.5t-65 -244.5q-42 -193 -49 -275z" />
<glyph unicode="&#xd9;" d="M350 326l221 1040h138l-211 -993q-10 -45 -13.5 -79.5t1 -70.5t20.5 -59t49 -38t82 -15t89 15t66.5 38.5t47 59t32 70.5t21.5 79l211 993h137l-221 -1034q-34 -159 -145.5 -254.5t-264.5 -95.5t-223 95t-37 249zM725 1593l102 129l318 -206l-72 -91z" />
<glyph unicode="&#xda;" d="M350 326l221 1040h138l-211 -993q-10 -45 -13.5 -79.5t1 -70.5t20.5 -59t49 -38t82 -15t89 15t66.5 38.5t47 59t32 70.5t21.5 79l211 993h137l-221 -1034q-34 -159 -145.5 -254.5t-264.5 -95.5t-223 95t-37 249zM709 1516l407 206l45 -129l-418 -168z" />
<glyph unicode="&#xdb;" d="M350 326l221 1040h138l-211 -993q-10 -45 -13.5 -79.5t1 -70.5t20.5 -59t49 -38t82 -15t89 15t66.5 38.5t47 59t32 70.5t21.5 79l211 993h137l-221 -1034q-34 -159 -145.5 -254.5t-264.5 -95.5t-223 95t-37 249zM602 1501l352 209l267 -209l-64 -74l-235 127l-287 -127z " />
<glyph unicode="&#xdc;" d="M350 326l221 1040h138l-211 -993q-10 -45 -13.5 -79.5t1 -70.5t20.5 -59t49 -38t82 -15t89 15t66.5 38.5t47 59t32 70.5t21.5 79l211 993h137l-221 -1034q-34 -159 -145.5 -254.5t-264.5 -95.5t-223 95t-37 249zM637 1563q10 50 45 89.5t82 39.5t63.5 -40t6.5 -89 t-44 -89t-81 -40t-64.5 40t-7.5 89zM1014 1563q10 50 45 89.5t82 39.5t63 -40t6 -89t-44 -89t-81 -40t-64 40t-7 89z" />
<glyph unicode="&#xdd;" d="M477 1341l139 52l146 -695l444 695l115 -52l-524 -802l-115 -539h-137l114 539zM709 1516l407 206l45 -129l-418 -168z" />
<glyph unicode="&#xde;" d="M332 0l291 1366h137l-66 -303h160q182 0 260 -94t41 -269q-40 -185 -155 -290t-261 -105h-204l-66 -305h-137zM559 428h193q95 0 163.5 71.5t96.5 200.5q50 240 -185 240h-157z" />
<glyph unicode="&#xdf;" d="M299 0l182 858q7 33 32.5 70.5t66 73.5t103 59.5t132.5 23.5q118 0 173.5 -72.5t29.5 -189.5q-14 -71 -55.5 -133t-104.5 -94q87 -25 122.5 -106t14.5 -181q-14 -65 -42.5 -119t-63.5 -88.5t-77 -58t-81.5 -33.5t-77.5 -10h-125l27 123h94q164 0 201 180 q23 105 -22 156.5t-152 48.5l24 123q67 9 112.5 59t59.5 119q14 71 -8.5 109t-91.5 38q-46 0 -77.5 -15t-50 -46t-28 -59.5t-18.5 -73.5l-162 -762h-137z" />
<glyph unicode="&#xe0;" d="M195 23l559 1044h176l112 -1044l-145 -50l-31 318h-379l-168 -318zM551 414h303l-47 493zM684 1335l102 129l318 -207l-72 -90z" />
<glyph unicode="&#xe1;" d="M195 23l559 1044h176l112 -1044l-145 -50l-31 318h-379l-168 -318zM551 414h303l-47 493zM668 1257l407 207l45 -129l-418 -168z" />
<glyph unicode="&#xe2;" d="M195 23l559 1044h176l112 -1044l-145 -50l-31 318h-379l-168 -318zM551 414h303l-47 493zM561 1243l352 209l267 -209l-64 -74l-235 127l-287 -127z" />
<glyph unicode="&#xe3;" d="M195 23l559 1044h176l112 -1044l-145 -50l-31 318h-379l-168 -318zM549 1214q22 37 35.5 59t39 55t48.5 51t55 32t66 14q26 0 49.5 -10t36 -20t34.5 -31q1 -1 9.5 -9t11 -10t10.5 -9t12 -9.5l12 -7.5t13.5 -6.5t12.5 -3.5t14 -2q16 0 31 8.5t28 25.5t21 29.5t19.5 35.5 t14.5 28l97 -33q-24 -48 -40.5 -75.5t-45.5 -65t-65 -56t-79 -18.5t-70.5 14.5t-64.5 48.5q-54 54 -88 54q-15 0 -29 -7t-24 -15.5t-22.5 -25t-18.5 -26t-17 -29t-14 -24.5zM551 414h303l-47 493z" />
<glyph unicode="&#xe4;" d="M195 23l559 1044h176l112 -1044l-145 -50l-31 318h-379l-168 -318zM551 414h303l-47 493zM596 1305q10 50 45 89.5t82 39.5t63.5 -40t6.5 -89t-44 -89t-81 -40t-64.5 40t-7.5 89zM973 1305q10 50 45 89.5t82 39.5t63 -40t6 -89t-44 -89t-81 -40t-64 40t-7 89z" />
<glyph unicode="&#xe5;" d="M195 23l559 1044h176l112 -1044l-145 -50l-31 318h-379l-168 -318zM551 414h303l-47 493zM694 1260q15 72 79 124t138 52q73 0 114 -52t26 -124q-15 -74 -78.5 -126.5t-136.5 -52.5t-115 52.5t-27 126.5zM776 1260q-9 -40 13.5 -68.5t62.5 -28.5t74 28.5t43 68.5 q8 39 -14.5 66.5t-61.5 27.5q-40 0 -75 -28t-42 -66z" />
<glyph unicode="&#xe6;" d="M86 23l559 1044h680l-27 -123h-364l-68 -319h297l-26 -123h-297l-80 -379h364l-26 -123h-502l61 291h-280l-166 -318zM442 414h242l113 530h-86z" />
<glyph unicode="&#xe7;" d="M325 349q1 86 21 183q26 123 72 220.5t99 158.5t115 101.5t118.5 56.5t111.5 16q119 0 186 -57.5t103 -169.5l-139 -63q-23 75 -63.5 118t-112.5 43q-61 0 -114.5 -28.5t-90 -72t-66.5 -102t-47 -111t-29 -107.5q-10 -46 -15 -89.5t-6 -93.5t9.5 -91.5t30 -76t57.5 -54 t90 -19.5q59 0 113 25t90.5 58t85.5 89l96 -78q-82 -97 -165.5 -152.5t-182.5 -66.5l-39 -72q70 -3 108.5 -40t24.5 -105q-14 -69 -83 -113.5t-140 -44.5q-80 0 -196 59l63 105q73 -41 141 -41q64 0 74 41q4 19 -6.5 32t-33.5 19t-42 8.5t-47 4t-33 1.5l86 148 q-89 15 -146 67t-78 130t-20 164z" />
<glyph unicode="&#xe8;" d="M322 0l227 1067h665l-26 -123h-529l-67 -319h436l-27 -123h-436l-80 -379h529l-27 -123h-665zM684 1335l102 129l318 -207l-72 -90z" />
<glyph unicode="&#xe9;" d="M322 0l227 1067h665l-26 -123h-529l-67 -319h436l-27 -123h-436l-80 -379h529l-27 -123h-665zM668 1257l407 207l45 -129l-418 -168z" />
<glyph unicode="&#xea;" d="M322 0l227 1067h665l-26 -123h-529l-67 -319h436l-27 -123h-436l-80 -379h529l-27 -123h-665zM561 1243l352 209l267 -209l-64 -74l-235 127l-287 -127z" />
<glyph unicode="&#xeb;" d="M322 0l227 1067h665l-26 -123h-529l-67 -319h436l-27 -123h-436l-80 -379h529l-27 -123h-665zM596 1305q10 50 45 89.5t82 39.5t63.5 -40t6.5 -89t-44 -89t-81 -40t-64.5 40t-7.5 89zM973 1305q10 50 45 89.5t82 39.5t63 -40t6 -89t-44 -89t-81 -40t-64 40t-7 89z" />
<glyph unicode="&#xec;" d="M395 0l27 123h149l174 821h-149l27 123h438l-27 -123h-151l-174 -821h151l-26 -123h-439zM684 1335l102 129l318 -207l-72 -90z" />
<glyph unicode="&#xed;" d="M395 0l27 123h149l174 821h-149l27 123h438l-27 -123h-151l-174 -821h151l-26 -123h-439zM668 1257l407 207l45 -129l-418 -168z" />
<glyph unicode="&#xee;" d="M395 0l27 123h149l174 821h-149l27 123h438l-27 -123h-151l-174 -821h151l-26 -123h-439zM561 1243l352 209l267 -209l-64 -74l-235 127l-287 -127z" />
<glyph unicode="&#xef;" d="M395 0l27 123h149l174 821h-149l27 123h438l-27 -123h-151l-174 -821h151l-26 -123h-439zM596 1305q10 50 45 89.5t82 39.5t63.5 -40t6.5 -89t-44 -89t-81 -40t-64.5 40t-7.5 89zM973 1305q10 50 45 89.5t82 39.5t63 -40t6 -89t-44 -89t-81 -40t-64 40t-7 89z" />
<glyph unicode="&#xf0;" d="M244 0l26 123h111l74 348h-111l27 123h110l74 350h-111l27 123h356q93 0 159 -16t112 -53t66.5 -97.5t19 -147.5t-26.5 -206q-20 -91 -40 -157.5t-51 -132t-71.5 -110t-95.5 -79.5t-130 -51.5t-169 -16.5h-356zM518 123h146q138 0 217.5 91.5t128.5 317.5 q26 121 26.5 202.5t-25 127t-68 64t-109.5 18.5h-142l-74 -350h162l-26 -123h-162z" />
<glyph unicode="&#xf1;" d="M258 0l227 1067h170l222 -899l6 4l47 277l131 618h137l-227 -1067h-170l-223 899l-5 -4l-47 -279l-131 -616h-137zM549 1214q22 37 35.5 59t39 55t48.5 51t55 32t66 14q26 0 49.5 -10t36 -20t34.5 -31q1 -1 9.5 -9t11 -10t10.5 -9t12 -9.5l12 -7.5t13.5 -6.5t12.5 -3.5 t14 -2q16 0 31 8.5t28 25.5t21 29.5t19.5 35.5t14.5 28l97 -33q-24 -48 -40.5 -75.5t-45.5 -65t-65 -56t-79 -18.5t-70.5 14.5t-64.5 48.5q-54 54 -88 54q-15 0 -29 -7t-24 -15.5t-22.5 -25t-18.5 -26t-17 -29t-14 -24.5z" />
<glyph unicode="&#xf2;" d="M324 343q2 85 24 189q32 152 90 264.5t128 173t139.5 88t140.5 27.5q38 0 73 -8t69 -26.5t61 -47.5t47 -73t29 -100t4.5 -132t-23.5 -166q-6 -29 -13.5 -58t-27.5 -87.5t-44 -107.5t-65 -106.5t-88 -97t-114.5 -66.5t-143.5 -27q-45 0 -85.5 11.5t-79 36t-65 67.5 t-42.5 102t-14 144zM468.5 354q-2.5 -51 6 -91.5t25.5 -76t52 -55.5t85 -20q59 0 110 29.5t85 73t61.5 103.5t42.5 110.5t27 104.5t18.5 105t4.5 111.5t-17.5 104.5t-54 73.5t-97.5 29.5q-231 0 -325 -424q-9 -45 -15 -86t-8.5 -92zM684 1335l102 129l318 -207l-72 -90z" />
<glyph unicode="&#xf3;" d="M324 343q2 85 24 189q32 152 90 264.5t128 173t139.5 88t140.5 27.5q38 0 73 -8t69 -26.5t61 -47.5t47 -73t29 -100t4.5 -132t-23.5 -166q-6 -29 -13.5 -58t-27.5 -87.5t-44 -107.5t-65 -106.5t-88 -97t-114.5 -66.5t-143.5 -27q-45 0 -85.5 11.5t-79 36t-65 67.5 t-42.5 102t-14 144zM468.5 354q-2.5 -51 6 -91.5t25.5 -76t52 -55.5t85 -20q59 0 110 29.5t85 73t61.5 103.5t42.5 110.5t27 104.5t18.5 105t4.5 111.5t-17.5 104.5t-54 73.5t-97.5 29.5q-231 0 -325 -424q-9 -45 -15 -86t-8.5 -92zM668 1257l407 207l45 -129l-418 -168z " />
<glyph unicode="&#xf4;" d="M324 343q2 85 24 189q32 152 90 264.5t128 173t139.5 88t140.5 27.5q38 0 73 -8t69 -26.5t61 -47.5t47 -73t29 -100t4.5 -132t-23.5 -166q-6 -29 -13.5 -58t-27.5 -87.5t-44 -107.5t-65 -106.5t-88 -97t-114.5 -66.5t-143.5 -27q-45 0 -85.5 11.5t-79 36t-65 67.5 t-42.5 102t-14 144zM468.5 354q-2.5 -51 6 -91.5t25.5 -76t52 -55.5t85 -20q59 0 110 29.5t85 73t61.5 103.5t42.5 110.5t27 104.5t18.5 105t4.5 111.5t-17.5 104.5t-54 73.5t-97.5 29.5q-231 0 -325 -424q-9 -45 -15 -86t-8.5 -92zM561 1243l352 209l267 -209l-64 -74 l-235 127l-287 -127z" />
<glyph unicode="&#xf5;" d="M324 343q2 85 24 189q32 152 90 264.5t128 173t139.5 88t140.5 27.5q38 0 73 -8t69 -26.5t61 -47.5t47 -73t29 -100t4.5 -132t-23.5 -166q-6 -29 -13.5 -58t-27.5 -87.5t-44 -107.5t-65 -106.5t-88 -97t-114.5 -66.5t-143.5 -27q-45 0 -85.5 11.5t-79 36t-65 67.5 t-42.5 102t-14 144zM468.5 354q-2.5 -51 6 -91.5t25.5 -76t52 -55.5t85 -20q59 0 110 29.5t85 73t61.5 103.5t42.5 110.5t27 104.5t18.5 105t4.5 111.5t-17.5 104.5t-54 73.5t-97.5 29.5q-231 0 -325 -424q-9 -45 -15 -86t-8.5 -92zM549 1214q22 37 35.5 59t39 55t48.5 51 t55 32t66 14q26 0 49.5 -10t36 -20t34.5 -31q1 -1 9.5 -9t11 -10t10.5 -9t12 -9.5l12 -7.5t13.5 -6.5t12.5 -3.5t14 -2q16 0 31 8.5t28 25.5t21 29.5t19.5 35.5t14.5 28l97 -33q-24 -48 -40.5 -75.5t-45.5 -65t-65 -56t-79 -18.5t-70.5 14.5t-64.5 48.5q-54 54 -88 54 q-15 0 -29 -7t-24 -15.5t-22.5 -25t-18.5 -26t-17 -29t-14 -24.5z" />
<glyph unicode="&#xf6;" d="M324 343q2 85 24 189q32 152 90 264.5t128 173t139.5 88t140.5 27.5q38 0 73 -8t69 -26.5t61 -47.5t47 -73t29 -100t4.5 -132t-23.5 -166q-6 -29 -13.5 -58t-27.5 -87.5t-44 -107.5t-65 -106.5t-88 -97t-114.5 -66.5t-143.5 -27q-45 0 -85.5 11.5t-79 36t-65 67.5 t-42.5 102t-14 144zM468.5 354q-2.5 -51 6 -91.5t25.5 -76t52 -55.5t85 -20q59 0 110 29.5t85 73t61.5 103.5t42.5 110.5t27 104.5t18.5 105t4.5 111.5t-17.5 104.5t-54 73.5t-97.5 29.5q-231 0 -325 -424q-9 -45 -15 -86t-8.5 -92zM596 1305q10 50 45 89.5t82 39.5 t63.5 -40t6.5 -89t-44 -89t-81 -40t-64.5 40t-7.5 89zM973 1305q10 50 45 89.5t82 39.5t63 -40t6 -89t-44 -89t-81 -40t-64 40t-7 89z" />
<glyph unicode="&#xf7;" d="M209 692v90h1089v-90h-1089zM666 420q0 37 25.5 62.5t62.5 25.5t62.5 -25.5t25.5 -62.5t-25.5 -62.5t-62.5 -25.5t-62.5 25.5t-25.5 62.5zM666 1055q0 37 25.5 62.5t62.5 25.5t62.5 -25.5t25.5 -62.5t-25.5 -62.5t-62.5 -25.5t-62.5 25.5t-25.5 62.5z" />
<glyph unicode="&#xf8;" d="M270 23l88 116q-63 138 -10 393q32 147 87 257.5t123.5 173t140 92.5t147.5 30q115 0 182 -61l59 78l91 -58l-82 -112q64 -145 10 -400q-32 -146 -87 -255t-122.5 -172t-139 -93t-147.5 -30q-118 0 -186 65l-59 -80zM471 289l469 616q-39 51 -123 51q-59 0 -110 -29.5 t-84.5 -73.5t-61.5 -104.5t-42.5 -111t-26.5 -105.5q-29 -134 -21 -243zM512 164q47 -53 125 -53q59 0 110 29.5t85 73t61.5 103.5t42.5 110.5t27 104.5q31 146 20 252z" />
<glyph unicode="&#xf9;" d="M340 283l168 784h137l-156 -727q-25 -120 5 -174.5t133 -54.5q123 0 177.5 53t80.5 176l155 727h138l-170 -793q-12 -55 -42.5 -105.5t-78.5 -93t-120 -68t-157 -25.5q-163 0 -230 87t-40 214zM684 1335l102 129l318 -207l-72 -90z" />
<glyph unicode="&#xfa;" d="M340 283l168 784h137l-156 -727q-25 -120 5 -174.5t133 -54.5q123 0 177.5 53t80.5 176l155 727h138l-170 -793q-12 -55 -42.5 -105.5t-78.5 -93t-120 -68t-157 -25.5q-163 0 -230 87t-40 214zM668 1257l407 207l45 -129l-418 -168z" />
<glyph unicode="&#xfb;" d="M340 283l168 784h137l-156 -727q-25 -120 5 -174.5t133 -54.5q123 0 177.5 53t80.5 176l155 727h138l-170 -793q-12 -55 -42.5 -105.5t-78.5 -93t-120 -68t-157 -25.5q-163 0 -230 87t-40 214zM561 1243l352 209l267 -209l-64 -74l-235 127l-287 -127z" />
<glyph unicode="&#xfc;" d="M340 283l168 784h137l-156 -727q-25 -120 5 -174.5t133 -54.5q123 0 177.5 53t80.5 176l155 727h138l-170 -793q-12 -55 -42.5 -105.5t-78.5 -93t-120 -68t-157 -25.5q-163 0 -230 87t-40 214zM596 1305q10 50 45 89.5t82 39.5t63.5 -40t6.5 -89t-44 -89t-81 -40 t-64.5 40t-7.5 89zM973 1305q10 50 45 89.5t82 39.5t63 -40t6 -89t-44 -89t-81 -40t-64 40t-7 89z" />
<glyph unicode="&#xfd;" d="M418 1026l145 68l168 -549l402 549l112 -68l-475 -614l-88 -412h-137l88 412zM668 1257l407 207l45 -129l-418 -168z" />
<glyph unicode="&#xfe;" d="M332 0l227 1067h137l-49 -229h195q90 0 153.5 -23.5t93 -63.5t40 -92.5t-4.5 -111.5q-18 -81 -58 -144t-92.5 -100t-110 -55.5t-115.5 -18.5h-230l-49 -229h-137zM545 352h188q205 0 246 185q21 100 -26 139t-144 39h-188z" />
<glyph unicode="&#xff;" d="M418 1026l145 68l168 -549l402 549l112 -68l-475 -614l-88 -412h-137l88 412zM596 1305q10 50 45 89.5t82 39.5t63.5 -40t6.5 -89t-44 -89t-81 -40t-64.5 40t-7.5 89zM973 1305q10 50 45 89.5t82 39.5t63 -40t6 -89t-44 -89t-81 -40t-64 40t-7 89z" />
<glyph unicode="&#x152;" d="M285 675q1 8 2 11q9 42 14.5 66.5t21 84.5t30.5 101.5t41 103t53.5 104.5t67.5 91t83 78t100 49.5t119 19.5q84 0 119 -18h442l-26 -123h-316l-96 -450h291l-25 -123h-291l-116 -547h315l-27 -123h-450q-15 -5 -53 -14q-36 -4 -56 -4q-396 0 -243 693zM380.5 334.5 q0.5 -45.5 9 -90t27.5 -72t51 -44.5t77 -17q65 0 123 39l227 1073q-30 32 -107 32q-43 0 -77 -10.5t-74 -45t-73 -95t-68 -166t-66 -252.5q-15 -71 -25 -126t-17.5 -117.5t-7 -108z" />
<glyph unicode="&#x153;" d="M214 376.5q5 73.5 22 155.5q27 124 71 222t94.5 159t110 101t113.5 55.5t108 15.5q70 0 115 -18h487l-26 -123h-365l-67 -319h299l-27 -123h-299l-80 -379h365l-27 -123h-487q-16 -6 -56 -14q-36 -4 -55 -4q-89 0 -151.5 33.5t-94 86.5t-43.5 127t-7 147.5zM355.5 354 q-2.5 -51 6 -91.5t25.5 -76t52 -55.5t85 -20q60 0 111 28l168 789q-42 28 -98 28q-59 0 -110 -30t-84.5 -73t-61.5 -104.5t-43 -111t-27 -105.5q-9 -45 -15 -86t-8.5 -92z" />
<glyph unicode="&#x178;" d="M477 1341l139 52l146 -695l444 695l115 -52l-524 -802l-115 -539h-137l114 539zM637 1563q10 50 45 89.5t82 39.5t63.5 -40t6.5 -89t-44 -89t-81 -40t-64.5 40t-7.5 89zM1014 1563q10 50 45 89.5t82 39.5t63 -40t6 -89t-44 -89t-81 -40t-64 40t-7 89z" />
<glyph unicode="&#x2c6;" d="M561 1202l352 209l267 -209l-64 -74l-235 127l-287 -127z" />
<glyph unicode="&#x2dc;" d="M549 1174q22 37 35.5 59t39 54.5t48.5 50.5t55 32t66 14q26 0 49.5 -10t36 -20t34.5 -31q1 -1 9.5 -9t11 -10t10.5 -9t12 -9.5l12 -7.5t13.5 -6.5t12.5 -3.5t14 -2q16 0 31 8.5t28 25.5t21 29.5t19.5 35.5t14.5 28l97 -33q-24 -48 -40.5 -75.5t-45.5 -65t-65 -56 t-79 -18.5t-70.5 14.5t-64.5 48.5q-54 54 -88 54q-15 0 -29 -7t-24 -15.5t-22.5 -25t-18.5 -26t-17 -29t-14 -24.5z" />
<glyph unicode="&#x2000;" horiz-adv-x="867" />
<glyph unicode="&#x2001;" horiz-adv-x="1735" />
<glyph unicode="&#x2002;" horiz-adv-x="867" />
<glyph unicode="&#x2003;" horiz-adv-x="1735" />
<glyph unicode="&#x2004;" horiz-adv-x="578" />
<glyph unicode="&#x2005;" horiz-adv-x="433" />
<glyph unicode="&#x2006;" horiz-adv-x="289" />
<glyph unicode="&#x2007;" horiz-adv-x="289" />
<glyph unicode="&#x2008;" horiz-adv-x="216" />
<glyph unicode="&#x2009;" horiz-adv-x="347" />
<glyph unicode="&#x200a;" horiz-adv-x="96" />
<glyph unicode="&#x2010;" d="M487 469l27 129h455l-27 -129h-455z" />
<glyph unicode="&#x2011;" d="M487 469l27 129h455l-27 -129h-455z" />
<glyph unicode="&#x2012;" d="M487 469l27 129h455l-27 -129h-455z" />
<glyph unicode="&#x2013;" d="M260 469l27 129h909l-27 -129h-909z" />
<glyph unicode="&#x2014;" d="M100 469l27 129h1229l-27 -129h-1229z" />
<glyph unicode="&#x2018;" d="M647 961l19 92q19 99 104 189t195 142l22 -112q-100 -56 -125 -187l-26 -124h-189z" />
<glyph unicode="&#x2019;" d="M680 1055q102 57 127 186l27 125h188l-21 -92q-23 -100 -105.5 -190.5t-190.5 -141.5z" />
<glyph unicode="&#x201a;" d="M455 -8q100 56 125 186l26 125h189l-19 -92q-19 -99 -104 -189.5t-195 -142.5z" />
<glyph unicode="&#x201c;" d="M498 961l18 92q19 99 104 189t195 142l23 -112q-100 -56 -125 -187l-27 -124h-188zM879 961l18 92q19 99 104 189t195 142l23 -112q-100 -56 -125 -187l-27 -124h-188z" />
<glyph unicode="&#x201d;" d="M504 1055q102 57 127 186l26 125h189l-21 -92q-23 -100 -106 -190.5t-191 -141.5zM885 1055q102 57 127 186l26 125h189l-21 -92q-23 -100 -106 -190.5t-191 -141.5z" />
<glyph unicode="&#x201e;" d="M279 -8q99 55 124 186l27 125h188l-18 -92q-19 -99 -104 -189.5t-195 -142.5zM659 -8q100 56 125 186l27 125h188l-18 -92q-19 -99 -104 -189.5t-195 -142.5z" />
<glyph unicode="&#x2022;" d="M479 516q0 103 74.5 177.5t177.5 74.5t177.5 -74.5t74.5 -177.5q0 -105 -74.5 -178.5t-177.5 -73.5q-106 0 -179 73t-73 179z" />
<glyph unicode="&#x2026;" d="M111 0l63 303h188l-63 -303h-188zM520 0l64 303h188l-63 -303h-189zM930 0l63 303h189l-64 -303h-188z" />
<glyph unicode="&#x202f;" horiz-adv-x="347" />
<glyph unicode="&#x2039;" d="M434 676l625 491l76 -100l-504 -391l336 -393l-117 -103z" />
<glyph unicode="&#x203a;" d="M381 283l504 393l-336 391l117 100l415 -491l-624 -496z" />
<glyph unicode="&#x205f;" horiz-adv-x="433" />
<glyph unicode="&#x20ac;" d="M164 496l67 114h101q0 24 12 78q11 48 18 70h-143l68 114h110q40 109 99.5 198t141 160.5t191 111.5t236.5 40q117 0 206 -31.5t134 -74.5l-33 -150q-45 54 -126.5 88.5t-194.5 34.5q-95 0 -177.5 -29.5t-144.5 -82.5t-107.5 -119.5t-74.5 -145.5h674l-68 -114h-647 q-8 -24 -19 -70q-3 -15 -7.5 -42t-6.5 -36h590l-70 -114h-526q-9 -182 78 -282.5t266 -100.5q209 0 373 125l-33 -154q-58 -40 -160.5 -70t-224.5 -30q-231 0 -345.5 129t-101.5 383h-155z" />
<glyph unicode="&#x2122;" d="M315 1303l19 81h469l-19 -81h-192l-105 -496h-81l104 496h-195zM750 807l122 577h140l78 -407l260 407h135l-123 -577h-82l104 496h-4l-301 -496h-53l-86 496h-4l-105 -496h-81z" />
<glyph unicode="&#x25fc;" horiz-adv-x="1095" d="M0 0v1096h1096v-1096h-1096z" />
<glyph unicode="&#xfb01;" d="M184 0l228 1067h921l-26 -123h-150l-174 -821h150l-27 -123h-436l26 123h150l174 821h-498l-67 -319h311l-27 -123h-311l-106 -502h-138z" />
<glyph unicode="&#xfb02;" d="M156 0l227 1067h725l-201 -944h328l-27 -123h-465l201 944h-450l-68 -319h311l-26 -123h-312l-106 -502h-137z" />
</font>
</defs>
</svg>
