<?xml version="1.0" standalone="no"?>
<!DOCTYPE svg PUBLIC "-//W3C//DTD SVG 1.1//EN" "http://www.w3.org/Graphics/SVG/1.1/DTD/svg11.dtd" >
<svg xmlns="http://www.w3.org/2000/svg">
<metadata></metadata>
<defs>
<font id="datorregular" horiz-adv-x="1228" >
<font-face units-per-em="2048" ascent="1366" descent="-682" />
<missing-glyph horiz-adv-x="500" />
<glyph horiz-adv-x="2048" />
<glyph horiz-adv-x="2048" />
<glyph unicode="&#xd;" horiz-adv-x="2048" />
<glyph unicode=" " />
<glyph unicode="&#x22;" d="M360 1157v227h189v-227l-55 -276h-78zM682 1157v227h188v-227l-55 -276h-78z" />
<glyph unicode="#" d="M63 489l17 91h274l58 321h-275l17 90h274l119 658h90l-332 -1846h-92l125 686h-275zM582 -197l338 1846h90l-119 -658h276l-18 -90h-275l-57 -321h275l-17 -91h-274l-127 -686h-92z" />
<glyph unicode="$" d="M238 354l112 82q23 -34 37.5 -53t38.5 -44.5t51.5 -39.5t59.5 -18v370q-113 30 -185.5 104.5t-72.5 184.5q0 103 76 179.5t182 94.5v170h143v-170q159 -14 287 -178l-101 -88q-67 75 -106 103t-80 34v-335q134 -20 222.5 -99.5t88.5 -208.5q0 -124 -93.5 -206t-217.5 -84 v-170h-143v170q-90 4 -167.5 60.5t-131.5 141.5zM422 934q0 -50 32 -89t83 -57v297q-50 -12 -82.5 -56t-32.5 -95zM680 281q70 3 119 48.5t49 114.5q0 65 -50 110.5t-118 55.5v-329z" />
<glyph unicode="%" d="M168 47l676 1188q-39 -16 -92 -16q-56 0 -109 18q19 -55 19 -109q0 -108 -60 -183t-164 -75q-106 0 -165.5 74.5t-59.5 183.5q0 107 60 181.5t165 74.5q43 0 137 -28q107 -35 168 -35q151 0 244 61l74 -41l-770 -1359zM336 1128q0 -62 23.5 -108.5t78.5 -46.5 q54 0 77.5 47t23.5 108q0 36 -8 68.5t-32 59t-61 26.5q-38 0 -62.5 -26.5t-32 -58.5t-7.5 -69zM561 238q0 107 60 181.5t165 74.5q104 0 164 -74.5t60 -181.5t-60 -181.5t-164 -74.5q-105 0 -165 74.5t-60 181.5zM684 238q0 -62 23.5 -108t78.5 -46q54 0 77.5 46.5 t23.5 107.5t-23.5 107t-77.5 46q-55 0 -78.5 -46t-23.5 -107z" />
<glyph unicode="&#x26;" d="M238 293q0 65 29.5 121t67 90.5t97.5 77.5l-31 41q-52 71 -76 123.5t-24 125.5q0 124 72 201.5t194 77.5q118 0 194.5 -81t76.5 -198q0 -96 -50 -166t-174 -153l201 -272q48 73 59 200l136 -26q-20 -168 -109 -291l84 -117l-104 -76l-74 101q-118 -90 -246 -90 q-135 0 -229 88t-94 223zM381 295q0 -81 53 -132.5t135 -51.5q94 0 164 67l-225 305q-65 -44 -96 -84t-31 -104zM430 881q0 -51 25 -101t86 -127l43 31q30 21 48 36.5t38 38t29.5 49t9.5 58.5q0 70 -39 113t-109 43q-61 0 -96 -39.5t-35 -101.5z" />
<glyph unicode="'" d="M520 1157v227h189v-227l-56 -276h-78z" />
<glyph unicode="(" d="M426 625q0 215 80.5 422.5t234.5 336.5l82 -79q-131 -125 -192.5 -304t-61.5 -376q0 -198 61.5 -376.5t192.5 -303.5l-82 -82q-154 130 -234.5 338.5t-80.5 423.5z" />
<glyph unicode=")" d="M406 -55q131 125 192 303t61 377q0 198 -61 376.5t-192 303.5l81 79q154 -129 235 -336.5t81 -422.5t-81 -423.5t-235 -338.5z" />
<glyph unicode="*" d="M293 975v180l205 -20l-129 151l139 98l106 -192l107 192l139 -98l-129 -151l205 20v-180l-205 18l129 -149l-139 -101l-107 195l-106 -195l-139 101l129 149zM557 1065q0 -24 16.5 -40.5t40.5 -16.5t41 16.5t17 40.5q0 23 -17.5 40t-40.5 17t-40 -17t-17 -40z" />
<glyph unicode="+" d="M70 692v90h499v500h90v-500h500v-90h-500v-499h-90v499h-499z" />
<glyph unicode="," d="M457 -8q86 55 86 186v125h188v-92q0 -99 -64.5 -189.5t-162.5 -142.5z" />
<glyph unicode="-" d="M387 469v129h455v-129h-455z" />
<glyph unicode="." d="M520 0v303h189v-303h-189z" />
<glyph unicode="/" d="M264 -55l606 1585h95l-607 -1585h-94z" />
<glyph unicode="0" d="M232.5 530q-2.5 52 0.5 98v54v36q0 70 0.5 106.5t3.5 103t9.5 103.5t19.5 92.5t31.5 87t47.5 69.5t66.5 57.5t89 33t113.5 13.5q63 0 116 -16t90.5 -41.5t67 -65.5t48 -79t31.5 -92t19 -94t8.5 -95t2.5 -86t-1 -76.5t-1 -56.5q0 -186 -1 -210q-15 -326 -172 -433 q-84 -57 -208 -57q-71 0 -128 17.5t-95.5 48.5t-68.5 73.5t-45.5 91.5t-27 102.5t-13 108t-4 106.5zM377 682q0 -113 6 -200.5t16 -147.5t28 -102t35 -65.5t44.5 -36t50.5 -16t57 -3.5q52 0 86 10.5t65.5 44t49 96t27.5 166t10 254.5q0 130 -7 225.5t-23 158t-34.5 101 t-48 57.5t-57 25t-68.5 6q-58 0 -100.5 -17.5t-68 -62.5t-40.5 -79.5t-21 -112t-6.5 -114.5t-0.5 -130v-19v-18v-20z" />
<glyph unicode="1" d="M227 0v123h344v1077l-249 -96l-43 125l430 164v-1270h292v-123h-774z" />
<glyph unicode="2" d="M233 0v123l506 653q43 56 60.5 81t36 74t18.5 101q0 98 -60 160.5t-159 62.5q-115 0 -181.5 -77t-82.5 -197l-135 18q26 179 125.5 282t273.5 103q163 0 262.5 -93.5t99.5 -254.5q0 -90 -37 -168t-106 -166l-446 -579h587v-123h-762z" />
<glyph unicode="3" d="M227 1243v123h758v-123l-379 -387q167 3 281 -90.5t114 -257.5q0 -133 -65 -239t-182 -177q-91 -56 -206 -83t-302 -27v129q160 0 247.5 16t145.5 49q96 53 157.5 139.5t61.5 188.5q0 63 -25.5 109t-70.5 71t-97 37t-112 12q-24 0 -49.5 -2.5t-61 -7t-49.5 -6.5v110 l404 416h-570z" />
<glyph unicode="4" d="M225 342l203 1051l137 -37l-176 -891h371v694h137v-694h109v-123h-109v-342h-137v342h-535z" />
<glyph unicode="5" d="M238 -18v129q142 0 238.5 12.5t160.5 46.5q95 51 153 140t58 194q0 107 -66.5 170t-175.5 63q-58 0 -108.5 -17.5t-118.5 -53.5h-98v700h700v-123h-563v-420q117 43 203 43q156 0 263 -98.5t107 -263.5q0 -131 -64 -239.5t-177 -180.5q-82 -53 -200 -77.5t-312 -24.5z " />
<glyph unicode="6" d="M231 668q0 69 3 128t13 135t27 136.5t48 122t73 102.5t104.5 66.5t139.5 25.5q176 0 303 -118l-78 -113q-56 48 -107.5 75t-111.5 27q-51 0 -92.5 -19t-68.5 -47t-47.5 -73.5t-31 -84.5t-17.5 -95.5t-9 -91.5t-4 -86q129 110 272 110q93 0 163 -36t110 -99t59.5 -139 t19.5 -164q0 -125 -42.5 -224.5t-133.5 -161.5t-217 -62q-73 0 -131.5 25t-97 64.5t-66.5 99.5t-43 117t-24 131t-11 128t-2 121zM375 606q1 -124 14.5 -215.5t35 -144t54 -84t64.5 -41.5t73 -10q119 0 179.5 89t60.5 224q0 63 -10.5 115.5t-35 99.5t-71.5 73.5t-112 26.5 q-66 0 -126.5 -36t-125.5 -97z" />
<glyph unicode="7" d="M295 1243v123h762l-621 -1393l-123 56l545 1214h-563z" />
<glyph unicode="8" d="M223 348q0 69 20 124.5t60 98t85 73.5t110 63q-109 68 -169.5 144t-60.5 185q0 150 98 249t248 99t248.5 -99t98.5 -249q0 -57 -17.5 -106t-50.5 -89t-70.5 -71t-89.5 -63q64 -32 108.5 -63t84.5 -73.5t60 -98t20 -124.5q0 -164 -112.5 -265t-279.5 -101t-279 101 t-112 265zM367 342q0 -104 71 -167.5t176 -63.5t176.5 64t71.5 167q0 30 -6.5 56.5t-14.5 46.5t-26 41.5t-31 34.5t-39.5 32t-40 28t-45.5 28.5t-45 27.5q-12 -8 -44.5 -27.5t-46 -28t-40 -28t-39 -32.5t-30.5 -34.5t-26 -41.5t-14.5 -46.5t-6.5 -56.5zM412 1036 q0 -25 5.5 -48t11.5 -40t21.5 -36.5t24 -30t32.5 -28.5t32.5 -24.5t38 -26t36.5 -24.5q8 6 36.5 24.5t38 25.5t33 25t32.5 28.5t24.5 30t21.5 36.5t11.5 40t5.5 48q0 95 -54.5 157t-148.5 62t-148 -62t-54 -157z" />
<glyph unicode="9" d="M231 936q0 92 25 172.5t72.5 142.5t123.5 97.5t171 35.5q73 0 132 -25.5t97.5 -64.5t66.5 -99.5t42.5 -116.5t23 -131t10.5 -128t2 -121q0 -69 -3 -128t-13 -135t-26.5 -136.5t-47.5 -122t-73 -102.5t-104.5 -66.5t-139.5 -25.5q-84 0 -163 30.5t-140 87.5l78 113 q113 -102 221 -102q45 0 82.5 13t63.5 39.5t46 56t33 73t21 77.5t12.5 84t6.5 79.5t3 74.5q-126 -110 -270 -110q-75 0 -135.5 24t-100.5 64.5t-67 97.5t-38.5 119.5t-11.5 132.5zM375 940q0 -313 229 -313q109 0 250 131q0 122 -13 212.5t-34 144t-53 86t-65 43.5t-75 11 q-119 0 -179 -89.5t-60 -225.5z" />
<glyph unicode=":" d="M520 0v303h189v-303h-189zM520 582v303h189v-303h-189z" />
<glyph unicode=";" d="M457 -8q86 55 86 186v125h188v-92q0 -99 -64.5 -189.5t-162.5 -142.5zM543 582v303h188v-303h-188z" />
<glyph unicode="&#x3c;" d="M201 737l776 738l51 -66l-696 -672l696 -671l-51 -66z" />
<glyph unicode="=" d="M70 555v90h1089v-90h-1089zM70 829v91h1089v-91h-1089z" />
<glyph unicode="&#x3e;" d="M201 66l696 671l-696 672l51 66l776 -738l-776 -737z" />
<glyph unicode="?" d="M242 1008q35 178 127.5 277t263.5 99q160 0 257 -93.5t97 -252.5q0 -75 -29.5 -141t-69 -110t-104.5 -99q-40 -35 -53.5 -48t-29.5 -38.5t-19.5 -51.5t-3.5 -71v-28h-141v34q0 112 21 158.5t108 120.5q86 74 113 106q65 76 65 164q0 98 -55 159.5t-152 61.5 q-48 0 -87.5 -16t-67.5 -42.5t-49.5 -63.5t-34.5 -76t-21 -84zM512 0v303h188v-303h-188z" />
<glyph unicode="@" d="M39 569q0 114 24 228t75.5 220t124 187.5t177 130.5t226.5 49q68 0 138 -19.5t140 -64.5t124 -109t88 -161.5t34 -214.5q0 -59 -10 -120.5t-34 -124t-59 -111.5t-89 -80t-119 -31q-59 0 -91 17.5t-79 66.5q-53 -46 -91.5 -65t-97.5 -19q-82 0 -134 51t-52 133 q0 80 30.5 172t79.5 154q33 43 75.5 68.5t132.5 41.5t225 11l-52 -309q-14 -95 -14 -111q0 -36 17.5 -59t52.5 -23q46 0 80.5 36t52 91.5t25.5 106.5t8 94q0 202 -108.5 326t-285.5 124q-91 0 -175 -46.5t-150.5 -132t-106 -218.5t-39.5 -293q0 -211 109 -332.5t293 -121.5 q117 0 221.5 40.5t222.5 116.5l49 -129q-240 -157 -504 -157q-79 0 -154 21t-144.5 67.5t-121.5 113.5t-83 166.5t-31 218.5zM477 543q0 -27 13 -46.5t40 -19.5q118 0 179 320l10 53q-5 -1 -30.5 -5.5t-35 -7t-29 -9t-32 -15.5t-23.5 -22q-38 -45 -65 -117t-27 -131z" />
<glyph unicode="A" d="M186 10l346 1356h164l346 -1356l-135 -37l-106 449h-373l-106 -449zM461 545h307l-152 639h-4z" />
<glyph unicode="B" d="M250 0v123h110v1120h-110v123h418q120 0 211.5 -94t91.5 -250q0 -184 -146 -264q112 -49 160.5 -134.5t48.5 -213.5q0 -203 -96.5 -306.5t-247.5 -103.5h-440zM498 123h186q96 0 151.5 72.5t55.5 216.5q0 270 -244 270h-149v-559zM498 805h123q206 0 206 217 q0 122 -60 171.5t-189 49.5h-80v-438z" />
<glyph unicode="C" d="M233 682q0 65 4 125t15.5 132.5t30 133.5t50 120t73.5 100t102.5 66t134.5 25q213 0 334 -221l-117 -69q-80 161 -217 161q-266 0 -266 -573q0 -571 266 -571q73 0 135.5 49.5t106.5 122.5l112 -78q-64 -103 -153 -163t-201 -60q-74 0 -134.5 25t-102.5 66t-73.5 100 t-50 120t-30 133t-15.5 132t-4 124z" />
<glyph unicode="D" d="M244 0v123h110v1120h-110v123h360q87 0 151 -17t120 -62t91 -121t54.5 -197t19.5 -287q0 -60 -1 -103t-5.5 -104t-13 -104.5t-24 -96t-37 -89.5t-54.5 -74.5t-74.5 -60t-98 -36.5t-124.5 -14h-364zM492 123h112q40 0 69 4t61.5 17t55 36.5t44 65t34.5 100t21 143.5t8 193 t-8.5 194.5t-21.5 144.5t-34.5 100t-42 65t-49 36.5t-51.5 17t-53 3.5h-145v-1120z" />
<glyph unicode="E" d="M322 0v1366h665v-123h-528v-450h436v-123h-436v-547h528v-123h-665z" />
<glyph unicode="F" d="M360 0v1366h672v-123h-534v-450h448v-123h-448v-670h-138z" />
<glyph unicode="G" d="M244 680q0 60 4 120t15.5 131.5t30 133.5t50 122t71.5 102.5t99 68.5t129 26q209 0 342 -219l-121 -73q-91 163 -229 163q-47 0 -85 -24t-63.5 -62t-44.5 -91.5t-29 -105t-16.5 -111.5t-8 -101.5t-1.5 -83.5q0 -136 15.5 -238.5t41 -163.5t62 -98.5t73 -51t80.5 -13.5 t94.5 17t84.5 46v412h-256v123h393v-609q-67 -55 -150 -86.5t-168 -31.5q-73 0 -133.5 25t-102.5 65.5t-74 99t-51.5 119.5t-31.5 132t-16 132t-4 125z" />
<glyph unicode="H" d="M266 0v1366h137v-573h422v573h138v-1366h-138v670h-422v-670h-137z" />
<glyph unicode="I" d="M360 0v123h185v1120h-185v123h508v-123h-186v-1120h186v-123h-508z" />
<glyph unicode="J" d="M223 369v127h137v-138q0 -44 10.5 -85t32.5 -79t63 -60.5t97 -22.5q91 0 144 73.5t53 192.5v989h137v-1004q0 -94 -28.5 -168.5t-77.5 -119.5t-109.5 -68.5t-128.5 -23.5q-65 0 -123 23.5t-105 69t-74.5 121.5t-27.5 173z" />
<glyph unicode="K" d="M332 0v1366h137v-563h37l381 590l110 -70l-374 -578l448 -702l-115 -70l-440 707h-47v-680h-137z" />
<glyph unicode="L" d="M346 0v1366h137v-1243h561v-123h-698z" />
<glyph unicode="M" d="M207 0l41 1366h170l196 -580l197 580h172l41 -1366h-145l-27 1139h-4l-234 -686l-233 686h-4l-27 -1139h-143z" />
<glyph unicode="N" d="M258 0v1366h172l406 -1149l4 4l-6 305v840h137v-1366h-172l-406 1151l-4 -4l6 -309v-838h-137z" />
<glyph unicode="O" d="M236 670v14q0 62 1.5 110.5t9.5 125.5t22.5 135t42.5 123t66.5 107.5t99.5 70.5t136 28q78 0 140 -30t101 -73t67 -112t41.5 -124.5t20.5 -135t8 -118.5t1 -99v-8q0 -239 -35 -378q-81 -324 -344 -324q-61 0 -112.5 18.5t-88 46t-66 73t-47.5 86.5t-31 100.5t-19.5 100.5 t-9.5 101t-3.5 87.5t-0.5 74.5zM378 684q0 -117 6.5 -202t22 -158.5t41.5 -118t67.5 -69.5t98.5 -25q38 0 70 12.5t55 31t41 52t29.5 62t19.5 76t12 80t6 87t2.5 83.5t0.5 83v6v18q0 74 -0.5 112.5t-5 107t-13 106.5t-25.5 88t-41.5 75.5t-63 44.5t-87.5 19q-57 0 -99 -25 t-66.5 -76t-40 -98t-21.5 -123.5t-7 -118t-2 -113.5v-17z" />
<glyph unicode="P" d="M332 0v1366h297q182 0 279.5 -93.5t97.5 -268.5q0 -185 -93 -290.5t-239 -105.5h-205v-608h-137zM469 731l193 2q96 2 148 72t52 199q0 239 -235 239h-158v-512z" />
<glyph unicode="Q" d="M236 682q0 344 105 523t273 179q59 0 112.5 -23t103 -76t85 -132.5t57 -200t21.5 -270.5q0 -334 -102 -516l100 -119l-104 -86l-80 96q-85 -75 -193 -75q-59 0 -112.5 23t-102.5 76.5t-85 132.5t-57 199t-21 269zM379 672q0 -46 2.5 -93t9.5 -116t23 -127t39.5 -111 t62.5 -83.5t88 -30.5q74 0 119 45l-174 206l104 89l144 -170q53 162 53 397q0 36 -1 70t-4.5 85.5t-10.5 96t-18.5 95t-29.5 89.5t-41.5 72t-57.5 51t-75 18q-40 0 -73.5 -18t-57 -51.5t-41.5 -73t-28.5 -91t-17.5 -96t-10 -97.5t-4 -86t-1 -70z" />
<glyph unicode="R" d="M332 0v1366h368q53 0 105.5 -22.5t98 -65.5t74 -114.5t28.5 -159.5q0 -136 -58.5 -240.5t-177.5 -145.5l283 -585l-123 -60l-307 635h-154v-608h-137zM469 731h201q91 0 141.5 69t50.5 204q0 128 -57.5 183.5t-167.5 55.5h-168v-512z" />
<glyph unicode="S" d="M268 358l138 19q8 -65 19 -107t33.5 -81.5t63.5 -58.5t101 -19q93 0 147.5 62t54.5 181q0 63 -16 109.5t-59 87t-71 59.5t-99 60q-9 5 -13 8q-59 34 -89.5 54t-69.5 53t-57.5 65t-32 79.5t-13.5 106.5q0 143 88 245.5t230 102.5q136 0 214 -84t107 -225l-133 -20 q-46 200 -188 200q-91 0 -136 -62.5t-45 -156.5q0 -45 6.5 -71.5t32.5 -58.5t70.5 -62.5t128.5 -81.5q58 -35 94.5 -60t76.5 -61t61.5 -73t36.5 -88t14 -113q0 -169 -90 -277t-255 -108q-88 0 -153.5 27.5t-105.5 79.5t-61.5 118t-29.5 151z" />
<glyph unicode="T" d="M254 1243v123h721v-123h-289v-1243h-137v1243h-295z" />
<glyph unicode="U" d="M281 326v1040h137v-993q0 -45 4 -79.5t16.5 -70.5t33 -59t57 -38t85.5 -15t85.5 15t58 38.5t34.5 59t17 70.5t4 79v993h137v-1034q0 -159 -91.5 -254.5t-244.5 -95.5t-243 95t-90 249z" />
<glyph unicode="V" d="M193 1364l139 29l280 -1022h4l281 1022l139 -29l-405 -1391h-33z" />
<glyph unicode="W" d="M188 1366l138 27l65 -1026h4l199 718h41l199 -718h4l65 1026l137 -27l-137 -1393h-59l-228 826h-4l-227 -826h-59z" />
<glyph unicode="X" d="M190 31l357 712l-293 586l127 64l233 -510l234 510l127 -64l-293 -586l356 -712l-123 -58l-299 625l-303 -625z" />
<glyph unicode="Y" d="M193 1341l126 52l295 -695l295 695l127 -52l-354 -802v-539h-137v539z" />
<glyph unicode="Z" d="M213 0l580 1243h-521v123h727l-577 -1243h594v-123h-803z" />
<glyph unicode="[" d="M365 -78v1462h553v-122h-416v-1217h416v-123h-553z" />
<glyph unicode="\" d="M264 1530h94l607 -1585h-95z" />
<glyph unicode="]" d="M311 45h416v1217h-416v122h553v-1462h-553v123z" />
<glyph unicode="^" d="M225 731l336 662h107l329 -662h-102l-281 563l-286 -563h-103z" />
<glyph unicode="_" d="M0 -147h1229v-74h-1229v74z" />
<glyph unicode="`" d="M410 1294l73 129l363 -206l-53 -91z" />
<glyph unicode="a" d="M190 23l336 1044h176l336 -1044l-135 -50l-98 318h-379l-100 -318zM463 414h303l-152 493z" />
<glyph unicode="b" d="M250 0v123h110v821h-110v123h336q387 0 387 -285q0 -71 -30.5 -128.5t-90.5 -90.5q86 -27 134 -96.5t48 -161.5q0 -145 -91.5 -225t-258.5 -80h-434zM498 123h159q50 0 88.5 7t73.5 24.5t53.5 53t18.5 87.5q0 83 -53 137.5t-148 54.5h-192v-364zM498 610h153q86 0 132 48 t46 124q0 162 -186 162h-145v-334z" />
<glyph unicode="c" d="M233 532q0 123 25 220.5t65 158.5t93.5 101.5t106.5 56.5t108 16q119 0 198 -57t140 -170l-125 -63q-84 161 -211 161q-61 0 -108 -28.5t-74.5 -72t-44.5 -102t-23 -111t-6 -107.5q0 -56 5.5 -108.5t22.5 -112t44 -102.5t74.5 -72t109.5 -29q86 0 141 43.5t111 128.5 l112 -78q-70 -109 -153 -166t-201 -57q-90 0 -161.5 32t-117.5 85t-76 125.5t-42.5 148.5t-12.5 159z" />
<glyph unicode="d" d="M244 0v123h110v821h-110v123h356q156 0 250 -47.5t142 -162t48 -310.5q0 -110 -9 -186.5t-36 -149t-74.5 -116t-127.5 -69.5t-193 -26h-356zM492 123h145q138 0 199 91.5t61 317.5q0 121 -17 202.5t-52 127t-81.5 64t-113.5 18.5h-141v-821z" />
<glyph unicode="e" d="M322 0v1067h665v-123h-528v-319h436v-123h-436v-379h528v-123h-665z" />
<glyph unicode="f" d="M360 0v1067h672v-123h-534v-319h448v-123h-448v-502h-138z" />
<glyph unicode="g" d="M244 535q0 82 12 157t41 148t73.5 126t114.5 86t158 33q105 0 195 -55.5t147 -148.5l-117 -76q-90 151 -233 151q-51 0 -91.5 -20t-66.5 -55t-44.5 -77t-28 -92t-13.5 -93.5t-4 -88.5q0 -56 5.5 -108t22 -111t43 -101t73 -70.5t108.5 -28.5q111 0 199 55v280h-256v123 h393v-471q-66 -52 -156 -84t-172 -32q-91 0 -162 33t-115.5 86t-73.5 126.5t-40.5 149t-11.5 158.5z" />
<glyph unicode="h" d="M266 0v1067h137v-442h422v442h138v-1067h-138v502h-422v-502h-137z" />
<glyph unicode="i" d="M395 0v123h150v821h-150v123h439v-123h-152v-821h152v-123h-439z" />
<glyph unicode="j" d="M223 397h137q-1 -18 -1 -35q0 -128 41 -186q46 -65 153 -65q102 0 154.5 57t52.5 156v743h137v-770q0 -59 -21 -113.5t-61.5 -100.5t-108 -73.5t-153.5 -27.5q-171 0 -250.5 100.5t-79.5 314.5z" />
<glyph unicode="k" d="M332 0v1067h137v-455h51l367 482l104 -82l-354 -449l416 -502l-105 -88l-432 527h-47v-500h-137z" />
<glyph unicode="l" d="M348 0v1067h137v-944h559v-123h-696z" />
<glyph unicode="m" d="M199 0l43 1067h180l192 -463l193 463h180l43 -1067h-145l-27 864h-4l-240 -563l-239 563h-4l-27 -864h-145z" />
<glyph unicode="n" d="M258 0v1067h170l414 -899l4 4l-12 277v618h137v-1067h-170l-414 899l-4 -4l12 -279v-616h-137z" />
<glyph unicode="o" d="M236 532q0 123 22.5 220.5t59.5 158.5t87.5 101.5t101.5 56.5t107 16q54 0 105 -15.5t101.5 -55.5t88 -101t61 -159t23.5 -222q0 -30 -1 -58.5t-9 -87.5t-21.5 -107.5t-42 -106t-67 -97t-100.5 -66.5t-138 -27q-55 0 -105.5 15.5t-101.5 55.5t-88 100t-60 157.5 t-23 221.5zM379 532q0 -45 3 -86t11.5 -92t25.5 -92t42 -76t64 -55t89 -20t89.5 20t64 55t42 76t25.5 92t11.5 92.5t3.5 85.5q0 55 -4.5 105.5t-19.5 111.5t-39.5 104.5t-69 73t-103.5 29.5t-103.5 -29.5t-69 -73t-39 -104.5t-19 -111.5t-4.5 -105.5z" />
<glyph unicode="p" d="M332 0v1067h332q175 0 259.5 -81.5t84.5 -209.5q0 -81 -27 -144t-72 -99.5t-98.5 -55t-112.5 -18.5h-229v-459h-137zM469 582h188q207 0 207 184q0 52 -16 88.5t-46 55.5t-64.5 26.5t-80.5 7.5h-188v-362z" />
<glyph unicode="q" d="M236 532q0 119 21 214t56.5 157.5t84.5 104t102.5 59.5t113.5 18q54 0 105 -15.5t101.5 -55.5t88 -101t61 -159t23.5 -222q0 -256 -90 -389l121 -110l-86 -92l-119 108q-88 -67 -205 -67q-54 0 -104.5 15.5t-101.5 55.5t-88 100t-60.5 158t-23.5 221zM379 532 q0 -45 3 -86t11.5 -92t25.5 -92t42 -76t64 -55t89 -20q56 0 107 28l-178 162l84 94l172 -157q51 120 51 294q0 55 -4.5 105.5t-19.5 111.5t-39.5 104.5t-69 73t-103.5 29.5t-103.5 -29.5t-69 -73t-39 -104.5t-19 -111.5t-4.5 -105.5z" />
<glyph unicode="r" d="M305 0v1067h363q143 0 231 -71.5t88 -219.5q0 -100 -61 -185t-156 -114l262 -432l-119 -72l-272 484h-199v-457h-137zM442 580h181q100 0 160.5 53t60.5 143q0 76 -45.5 122t-134.5 46h-222v-364z" />
<glyph unicode="s" d="M268 299l123 39q47 -227 234 -227q88 0 144 47t56 133q0 19 -3.5 36.5t-8.5 31t-15.5 27t-18 22.5t-23.5 19.5t-25 16.5t-29.5 15.5t-29 13t-31.5 13t-31 12.5q-14 6 -46 19t-46 19t-41.5 19t-41 22t-35 24t-32 28.5t-25 33t-20.5 40t-11 46.5t-5 56q0 130 91 205t223 75 q130 0 211 -70t114 -198l-131 -39q-43 178 -197 178q-72 0 -123 -36.5t-51 -104.5q0 -36 9.5 -62t33 -45.5t43 -30t58.5 -28.5l227 -100q148 -82 148 -250q0 -149 -93.5 -233t-244.5 -84q-146 0 -239 85.5t-118 231.5z" />
<glyph unicode="t" d="M254 944v123h721v-123h-289v-944h-137v944h-295z" />
<glyph unicode="u" d="M281 283v784h137v-727q0 -121 41.5 -175t144.5 -54q123 0 166 53t43 176v727h137v-793q0 -55 -20 -105.5t-59 -93t-105.5 -68t-151.5 -25.5q-163 0 -248 87t-85 214z" />
<glyph unicode="v" d="M193 1044l131 50l290 -783l291 783l131 -50l-409 -1071h-25z" />
<glyph unicode="w" d="M190 1077l142 17l82 -750h4l178 524h37l178 -524h4l84 750l139 -17l-153 -1104h-47l-224 658l-223 -658h-47z" />
<glyph unicode="x" d="M207 43l330 522l-301 457l124 72l254 -406l254 406l125 -72l-301 -457l330 -522l-123 -70l-285 471l-284 -471z" />
<glyph unicode="y" d="M201 1026l129 68l284 -549l285 549l129 -68l-346 -614v-412h-137v412z" />
<glyph unicode="z" d="M213 0l559 944h-500v123h727l-555 -944h572v-123h-803z" />
<glyph unicode="{" d="M309 623q26 9 58 18t49.5 13.5t38.5 13.5t31.5 19.5t20.5 29t13.5 45.5t3.5 65v273q0 155 68.5 219.5t236.5 64.5h115v-51h-49q-75 0 -120.5 -10.5t-70.5 -37.5t-33.5 -62.5t-8.5 -94.5v-286q0 -34 -1 -54t-6 -47.5t-14.5 -45.5t-28 -37.5t-45.5 -34.5q62 -33 78.5 -81.5 t16.5 -133.5v-287q0 -117 48 -162t187 -45h47v-51h-67q-107 0 -175 15t-108 51t-55 87.5t-15 133.5v270q0 40 -3.5 67.5t-13.5 46t-20 29.5t-31 19t-38.5 12.5t-50 12.5t-58.5 16z" />
<glyph unicode="|" d="M569 -590v2212h90v-2212h-90z" />
<glyph unicode="}" d="M285 -86h49q75 0 120.5 10.5t70.5 37.5t33.5 62.5t8.5 94.5v287q0 34 1 54t6 47.5t14.5 45.5t28 37.5t45.5 34.5q-62 33 -78.5 81.5t-16.5 133.5v286q0 117 -48 162t-187 45h-47v51h67q142 0 218 -29t105.5 -88.5t29.5 -168.5v-271q0 -40 3.5 -67.5t13.5 -46t20 -29 t31 -19t38.5 -12.5t50 -12t58.5 -16q-25 -9 -57.5 -18t-50 -13.5t-38.5 -13.5t-31.5 -20t-20.5 -29.5t-13.5 -45.5t-3.5 -65v-273q0 -155 -69 -219.5t-237 -64.5h-114v51z" />
<glyph unicode="~" d="M61 618q27 48 53.5 86t64 78t83.5 62t96 22q57 0 133 -24t137 -52.5t126.5 -52.5t103.5 -24q74 0 141 57.5t103 132.5l65 -47q-51 -95 -132.5 -164t-174.5 -69q-51 0 -151.5 38.5t-198 76.5t-141.5 38q-35 0 -66 -12t-52.5 -28t-45.5 -45.5t-37 -49.5t-34 -55l-9 -15z " />
<glyph unicode="&#xa0;" />
<glyph unicode="&#xa1;" d="M500 0l37 942h131l41 -942h-209zM510 1063v303h188v-303h-188z" />
<glyph unicode="&#xa2;" d="M233 688q0 92 16 175.5t51 162.5t101.5 134.5t157.5 74.5v149h137v-147q86 -10 157.5 -72.5t115.5 -148.5l-125 -66q-62 119 -148 152v-830q102 24 189 166l112 -78q-127 -201 -301 -221v-157h-137v161q-74 15 -131.5 55t-93.5 93.5t-59.5 121.5t-32.5 135t-9 140z M377 690q0 -345 182 -411v821q-182 -69 -182 -410z" />
<glyph unicode="&#xa3;" d="M164 705v122h182q-47 151 -47 228q0 141 105.5 235t248.5 94q123 0 219.5 -62.5t141.5 -174.5l-125 -45q-77 160 -227 160q-99 0 -159.5 -60.5t-60.5 -161.5q0 -13 0.5 -24.5t2 -25t2.5 -22t4.5 -23.5t5 -21.5t6 -24t6 -22t7.5 -25.5t7 -25h377v-122h-340q5 -20 16 -60.5 t17.5 -66t12 -61t5.5 -64.5q0 -49 -14.5 -98.5t-29 -79.5t-47.5 -87q-6 -10 -9 -16q69 16 135 16q64 0 142 -38q10 -5 27.5 -14t28 -14t23.5 -9t23 -4t20.5 2t18 4t18 8.5t15.5 9t16.5 12t14 11.5t15 13.5t13.5 12.5l82 -90q-56 -54 -103 -82t-108 -28q-55 0 -133 38 q-89 39 -146 39q-42 0 -85.5 -12.5t-69 -25t-76.5 -39.5l-74 96q93 154 126.5 229.5t33.5 134.5q0 84 -47 263h-217z" />
<glyph unicode="&#xa4;" d="M23 219l223 219q-103 139 -103 299t103 299l-223 219l67 66l221 -219q130 106 303 106q174 0 304 -106l221 219l67 -66l-223 -219q102 -138 102 -299t-102 -299l223 -219l-67 -65l-221 219q-131 -107 -304 -107q-172 0 -303 107l-221 -219zM223 737q0 -166 112.5 -278.5 t278.5 -112.5t279 112.5t113 278.5t-113 279.5t-279 113.5t-278.5 -113.5t-112.5 -279.5z" />
<glyph unicode="&#xa5;" d="M193 1341l126 52l295 -695l295 695l127 -52l-303 -671h250v-123h-301v-547h-137v547h-299v123h250z" />
<glyph unicode="&#xa6;" d="M569 147h90v-737h-90v737zM569 885v737h90v-737h-90z" />
<glyph unicode="&#xa7;" d="M274 250l138 47q26 -87 84.5 -140t146.5 -53q70 0 119 38.5t49 105.5q0 18 -4 33.5t-9 27t-17 24t-18.5 19.5t-25 18t-24.5 14.5t-28.5 15t-27.5 14.5l-98 51q-5 3 -39.5 20.5t-42 22t-36.5 21t-38 25t-30 26.5t-28.5 32.5t-19 35t-15 43t-3.5 48.5q0 58 29 112.5 t76 86.5q-86 73 -86 186q0 116 91.5 188t211.5 72q100 0 184 -58.5t123 -151.5l-121 -54q-62 142 -190 142q-67 0 -111.5 -38.5t-44.5 -103.5q0 -22 8.5 -41t18 -31.5t31 -27t32 -20.5t38.5 -19t34 -16l90 -45q29 -15 37 -19t35 -18.5t37 -21.5t31.5 -22.5t30.5 -26.5 t23.5 -28.5t20.5 -34t11 -37.5t5 -44q0 -125 -110 -207q112 -84 112 -201q0 -126 -96.5 -202t-226.5 -76q-128 0 -225.5 73t-131.5 195zM451 743q0 -36 18 -62t63 -50l209 -111q31 23 49.5 59t18.5 74q0 28 -13.5 52t-35 41t-45 31t-47.5 26q-3 1 -5 2l-4 2l-145 74 q-63 -60 -63 -138z" />
<glyph unicode="&#xa8;" d="M328 1264q0 50 25.5 89.5t72.5 39.5t72.5 -40t25.5 -89t-25.5 -89t-72.5 -40t-72.5 40t-25.5 89zM705 1264q0 50 25.5 89.5t72.5 39.5t72.5 -40t25.5 -89t-25.5 -89t-72.5 -40t-72.5 40t-25.5 89z" />
<glyph unicode="&#xa9;" d="M6 684q0 191 81.5 352.5t222 254.5t306.5 93q125 0 237.5 -55t193.5 -148.5t128.5 -223.5t47.5 -273t-47.5 -273t-128.5 -224t-193.5 -149.5t-237.5 -55.5q-166 0 -306.5 93.5t-222 255.5t-81.5 353zM109 684q0 -161 70 -299.5t187 -219.5t250 -81q84 0 172 43t162.5 118 t122 191t47.5 248q0 155 -68 293t-185 221.5t-251 83.5q-93 0 -183 -41.5t-162.5 -115.5t-117 -189.5t-44.5 -251.5zM305 690q0 176 91.5 290t242.5 114q110 0 187 -71t94 -194h-103q-12 81 -57.5 121.5t-118.5 40.5q-116 0 -174.5 -81.5t-58.5 -217.5q0 -132 61.5 -219.5 t173.5 -87.5q74 0 119.5 43.5t54.5 128.5h103q-12 -121 -91 -197.5t-186 -76.5q-149 0 -243.5 117t-94.5 290z" />
<glyph unicode="&#xaa;" d="M287 483v113h655v-113h-655zM315 733l228 633h143l227 -633l-129 -41l-65 185h-209l-66 -185zM547 989h135l-68 199z" />
<glyph unicode="&#xab;" d="M80 676l520 491l96 -100l-420 -391l420 -393l-96 -103zM539 676l520 491l96 -100l-420 -391l420 -393l-96 -103z" />
<glyph unicode="&#xac;" d="M70 829v91h1089v-566h-90v475h-999z" />
<glyph unicode="&#xad;" d="M387 469v129h455v-129h-455z" />
<glyph unicode="&#xae;" d="M0 680q0 142 48.5 271t131 222t196.5 148t240 55q125 0 238.5 -55t195.5 -148t130.5 -222t48.5 -271q0 -143 -48.5 -272t-130.5 -222.5t-195.5 -148.5t-238.5 -55q-126 0 -240 55t-196.5 148.5t-131 222.5t-48.5 272zM102 680q0 -159 69.5 -296.5t188 -218.5t256.5 -81 q97 0 189.5 45t163.5 122t114 189.5t43 239.5t-46 240.5t-119 189.5t-164 120t-181 44q-93 0 -185 -44t-165 -120t-118.5 -189.5t-45.5 -240.5zM389 289v780h297q121 0 181.5 -50.5t60.5 -156.5q0 -108 -57.5 -159t-155.5 -54l207 -360h-121l-195 360h-114v-360h-103z M492 752h186q70 0 108.5 25t38.5 89q0 27 -8.5 46.5t-21.5 30t-35 16t-42 7t-50 1.5h-176v-215z" />
<glyph unicode="&#xaf;" d="M322 1200v123h587v-123h-587z" />
<glyph unicode="&#xb0;" d="M219 1124q0 164 115.5 280t279.5 116t280 -116t116 -280q0 -163 -116 -279t-280 -116t-279.5 116t-115.5 279zM305 1124q0 -128 90.5 -218.5t218.5 -90.5t219 91t91 218q0 128 -91 219t-219 91q-127 0 -218 -91t-91 -219z" />
<glyph unicode="&#xb1;" d="M70 96v90h1089v-90h-1089zM70 788v91h499v499h90v-499h500v-91h-500v-499h-90v499h-499z" />
<glyph unicode="&#xb2;" d="M385 1163q12 104 74 162.5t166 58.5q92 0 155.5 -48.5t63.5 -137.5q0 -51 -23 -92t-69 -92l-205 -232h295v-102h-455v86l270 311q4 5 15 17.5t15.5 18.5t12.5 17t11.5 19.5t6.5 20.5t3 24q0 41 -26.5 64.5t-67.5 23.5q-111 0 -125 -133z" />
<glyph unicode="&#xb3;" d="M383 1282v102h453v-86l-177 -161q78 -8 133.5 -57.5t55.5 -125.5q0 -30 -9.5 -63.5t-40 -75.5t-78 -73t-133 -50t-194.5 -12v102q332 -3 332 170q0 51 -43 73t-100 22q-29 0 -109 -13v80l189 168h-279z" />
<glyph unicode="&#xb4;" d="M410 1217l362 206l74 -129l-383 -168z" />
<glyph unicode="&#xb5;" d="M270 -432v1499h138v-705q0 -72 23 -125.5t57.5 -78.5t64.5 -36t55 -11q56 0 99 28t67.5 72.5t36.5 94t12 100.5v661h138v-1067h-138v90q-36 -50 -90 -79t-115 -29q-133 0 -210 100v-514h-138z" />
<glyph unicode="&#xb6;" d="M117 985q0 33 3 62t14.5 71t31.5 76.5t57 71t87.5 61.5t127 41t170.5 16h504v-122h-94v-1399h-137v1399h-174v-1399h-138v729q-91 -7 -173.5 18.5t-144 76t-98 128t-36.5 170.5z" />
<glyph unicode="&#xb7;" d="M512 737q0 43 29.5 73t72.5 30t73 -30t30 -73t-30 -72.5t-73 -29.5t-72.5 29.5t-29.5 72.5z" />
<glyph unicode="&#xb8;" d="M436 -330l41 105q84 -41 152 -41q63 0 63 41q0 19 -13 32t-37.5 19t-43.5 8.5t-47 4t-33 1.5l68 187h123l-37 -113q70 -3 117 -40t47 -105q0 -69 -59.5 -113.5t-131.5 -44.5q-81 0 -209 59z" />
<glyph unicode="&#xb9;" d="M412 1296l286 97v-611h119v-102h-393v102h151v465l-126 -43z" />
<glyph unicode="&#xba;" d="M287 483v113h655v-113h-655zM350 1047q0 67 14.5 125t44.5 106.5t82.5 77t122.5 28.5t123 -28.5t83.5 -77t45.5 -107t15 -124.5t-15 -124t-45.5 -106.5t-83.5 -77t-123 -28.5t-122.5 28.5t-82.5 77t-44.5 106.5t-14.5 124zM487 1047q0 -224 127 -224q40 0 67.5 22t40 59 t17 70.5t4.5 72.5q0 225 -129 225q-127 0 -127 -225z" />
<glyph unicode="&#xbb;" d="M74 283l420 393l-420 391l96 100l520 -491l-520 -496zM532 283l420 393l-420 391l97 100l520 -491l-520 -496z" />
<glyph unicode="&#xbc;" d="M74 1296l286 97v-611h119v-102h-393v102h152v465l-127 -43zM170 27l772 1366l109 -60l-772 -1360zM682 160l119 547l117 -21l-95 -424h152v332h123v-332h57v-102h-57v-160h-123v160h-293z" />
<glyph unicode="&#xbd;" d="M88 1296l287 97v-611h119v-102h-394v102h152v465l-127 -43zM178 27l772 1366l109 -60l-772 -1360zM682 483q12 104 74 163t166 59q92 0 155.5 -49t63.5 -138q0 -51 -23 -92t-69 -92l-205 -232h295v-102h-455v86l270 311q4 5 15 17.5t15.5 18.5t12.5 17t11.5 19.5 t6.5 20.5t3 24q0 41 -26.5 64.5t-67.5 23.5q-111 0 -125 -133z" />
<glyph unicode="&#xbe;" d="M74 1282v102h452v-86l-176 -161q78 -8 133.5 -57.5t55.5 -125.5q0 -30 -9.5 -63.5t-40 -75t-78 -72.5t-133 -49.5t-194.5 -11.5v102q332 -3 332 168q0 51 -43.5 73t-100.5 22q-28 0 -108 -13v80l188 168h-278zM172 27l772 1366l109 -60l-772 -1360zM684 160l119 547 l117 -21l-95 -424h152v332h123v-332h57v-102h-57v-160h-123v160h-293z" />
<glyph unicode="&#xbf;" d="M242 328q0 108 51 186.5t151 163.5q41 36 54 48.5t29.5 38t20 51.5t3.5 71v28h141v-34q0 -112 -21 -158.5t-108 -120.5q-86 -74 -113 -106q-65 -77 -65 -164q0 -98 55 -159.5t152 -61.5q48 0 87.5 16t67.5 42.5t49.5 63.5t34.5 76t21 84l135 -35q-35 -178 -127.5 -277 t-263.5 -99q-160 0 -257 93.5t-97 252.5zM526 1063v303h189v-303h-189z" />
<glyph unicode="&#xc0;" d="M186 10l346 1356h164l346 -1356l-135 -37l-106 449h-373l-106 -449zM410 1593l73 129l363 -206l-53 -91zM461 545h307l-152 639h-4z" />
<glyph unicode="&#xc1;" d="M186 10l346 1356h164l346 -1356l-135 -37l-106 449h-373l-106 -449zM410 1516l362 206l74 -129l-383 -168zM461 545h307l-152 639h-4z" />
<glyph unicode="&#xc3;" d="M186 10l346 1356h164l346 -1356l-135 -37l-106 449h-373l-106 -449zM299 1473q14 37 23 59t27.5 54.5t37.5 50.5t48 32t63 14q26 0 52 -10t40.5 -20t42.5 -31q24 -19 34 -26.5t32.5 -19t39.5 -11.5q12 0 22 4.5t18 14t14 18t11.5 24t8 23t7 24.5t5.5 19l105 -33 q-11 -37 -18.5 -59.5t-23.5 -56t-33.5 -52t-46 -33t-63.5 -14.5q-43 0 -74 15t-73 48q-69 54 -100 54q-17 0 -31 -7.5t-25.5 -25.5t-17 -28t-15 -37t-10.5 -29zM461 545h307l-152 639h-4z" />
<glyph unicode="&#xc4;" d="M186 10l346 1356h164l346 -1356l-135 -37l-106 449h-373l-106 -449zM328 1563q0 50 25.5 89.5t72.5 39.5t72.5 -40t25.5 -89t-25.5 -89t-72.5 -40t-72.5 40t-25.5 89zM461 545h307l-152 639h-4zM705 1563q0 50 25.5 89.5t72.5 39.5t72.5 -40t25.5 -89t-25.5 -89 t-72.5 -40t-72.5 40t-25.5 89z" />
<glyph unicode="&#xc5;" d="M186 10l346 1356h164l346 -1356l-135 -37l-106 449h-373l-106 -449zM436 1559q0 72 52.5 124t125.5 52t126 -52t53 -124q0 -73 -52.5 -126t-126.5 -53q-73 0 -125.5 52.5t-52.5 126.5zM461 545h307l-152 639h-4zM518 1559q0 -40 28 -68.5t68 -28.5t68.5 28.5t28.5 68.5 q0 38 -28.5 66t-68.5 28t-68 -28t-28 -66z" />
<glyph unicode="&#xc6;" d="M88 10l344 1356h608v-123h-321v-450h297v-123h-297v-547h321v-123h-458v422h-246l-109 -449zM362 545h220v698h-56z" />
<glyph unicode="&#xc7;" d="M233 682q0 65 4 125t15.5 132.5t30 133.5t50 120t73.5 100t102.5 66t134.5 25q213 0 334 -221l-117 -69q-80 161 -217 161q-266 0 -266 -573q0 -571 266 -571q73 0 135.5 49.5t106.5 122.5l112 -78q-121 -194 -303 -219l-22 -72q70 -3 117 -40t47 -105 q0 -69 -59.5 -113.5t-131.5 -44.5q-81 0 -209 59l41 105q84 -41 152 -41q63 0 63 41q0 19 -13 32t-37.5 19t-43.5 8.5t-47 4t-33 1.5l53 148q-71 13 -126.5 51.5t-91.5 96.5t-60.5 123.5t-37 143.5t-17.5 143t-5 136z" />
<glyph unicode="&#xc8;" d="M322 0v1366h665v-123h-528v-450h436v-123h-436v-547h528v-123h-665zM410 1593l73 129l363 -206l-53 -91z" />
<glyph unicode="&#xc9;" d="M322 0v1366h665v-123h-528v-450h436v-123h-436v-547h528v-123h-665zM410 1516l362 206l74 -129l-383 -168z" />
<glyph unicode="&#xca;" d="M305 1501l309 209l310 -209l-47 -74l-263 127l-260 -127zM322 0v1366h665v-123h-528v-450h436v-123h-436v-547h528v-123h-665z" />
<glyph unicode="&#xcb;" d="M322 0v1366h665v-123h-528v-450h436v-123h-436v-547h528v-123h-665zM328 1563q0 50 25.5 89.5t72.5 39.5t72.5 -40t25.5 -89t-25.5 -89t-72.5 -40t-72.5 40t-25.5 89zM705 1563q0 50 25.5 89.5t72.5 39.5t72.5 -40t25.5 -89t-25.5 -89t-72.5 -40t-72.5 40t-25.5 89z" />
<glyph unicode="&#xcc;" d="M360 0v123h185v1120h-185v123h508v-123h-186v-1120h186v-123h-508zM410 1593l73 129l363 -206l-53 -91z" />
<glyph unicode="&#xcd;" d="M360 0v123h185v1120h-185v123h508v-123h-186v-1120h186v-123h-508zM410 1516l362 206l74 -129l-383 -168z" />
<glyph unicode="&#xce;" d="M305 1501l309 209l310 -209l-47 -74l-263 127l-260 -127zM360 0v123h185v1120h-185v123h508v-123h-186v-1120h186v-123h-508z" />
<glyph unicode="&#xcf;" d="M328 1563q0 50 25.5 89.5t72.5 39.5t72.5 -40t25.5 -89t-25.5 -89t-72.5 -40t-72.5 40t-25.5 89zM360 0v123h185v1120h-185v123h508v-123h-186v-1120h186v-123h-508zM705 1563q0 50 25.5 89.5t72.5 39.5t72.5 -40t25.5 -89t-25.5 -89t-72.5 -40t-72.5 40t-25.5 89z" />
<glyph unicode="&#xd0;" d="M244 0v123h110v498h-110v122h110v500h-110v123h360q87 0 151 -17t120 -62t91 -121t54.5 -197t19.5 -287q0 -60 -1 -103t-5.5 -104t-13 -104.5t-24 -96t-37 -89.5t-54.5 -74.5t-74.5 -60t-98 -36.5t-124.5 -14h-364zM492 123h112q40 0 69 4t61.5 17t55 36.5t44 65 t34.5 100t21 143.5t8 193t-8.5 194.5t-21.5 144.5t-34.5 100t-42 65t-49 36.5t-51.5 17t-53 3.5h-145v-500h161v-122h-161v-498z" />
<glyph unicode="&#xd1;" d="M258 0v1366h172l406 -1149l4 4l-6 305v840h137v-1366h-172l-406 1151l-4 -4l6 -309v-838h-137zM299 1473q14 37 23 59t27.5 54.5t37.5 50.5t48 32t63 14q26 0 52 -10t40.5 -20t42.5 -31q24 -19 34 -26.5t32.5 -19t39.5 -11.5q12 0 22 4.5t18 14t14 18t11.5 24t8 23 t7 24.5t5.5 19l105 -33q-11 -37 -18.5 -59.5t-23.5 -56t-33.5 -52t-46 -33t-63.5 -14.5q-43 0 -74 15t-73 48q-69 54 -100 54q-17 0 -31 -7.5t-25.5 -25.5t-17 -28t-15 -37t-10.5 -29z" />
<glyph unicode="&#xd2;" d="M236 670v14q0 62 1.5 110.5t9.5 125.5t22.5 135t42.5 123t67 107.5t99.5 70.5t135.5 28q78 0 140 -30t101 -73t67 -112t41.5 -124.5t20.5 -135t8 -118.5t1 -99v-8q0 -239 -35 -378q-81 -324 -344 -324q-61 0 -112.5 18.5t-88 46t-66 73t-47.5 86.5t-31 100.5t-19.5 100.5 t-9.5 101t-3.5 87.5t-0.5 74.5zM379 684q0 -117 6 -202t21.5 -158.5t41.5 -118t67.5 -69.5t98.5 -25q38 0 70 12.5t55 31t41 52t29.5 62t19.5 76t12 80t6 87t2.5 83.5t0.5 83v6v18q0 74 -0.5 112.5t-5 107t-13 106.5t-25.5 88t-41.5 75.5t-63 44.5t-87.5 19q-57 0 -99 -25 t-66.5 -76t-40 -98t-21.5 -123.5t-7 -118t-1 -113.5v-17zM410 1593l73 129l363 -206l-53 -91z" />
<glyph unicode="&#xd3;" d="M236 670v14q0 62 1.5 110.5t9.5 125.5t22.5 135t42.5 123t67 107.5t99.5 70.5t135.5 28q78 0 140 -30t101 -73t67 -112t41.5 -124.5t20.5 -135t8 -118.5t1 -99v-8q0 -239 -35 -378q-81 -324 -344 -324q-61 0 -112.5 18.5t-88 46t-66 73t-47.5 86.5t-31 100.5t-19.5 100.5 t-9.5 101t-3.5 87.5t-0.5 74.5zM379 684q0 -117 6 -202t21.5 -158.5t41.5 -118t67.5 -69.5t98.5 -25q38 0 70 12.5t55 31t41 52t29.5 62t19.5 76t12 80t6 87t2.5 83.5t0.5 83v6v18q0 74 -0.5 112.5t-5 107t-13 106.5t-25.5 88t-41.5 75.5t-63 44.5t-87.5 19q-57 0 -99 -25 t-66.5 -76t-40 -98t-21.5 -123.5t-7 -118t-1 -113.5v-17zM410 1516l362 206l74 -129l-383 -168z" />
<glyph unicode="&#xd4;" d="M236 670v14q0 62 1.5 110.5t9.5 125.5t22.5 135t42.5 123t67 107.5t99.5 70.5t135.5 28q78 0 140 -30t101 -73t67 -112t41.5 -124.5t20.5 -135t8 -118.5t1 -99v-8q0 -239 -35 -378q-81 -324 -344 -324q-61 0 -112.5 18.5t-88 46t-66 73t-47.5 86.5t-31 100.5t-19.5 100.5 t-9.5 101t-3.5 87.5t-0.5 74.5zM305 1501l309 209l310 -209l-47 -74l-263 127l-260 -127zM379 684q0 -117 6 -202t21.5 -158.5t41.5 -118t67.5 -69.5t98.5 -25q38 0 70 12.5t55 31t41 52t29.5 62t19.5 76t12 80t6 87t2.5 83.5t0.5 83v6v18q0 74 -0.5 112.5t-5 107t-13 106.5 t-25.5 88t-41.5 75.5t-63 44.5t-87.5 19q-57 0 -99 -25t-66.5 -76t-40 -98t-21.5 -123.5t-7 -118t-1 -113.5v-17z" />
<glyph unicode="&#xd5;" d="M236 670v14q0 62 1.5 110.5t9.5 125.5t22.5 135t42.5 123t67 107.5t99.5 70.5t135.5 28q78 0 140 -30t101 -73t67 -112t41.5 -124.5t20.5 -135t8 -118.5t1 -99v-8q0 -239 -35 -378q-81 -324 -344 -324q-61 0 -112.5 18.5t-88 46t-66 73t-47.5 86.5t-31 100.5t-19.5 100.5 t-9.5 101t-3.5 87.5t-0.5 74.5zM299 1473q14 37 23 59t27.5 54.5t37.5 50.5t48 32t63 14q26 0 52 -10t40.5 -20t42.5 -31q24 -19 34 -26.5t32.5 -19t39.5 -11.5q12 0 22 4.5t18 14t14 18t11.5 24t8 23t7 24.5t5.5 19l105 -33q-11 -37 -18.5 -59.5t-23.5 -56t-33.5 -52 t-46 -33t-63.5 -14.5q-43 0 -74 15t-73 48q-69 54 -100 54q-17 0 -31 -7.5t-25.5 -25.5t-17 -28t-15 -37t-10.5 -29zM379 684q0 -117 6 -202t21.5 -158.5t41.5 -118t67.5 -69.5t98.5 -25q38 0 70 12.5t55 31t41 52t29.5 62t19.5 76t12 80t6 87t2.5 83.5t0.5 83v6v18 q0 74 -0.5 112.5t-5 107t-13 106.5t-25.5 88t-41.5 75.5t-63 44.5t-87.5 19q-57 0 -99 -25t-66.5 -76t-40 -98t-21.5 -123.5t-7 -118t-1 -113.5v-17z" />
<glyph unicode="&#xd6;" d="M236 670v14q0 62 1.5 110.5t9.5 125.5t22.5 135t42.5 123t67 107.5t99.5 70.5t135.5 28q78 0 140 -30t101 -73t67 -112t41.5 -124.5t20.5 -135t8 -118.5t1 -99v-8q0 -239 -35 -378q-81 -324 -344 -324q-61 0 -112.5 18.5t-88 46t-66 73t-47.5 86.5t-31 100.5t-19.5 100.5 t-9.5 101t-3.5 87.5t-0.5 74.5zM328 1563q0 50 25.5 89.5t72.5 39.5t72.5 -40t25.5 -89t-25.5 -89t-72.5 -40t-72.5 40t-25.5 89zM379 684q0 -117 6 -202t21.5 -158.5t41.5 -118t67.5 -69.5t98.5 -25q38 0 70 12.5t55 31t41 52t29.5 62t19.5 76t12 80t6 87t2.5 83.5t0.5 83 v6v18q0 74 -0.5 112.5t-5 107t-13 106.5t-25.5 88t-41.5 75.5t-63 44.5t-87.5 19q-57 0 -99 -25t-66.5 -76t-40 -98t-21.5 -123.5t-7 -118t-1 -113.5v-17zM705 1563q0 50 25.5 89.5t72.5 39.5t72.5 -40t25.5 -89t-25.5 -89t-72.5 -40t-72.5 40t-25.5 89z" />
<glyph unicode="&#xd7;" d="M70 258l481 479l-481 482l63 63l481 -481l482 481l63 -63l-481 -482l481 -479l-63 -65l-482 481l-481 -481z" />
<glyph unicode="&#xd8;" d="M193 47l106 199q-49 166 -49 438v11q0 47 0.5 76t4 89.5t9.5 101.5t19 100t31.5 100t47.5 86t66 72.5t88.5 45.5t112.5 18q138 0 237 -102l66 119l106 -55l-98 -181q68 -173 68 -481q0 -48 -1 -87t-5 -97t-11.5 -104.5t-21.5 -102t-33 -98t-48 -84t-65 -69t-85.5 -44 t-108.5 -16.5q-75 0 -147.5 36.5t-116.5 96.5l-68 -121zM393 709q0 -197 10 -275l396 723q-58 98 -170 98q-41 0 -71 -9.5t-63 -42.5t-54 -90t-34.5 -159.5t-13.5 -244.5zM440 250q58 -139 189 -139q25 0 43 2.5t44 14.5t45 33.5t39.5 62t33.5 97t21.5 143t8.5 195.5 q0 183 -16 334v4h-4l-404 -743v-4z" />
<glyph unicode="&#xd9;" d="M281 326v1040h137v-993q0 -45 4 -79.5t16.5 -70.5t33 -59t57 -38t85.5 -15t85.5 15t58 38.5t34.5 59t17 70.5t4 79v993h137v-1034q0 -159 -91.5 -254.5t-244.5 -95.5t-243 95t-90 249zM410 1593l73 129l363 -206l-53 -91z" />
<glyph unicode="&#xda;" d="M281 326v1040h137v-993q0 -45 4 -79.5t16.5 -70.5t33 -59t57 -38t85.5 -15t85.5 15t58 38.5t34.5 59t17 70.5t4 79v993h137v-1034q0 -159 -91.5 -254.5t-244.5 -95.5t-243 95t-90 249zM410 1516l362 206l74 -129l-383 -168z" />
<glyph unicode="&#xdb;" d="M281 326v1040h137v-993q0 -45 4 -79.5t16.5 -70.5t33 -59t57 -38t85.5 -15t85.5 15t58 38.5t34.5 59t17 70.5t4 79v993h137v-1034q0 -159 -91.5 -254.5t-244.5 -95.5t-243 95t-90 249zM305 1501l309 209l310 -209l-47 -74l-263 127l-260 -127z" />
<glyph unicode="&#xdc;" d="M281 326v1040h137v-993q0 -45 4 -79.5t16.5 -70.5t33 -59t57 -38t85.5 -15t85.5 15t58 38.5t34.5 59t17 70.5t4 79v993h137v-1034q0 -159 -91.5 -254.5t-244.5 -95.5t-243 95t-90 249zM328 1563q0 50 25.5 89.5t72.5 39.5t72.5 -40t25.5 -89t-25.5 -89t-72.5 -40 t-72.5 40t-25.5 89zM705 1563q0 50 25.5 89.5t72.5 39.5t72.5 -40t25.5 -89t-25.5 -89t-72.5 -40t-72.5 40t-25.5 89z" />
<glyph unicode="&#xdd;" d="M193 1341l126 52l295 -695l295 695l127 -52l-354 -802v-539h-137v539zM410 1516l362 206l74 -129l-383 -168z" />
<glyph unicode="&#xde;" d="M332 0v1366h137v-303h160q181 0 279 -94t98 -269q0 -185 -93 -290t-239 -105h-205v-305h-137zM469 428h193q95 0 147.5 71.5t52.5 200.5q0 240 -235 240h-158v-512z" />
<glyph unicode="&#xdf;" d="M299 0v858q0 33 17 70.5t50 73.5t90.5 59.5t127.5 23.5q118 0 189 -72t71 -190q0 -71 -28.5 -133t-84.5 -94q93 -25 146 -106t53 -181q0 -81 -26 -143.5t-68 -97t-88.5 -51.5t-94.5 -17h-125v123h95q163 0 163 180q0 105 -56 156.5t-163 48.5v123q64 9 98.5 59t34.5 119 q0 147 -131 147q-37 0 -62.5 -11.5t-39 -27.5t-21 -44.5t-9 -51t-1.5 -59.5v-762h-137z" />
<glyph unicode="&#xe0;" d="M190 23l336 1044h176l336 -1044l-135 -50l-98 318h-379l-100 -318zM410 1294l73 129l363 -206l-53 -91zM463 414h303l-152 493z" />
<glyph unicode="&#xe1;" d="M190 23l336 1044h176l336 -1044l-135 -50l-98 318h-379l-100 -318zM410 1217l362 206l74 -129l-383 -168zM463 414h303l-152 493z" />
<glyph unicode="&#xe2;" d="M190 23l336 1044h176l336 -1044l-135 -50l-98 318h-379l-100 -318zM305 1202l309 209l310 -209l-47 -74l-263 127l-260 -127zM463 414h303l-152 493z" />
<glyph unicode="&#xe3;" d="M190 23l336 1044h176l336 -1044l-135 -50l-98 318h-379l-100 -318zM299 1174q14 37 23 59t27.5 54.5t37.5 50.5t48 32t63 14q26 0 52 -10t40.5 -20t42.5 -31q24 -19 34 -26.5t32.5 -19t39.5 -11.5q12 0 22 4.5t18 14t14 18t11.5 24t8 23t7 24.5t5.5 19l105 -33 q-11 -37 -18.5 -59.5t-23.5 -56t-33.5 -52t-46 -33t-63.5 -14.5q-43 0 -74 15t-73 48q-69 54 -100 54q-17 0 -31 -7.5t-25.5 -25.5t-17 -28t-15 -37t-10.5 -29zM463 414h303l-152 493z" />
<glyph unicode="&#xe4;" d="M190 23l336 1044h176l336 -1044l-135 -50l-98 318h-379l-100 -318zM328 1264q0 50 25.5 89.5t72.5 39.5t72.5 -40t25.5 -89t-25.5 -89t-72.5 -40t-72.5 40t-25.5 89zM463 414h303l-152 493zM705 1264q0 50 25.5 89.5t72.5 39.5t72.5 -40t25.5 -89t-25.5 -89t-72.5 -40 t-72.5 40t-25.5 89z" />
<glyph unicode="&#xe5;" d="M190 23l334 1040q-40 24 -64 65.5t-24 90.5q0 72 52.5 124t125.5 52t126 -52t53 -124q0 -48 -25 -90t-66 -66l336 -1040l-135 -50l-98 318h-379l-100 -318zM463 414h303l-152 493zM518 1219q0 -40 28 -68.5t68 -28.5t68.5 28.5t28.5 68.5q0 38 -28.5 66t-68.5 28t-68 -28 t-28 -66z" />
<glyph unicode="&#xe6;" d="M82 23l336 1044h680v-123h-365v-319h297v-123h-297v-379h365v-123h-502v291h-281l-98 -318zM354 414h242v530h-86z" />
<glyph unicode="&#xe7;" d="M233 532q0 123 25 220.5t65 158.5t93.5 101.5t106.5 56.5t108 16q119 0 198 -57t140 -170l-125 -63q-84 161 -211 161q-61 0 -108 -28.5t-74.5 -72t-44.5 -102t-23 -111t-6 -107.5q0 -56 5.5 -108.5t22.5 -112t44 -102.5t74.5 -72t109.5 -29q86 0 141 43.5t111 128.5 l112 -78q-64 -99 -135 -154t-168 -65l-22 -72q70 -3 117 -40t47 -105q0 -69 -59.5 -113.5t-131.5 -44.5q-81 0 -209 59l41 105q84 -41 152 -41q63 0 63 41q0 19 -13 32t-37.5 19t-43.5 8.5t-47 4t-33 1.5l53 148q-92 15 -160 67t-105.5 130t-55 164t-17.5 183z" />
<glyph unicode="&#xe8;" d="M322 0v1067h665v-123h-528v-319h436v-123h-436v-379h528v-123h-665zM410 1294l73 129l363 -206l-53 -91z" />
<glyph unicode="&#xe9;" d="M322 0v1067h665v-123h-528v-319h436v-123h-436v-379h528v-123h-665zM410 1217l362 206l74 -129l-383 -168z" />
<glyph unicode="&#xea;" d="M305 1202l309 209l310 -209l-47 -74l-263 127l-260 -127zM322 0v1067h665v-123h-528v-319h436v-123h-436v-379h528v-123h-665z" />
<glyph unicode="&#xeb;" d="M322 0v1067h665v-123h-528v-319h436v-123h-436v-379h528v-123h-665zM328 1264q0 50 25.5 89.5t72.5 39.5t72.5 -40t25.5 -89t-25.5 -89t-72.5 -40t-72.5 40t-25.5 89zM705 1264q0 50 25.5 89.5t72.5 39.5t72.5 -40t25.5 -89t-25.5 -89t-72.5 -40t-72.5 40t-25.5 89z" />
<glyph unicode="&#xec;" d="M395 0v123h150v821h-150v123h439v-123h-152v-821h152v-123h-439zM410 1294l73 129l363 -206l-53 -91z" />
<glyph unicode="&#xed;" d="M395 0v123h150v821h-150v123h439v-123h-152v-821h152v-123h-439zM410 1217l362 206l74 -129l-383 -168z" />
<glyph unicode="&#xee;" d="M305 1202l309 209l310 -209l-47 -74l-263 127l-260 -127zM395 0v123h150v821h-150v123h439v-123h-152v-821h152v-123h-439z" />
<glyph unicode="&#xef;" d="M328 1264q0 50 25.5 89.5t72.5 39.5t72.5 -40t25.5 -89t-25.5 -89t-72.5 -40t-72.5 40t-25.5 89zM395 0v123h150v821h-150v123h439v-123h-152v-821h152v-123h-439zM705 1264q0 50 25.5 89.5t72.5 39.5t72.5 -40t25.5 -89t-25.5 -89t-72.5 -40t-72.5 40t-25.5 89z" />
<glyph unicode="&#xf0;" d="M244 0v123h110v348h-110v123h110v350h-110v123h356q156 0 250 -47.5t142 -162t48 -310.5q0 -110 -9 -186.5t-36 -149t-74.5 -116t-127.5 -69.5t-193 -26h-356zM492 123h145q138 0 199 91.5t61 317.5q0 121 -17 202.5t-52 127t-81.5 64t-113.5 18.5h-141v-350h161v-123 h-161v-348z" />
<glyph unicode="&#xf1;" d="M258 0v1067h170l414 -899l4 4l-12 277v618h137v-1067h-170l-414 899l-4 -4l12 -279v-616h-137zM299 1174q14 37 23 59t27.5 54.5t37.5 50.5t48 32t63 14q26 0 52 -10t40.5 -20t42.5 -31q24 -19 34 -26.5t32.5 -19t39.5 -11.5q12 0 22 4.5t18 14t14 18t11.5 24t8 23 t7 24.5t5.5 19l105 -33q-11 -37 -18.5 -59.5t-23.5 -56t-33.5 -52t-46 -33t-63.5 -14.5q-43 0 -74 15t-73 48q-69 54 -100 54q-17 0 -31 -7.5t-25.5 -25.5t-17 -28t-15 -37t-10.5 -29z" />
<glyph unicode="&#xf2;" d="M236 532q0 123 22.5 220.5t59.5 158.5t87.5 101.5t101.5 56.5t107 16q54 0 105 -15.5t101.5 -55.5t88 -101t61 -159t23.5 -222q0 -30 -1 -58.5t-9 -87.5t-21.5 -107.5t-42 -106t-67 -97t-100.5 -66.5t-138 -27q-55 0 -105.5 15.5t-101.5 55.5t-88 100t-60 157.5 t-23 221.5zM379 532q0 -45 3 -86t11.5 -92t25.5 -92t42 -76t64 -55t89 -20t89.5 20t64 55t42 76t25.5 92t11.5 92.5t3.5 85.5q0 55 -4.5 105.5t-19.5 111.5t-39.5 104.5t-69 73t-103.5 29.5t-103.5 -29.5t-69 -73t-39 -104.5t-19 -111.5t-4.5 -105.5zM410 1294l73 129 l363 -206l-53 -91z" />
<glyph unicode="&#xf3;" d="M236 532q0 123 22.5 220.5t59.5 158.5t87.5 101.5t101.5 56.5t107 16q54 0 105 -15.5t101.5 -55.5t88 -101t61 -159t23.5 -222q0 -30 -1 -58.5t-9 -87.5t-21.5 -107.5t-42 -106t-67 -97t-100.5 -66.5t-138 -27q-55 0 -105.5 15.5t-101.5 55.5t-88 100t-60 157.5 t-23 221.5zM379 532q0 -45 3 -86t11.5 -92t25.5 -92t42 -76t64 -55t89 -20t89.5 20t64 55t42 76t25.5 92t11.5 92.5t3.5 85.5q0 55 -4.5 105.5t-19.5 111.5t-39.5 104.5t-69 73t-103.5 29.5t-103.5 -29.5t-69 -73t-39 -104.5t-19 -111.5t-4.5 -105.5zM410 1217l362 206 l74 -129l-383 -168z" />
<glyph unicode="&#xf4;" d="M236 532q0 123 22.5 220.5t59.5 158.5t87.5 101.5t101.5 56.5t107 16q54 0 105 -15.5t101.5 -55.5t88 -101t61 -159t23.5 -222q0 -30 -1 -58.5t-9 -87.5t-21.5 -107.5t-42 -106t-67 -97t-100.5 -66.5t-138 -27q-55 0 -105.5 15.5t-101.5 55.5t-88 100t-60 157.5 t-23 221.5zM305 1202l309 209l310 -209l-47 -74l-263 127l-260 -127zM379 532q0 -45 3 -86t11.5 -92t25.5 -92t42 -76t64 -55t89 -20t89.5 20t64 55t42 76t25.5 92t11.5 92.5t3.5 85.5q0 55 -4.5 105.5t-19.5 111.5t-39.5 104.5t-69 73t-103.5 29.5t-103.5 -29.5t-69 -73 t-39 -104.5t-19 -111.5t-4.5 -105.5z" />
<glyph unicode="&#xf5;" d="M236 532q0 123 22.5 220.5t59.5 158.5t87.5 101.5t101.5 56.5t107 16q54 0 105 -15.5t101.5 -55.5t88 -101t61 -159t23.5 -222q0 -30 -1 -58.5t-9 -87.5t-21.5 -107.5t-42 -106t-67 -97t-100.5 -66.5t-138 -27q-55 0 -105.5 15.5t-101.5 55.5t-88 100t-60 157.5 t-23 221.5zM299 1174q14 37 23 59t27.5 54.5t37.5 50.5t48 32t63 14q26 0 52 -10t40.5 -20t42.5 -31q24 -19 34 -26.5t32.5 -19t39.5 -11.5q12 0 22 4.5t18 14t14 18t11.5 24t8 23t7 24.5t5.5 19l105 -33q-11 -37 -18.5 -59.5t-23.5 -56t-33.5 -52t-46 -33t-63.5 -14.5 q-43 0 -74 15t-73 48q-69 54 -100 54q-17 0 -31 -7.5t-25.5 -25.5t-17 -28t-15 -37t-10.5 -29zM379 532q0 -45 3 -86t11.5 -92t25.5 -92t42 -76t64 -55t89 -20t89.5 20t64 55t42 76t25.5 92t11.5 92.5t3.5 85.5q0 55 -4.5 105.5t-19.5 111.5t-39.5 104.5t-69 73t-103.5 29.5 t-103.5 -29.5t-69 -73t-39 -104.5t-19 -111.5t-4.5 -105.5z" />
<glyph unicode="&#xf6;" d="M236 532q0 123 22.5 220.5t59.5 158.5t87.5 101.5t101.5 56.5t107 16q54 0 105 -15.5t101.5 -55.5t88 -101t61 -159t23.5 -222q0 -30 -1 -58.5t-9 -87.5t-21.5 -107.5t-42 -106t-67 -97t-100.5 -66.5t-138 -27q-55 0 -105.5 15.5t-101.5 55.5t-88 100t-60 157.5 t-23 221.5zM328 1264q0 50 25.5 89.5t72.5 39.5t72.5 -40t25.5 -89t-25.5 -89t-72.5 -40t-72.5 40t-25.5 89zM379 532q0 -45 3 -86t11.5 -92t25.5 -92t42 -76t64 -55t89 -20t89.5 20t64 55t42 76t25.5 92t11.5 92.5t3.5 85.5q0 55 -4.5 105.5t-19.5 111.5t-39.5 104.5 t-69 73t-103.5 29.5t-103.5 -29.5t-69 -73t-39 -104.5t-19 -111.5t-4.5 -105.5zM705 1264q0 50 25.5 89.5t72.5 39.5t72.5 -40t25.5 -89t-25.5 -89t-72.5 -40t-72.5 40t-25.5 89z" />
<glyph unicode="&#xf7;" d="M70 692v90h1089v-90h-1089zM526 420q0 37 25.5 62.5t62.5 25.5t62.5 -25.5t25.5 -62.5t-25.5 -62.5t-62.5 -25.5t-62.5 25.5t-25.5 62.5zM526 1055q0 37 25.5 62.5t62.5 25.5t62.5 -25.5t25.5 -62.5t-25.5 -62.5t-62.5 -25.5t-62.5 25.5t-25.5 62.5z" />
<glyph unicode="&#xf8;" d="M236 532q0 119 21 214t56.5 157.5t84.5 104t102.5 59.5t113.5 18q115 0 197 -61l43 78l102 -58l-59 -112q96 -145 96 -400q0 -117 -21 -211.5t-56.5 -156.5t-85 -104t-103 -60t-113.5 -18q-118 0 -200 65l-43 -80l-105 56l64 116q-94 137 -94 393zM379 532 q0 -138 31 -243l338 616q-51 51 -134 51q-59 0 -103.5 -29.5t-69 -73t-39 -104.5t-19 -111.5t-4.5 -105.5zM477 164q59 -53 137 -53q50 0 89.5 20t64 55t42 76t25.5 92t11.5 92.5t3.5 85.5q0 146 -33 252z" />
<glyph unicode="&#xf9;" d="M281 283v784h137v-727q0 -121 41.5 -175t144.5 -54q123 0 166 53t43 176v727h137v-793q0 -55 -20 -105.5t-59 -93t-105.5 -68t-151.5 -25.5q-163 0 -248 87t-85 214zM410 1294l73 129l363 -206l-53 -91z" />
<glyph unicode="&#xfa;" d="M281 283v784h137v-727q0 -121 41.5 -175t144.5 -54q123 0 166 53t43 176v727h137v-793q0 -55 -20 -105.5t-59 -93t-105.5 -68t-151.5 -25.5q-163 0 -248 87t-85 214zM410 1217l362 206l74 -129l-383 -168z" />
<glyph unicode="&#xfb;" d="M281 283v784h137v-727q0 -121 41.5 -175t144.5 -54q123 0 166 53t43 176v727h137v-793q0 -55 -20 -105.5t-59 -93t-105.5 -68t-151.5 -25.5q-163 0 -248 87t-85 214zM305 1202l309 209l310 -209l-47 -74l-263 127l-260 -127z" />
<glyph unicode="&#xfc;" d="M281 283v784h137v-727q0 -121 41.5 -175t144.5 -54q123 0 166 53t43 176v727h137v-793q0 -55 -20 -105.5t-59 -93t-105.5 -68t-151.5 -25.5q-163 0 -248 87t-85 214zM328 1264q0 50 25.5 89.5t72.5 39.5t72.5 -40t25.5 -89t-25.5 -89t-72.5 -40t-72.5 40t-25.5 89z M705 1264q0 50 25.5 89.5t72.5 39.5t72.5 -40t25.5 -89t-25.5 -89t-72.5 -40t-72.5 40t-25.5 89z" />
<glyph unicode="&#xfd;" d="M201 1026l129 68l284 -549l285 549l129 -68l-346 -614v-412h-137v412zM410 1217l362 206l74 -129l-383 -168z" />
<glyph unicode="&#xfe;" d="M332 0v1067h137v-229h195q175 0 259.5 -81.5t84.5 -209.5q0 -81 -27 -144t-72 -100t-99 -55.5t-112 -18.5h-229v-229h-137zM469 352h188q207 0 207 185q0 52 -16 88.5t-46 55.5t-64.5 26.5t-80.5 7.5h-188v-363z" />
<glyph unicode="&#xff;" d="M201 1026l129 68l284 -549l285 549l129 -68l-346 -614v-412h-137v412zM328 1264q0 50 25.5 89.5t72.5 39.5t72.5 -40t25.5 -89t-25.5 -89t-72.5 -40t-72.5 40t-25.5 89zM705 1264q0 50 25.5 89.5t72.5 39.5t72.5 -40t25.5 -89t-25.5 -89t-72.5 -40t-72.5 40t-25.5 89z " />
<glyph unicode="&#x152;" d="M141 670v16v7q0 691 381 691q84 0 123 -18h442v-123h-315v-450h291v-123h-291v-547h315v-123h-450q-17 -7 -51 -14q-32 -4 -54 -4q-393 0 -391 688zM285 686q0 -71 2 -126t7.5 -117.5t16 -108t28 -90t42 -72t60.5 -44.5t81 -17q65 0 113 39v1073q-37 32 -113 32 q-43 0 -74.5 -10.5t-64 -45t-52.5 -95t-33 -166t-13 -252.5z" />
<glyph unicode="&#x153;" d="M123 532q0 124 23.5 222t61 159t88 101t101.5 55.5t105 15.5q71 0 119 -18h487v-123h-365v-319h299v-123h-299v-379h365v-123h-487q-16 -6 -52 -14q-36 -4 -55 -4q-89 0 -159 33.5t-112.5 86.5t-70.5 127t-38.5 148t-10.5 155zM266 532q0 -44 3.5 -85.5t11.5 -92.5 t25.5 -92t42 -76t64 -55t89.5 -20q56 0 104 28v789q-48 28 -104 28q-59 0 -103.5 -29.5t-69 -73t-39.5 -104.5t-19.5 -111.5t-4.5 -105.5z" />
<glyph unicode="&#x178;" d="M193 1341l126 52l295 -695l295 695l127 -52l-354 -802v-539h-137v539zM328 1563q0 50 25.5 89.5t72.5 39.5t72.5 -40t25.5 -89t-25.5 -89t-72.5 -40t-72.5 40t-25.5 89zM705 1563q0 50 25.5 89.5t72.5 39.5t72.5 -40t25.5 -89t-25.5 -89t-72.5 -40t-72.5 40t-25.5 89z " />
<glyph unicode="&#x2c6;" d="M305 1202l309 209l310 -209l-47 -74l-263 127l-260 -127z" />
<glyph unicode="&#x2dc;" d="M299 1174q14 37 23 59t27.5 54.5t37.5 50.5t48 32t63 14q26 0 52 -10t40.5 -20t42.5 -31q24 -19 34 -26.5t32.5 -19t39.5 -11.5q12 0 22 4.5t18 14t14 18t11.5 24t8 23t7 24.5t5.5 19l105 -33q-11 -37 -18.5 -59.5t-23.5 -56t-33.5 -52t-46 -33t-63.5 -14.5q-43 0 -74 15 t-73 48q-69 54 -100 54q-17 0 -31 -7.5t-25.5 -25.5t-17 -28t-15 -37t-10.5 -29z" />
<glyph unicode="&#x2000;" horiz-adv-x="867" />
<glyph unicode="&#x2001;" horiz-adv-x="1735" />
<glyph unicode="&#x2002;" horiz-adv-x="867" />
<glyph unicode="&#x2003;" horiz-adv-x="1735" />
<glyph unicode="&#x2004;" horiz-adv-x="578" />
<glyph unicode="&#x2005;" horiz-adv-x="433" />
<glyph unicode="&#x2006;" horiz-adv-x="289" />
<glyph unicode="&#x2007;" horiz-adv-x="289" />
<glyph unicode="&#x2008;" horiz-adv-x="216" />
<glyph unicode="&#x2009;" horiz-adv-x="347" />
<glyph unicode="&#x200a;" horiz-adv-x="96" />
<glyph unicode="&#x2010;" d="M387 469v129h455v-129h-455z" />
<glyph unicode="&#x2011;" d="M387 469v129h455v-129h-455z" />
<glyph unicode="&#x2012;" d="M387 469v129h455v-129h-455z" />
<glyph unicode="&#x2013;" d="M160 469v129h909v-129h-909z" />
<glyph unicode="&#x2014;" d="M0 469v129h1229v-129h-1229z" />
<glyph unicode="&#x2018;" d="M442 961v92q0 99 65 189t163 142l47 -112q-86 -55 -86 -187v-124h-189z" />
<glyph unicode="&#x2019;" d="M457 1055q86 55 86 186v125h188v-92q0 -99 -64.5 -189.5t-162.5 -142.5z" />
<glyph unicode="&#x201a;" d="M457 -8q86 55 86 186v125h188v-92q0 -99 -64.5 -189.5t-162.5 -142.5z" />
<glyph unicode="&#x201c;" d="M293 961v92q0 99 64.5 189t162.5 142l47 -112q-86 -55 -86 -187v-124h-188zM674 961v92q0 99 64.5 189t162.5 142l47 -112q-86 -55 -86 -187v-124h-188z" />
<glyph unicode="&#x201d;" d="M281 1055q86 55 86 186v125h188v-92q0 -99 -64.5 -189.5t-162.5 -142.5zM662 1055q86 55 86 186v125h188v-92q0 -99 -64.5 -189.5t-162.5 -142.5z" />
<glyph unicode="&#x201e;" d="M281 -8q86 55 86 186v125h188v-92q0 -99 -64.5 -189.5t-162.5 -142.5zM662 -8q86 55 86 186v125h188v-92q0 -99 -64.5 -189.5t-162.5 -142.5z" />
<glyph unicode="&#x2022;" d="M362 516q0 103 74.5 177.5t177.5 74.5t177.5 -74.5t74.5 -177.5q0 -105 -74.5 -178.5t-177.5 -73.5q-106 0 -179 73t-73 179z" />
<glyph unicode="&#x2026;" d="M111 0v303h188v-303h-188zM520 0v303h189v-303h-189zM930 0v303h188v-303h-188z" />
<glyph unicode="&#x202f;" horiz-adv-x="347" />
<glyph unicode="&#x2039;" d="M291 676l520 491l96 -100l-420 -391l420 -393l-96 -103z" />
<glyph unicode="&#x203a;" d="M322 283l419 393l-419 391l96 100l520 -491l-520 -496z" />
<glyph unicode="&#x205f;" horiz-adv-x="433" />
<glyph unicode="&#x20ac;" d="M57 500l43 108h101q-2 18 -2 78q0 56 2 74h-144l43 108h111q18 110 58 200t105.5 162t166 112t227.5 40q119 0 215.5 -31.5t149.5 -76.5v-144q-59 56 -148.5 90.5t-202.5 34.5q-187 0 -296 -109t-132 -278h680l-43 -108h-653q-4 -36 -4 -74t4 -78h594l-43 -108h-535 q30 -186 140 -290t290 -104q210 0 349 125v-145q-48 -41 -145 -71.5t-220 -30.5q-231 0 -373.5 129.5t-181.5 386.5h-156z" />
<glyph unicode="&#x2122;" d="M39 1303v81h469v-81h-193v-496h-82v496h-194zM578 807v577h139l166 -407l172 407h135v-577h-82v496h-4l-197 -496h-53l-190 496h-5v-496h-81z" />
<glyph unicode="&#x25fc;" horiz-adv-x="1095" d="M0 0v1096h1096v-1096h-1096z" />
<glyph unicode="&#xfb01;" d="M184 0v1067h922v-123h-150v-821h150v-123h-436v123h149v821h-497v-319h311v-123h-311v-502h-138z" />
<glyph unicode="&#xfb02;" d="M156 0v1067h725v-944h327v-123h-465v944h-450v-319h311v-123h-311v-502h-137z" />
</font>
</defs>
</svg>
