<?xml version="1.0" standalone="no"?>
<!DOCTYPE svg PUBLIC "-//W3C//DTD SVG 1.1//EN" "http://www.w3.org/Graphics/SVG/1.1/DTD/svg11.dtd" >
<svg xmlns="http://www.w3.org/2000/svg">
<metadata></metadata>
<defs>
<font id="novecento_widelight" horiz-adv-x="1685" >
<font-face units-per-em="2048" ascent="1638" descent="-410" />
<missing-glyph horiz-adv-x="819" />
<glyph horiz-adv-x="2048" />
<glyph horiz-adv-x="2048" />
<glyph unicode="&#xd;" horiz-adv-x="2048" />
<glyph unicode=" "  horiz-adv-x="819" />
<glyph unicode="&#x09;" horiz-adv-x="819" />
<glyph unicode="&#xa0;" horiz-adv-x="819" />
<glyph unicode="!" horiz-adv-x="491" d="M205 0v322h82v-322h-82zM205 481v953h82v-953h-82z" />
<glyph unicode="&#x22;" horiz-adv-x="716" d="M176 1014v444h82v-444h-82zM401 1014v444h82v-444h-82z" />
<glyph unicode="#" horiz-adv-x="1683" d="M98 498l35 63h340l178 346h-344l35 64h340l238 463h79l-237 -463h371l237 463h80l-238 -463h373l-35 -64h-368l-178 -346h372l-35 -63h-370l-254 -498h-80l254 498h-371l-254 -498h-80l254 498h-342zM553 561h371l178 346h-371z" />
<glyph unicode="$" horiz-adv-x="1202" d="M88 389l76 21q9 -156 126.5 -260.5t313.5 -104.5q191 0 307.5 93t116.5 237q0 49 -15.5 91t-40 73t-62 58t-75.5 45.5t-85.5 35t-87.5 28t-86 23.5q-31 8 -46 12q-164 45 -237 84q-178 93 -178 267q0 158 123.5 258.5t318.5 111.5v156h72v-156q180 -9 304 -111t152 -268 l-73 -20q-23 150 -137.5 239t-278.5 89q-178 0 -288.5 -78.5t-110.5 -220.5q0 -53 23.5 -95.5t58.5 -70t91 -51.5t106 -39t118 -33l24 -6q172 -47 245 -79q225 -102 245 -301q2 -20 2 -42q0 -170 -132.5 -283.5t-348.5 -120.5v-155h-72v157q-206 13 -330.5 130t-138.5 286z " />
<glyph unicode="%" horiz-adv-x="1798" d="M98 1051q0 183 103.5 297t271.5 114q167 0 271 -114t104 -297q0 -184 -104 -298t-271 -114q-169 0 -272 113.5t-103 298.5zM178 1051q0 -152 83 -245t212 -93t212 93t83 245q0 153 -83 245.5t-212 92.5t-212 -92.5t-83 -245.5zM391 0l926 1434h72l-926 -1434h-72z M950 383q0 184 103.5 298t271.5 114q167 0 271 -114.5t104 -297.5q0 -184 -104 -298t-271 -114q-169 0 -272 113.5t-103 298.5zM1030 383q0 -152 83 -245t212 -93t212 93t83 245q0 153 -83 245.5t-212 92.5t-212 -92.5t-83 -245.5z" />
<glyph unicode="&#x26;" horiz-adv-x="1433" d="M98 399q0 147 97 240t231 106q-53 9 -102 33t-91.5 63t-68 99t-25.5 133q0 53 14.5 105t49 104t86 91.5t133 64t182.5 24.5q213 0 344 -104.5t166 -308.5l-74 -21q-38 185 -139 271.5t-297 86.5q-87 0 -156 -21.5t-110.5 -54.5t-68.5 -76t-37.5 -82.5t-10.5 -78.5 q0 -127 100 -209t283 -82h793v-75h-254v-189q0 -547 -539 -547q-219 0 -362.5 121.5t-143.5 306.5zM180 399q0 -154 119.5 -253t304.5 -99q128 0 218 32t142.5 95t75.5 147t23 197v189h-459q-191 0 -307.5 -77t-116.5 -231z" />
<glyph unicode="'" horiz-adv-x="491" d="M205 1014v444h82v-444h-82z" />
<glyph unicode="(" horiz-adv-x="708" d="M102 721q0 431 124.5 680.5t373.5 339.5l27 -66q-220 -80 -331.5 -309t-111.5 -645t111.5 -645t331.5 -309l-27 -66q-249 90 -373.5 339.5t-124.5 680.5z" />
<glyph unicode=")" horiz-adv-x="708" d="M82 -233l27 -66q249 90 373 339.5t124 680.5t-124 680.5t-373 339.5l-27 -66q220 -80 331 -309t111 -645t-111 -645t-331 -309z" />
<glyph unicode="*" horiz-adv-x="1081" d="M205 1165l20 60l283 -92v301h65l-4 -301l287 92l21 -60l-287 -88l180 -248l-51 -36l-178 251l-176 -251l-52 36l179 248z" />
<glyph unicode="+" horiz-adv-x="1345" d="M205 692v72h457v428h81v-428h398v-72h-400v-424h-82v424h-454z" />
<glyph unicode="," horiz-adv-x="415" d="M94 -264q96 107 96 233l15 8l-15 3q-28 -3 -51.5 16.5t-23.5 54.5q0 33 21.5 52.5t53.5 19.5q31 0 52.5 -26.5t21.5 -65.5q0 -84 -36.5 -160.5t-86.5 -134.5h-47z" />
<glyph unicode="-" horiz-adv-x="778" d="M82 692v72h614v-72h-614z" />
<glyph unicode="." horiz-adv-x="389" d="M123 41q0 30 21 51t51 21t50.5 -21t20.5 -51q0 -31 -21 -51.5t-50 -20.5q-30 0 -51 21t-21 51z" />
<glyph unicode="/" horiz-adv-x="886" d="M37 0l733 1434h80l-733 -1434h-80z" />
<glyph unicode="0" horiz-adv-x="1515" d="M98 717q0 161 46 298t130 236t208.5 155t275.5 56q201 0 351.5 -96.5t229 -265t78.5 -383.5t-78.5 -383.5t-229 -265.5t-351.5 -97t-352 97t-229.5 265.5t-78.5 383.5zM180 717q0 -196 66.5 -346t198.5 -237t313 -87q180 0 312 87t198.5 237t66.5 346t-66.5 346 t-198 236.5t-312.5 86.5t-313 -86.5t-198.5 -236.5t-66.5 -346z" />
<glyph unicode="1" horiz-adv-x="782" d="M98 1020l426 414h54v-1434h-82v1251l4 62l-33 -37l-320 -303z" />
<glyph unicode="2" horiz-adv-x="1200" d="M96 1087q55 193 188 284t324 91q206 0 337.5 -124.5t131.5 -315.5q0 -268 -274 -485l-588 -461h860v-76h-969v76l691 559q82 68 140 171.5t58 213.5q0 162 -108.5 264t-278.5 102q-172 0 -282.5 -81t-151.5 -236z" />
<glyph unicode="3" horiz-adv-x="1204" d="M98 389l72 21q20 -165 145 -264t306 -99q199 0 301 103.5t102 259.5q0 70 -28 124.5t-71 86.5t-100 52.5t-109 28t-104 7.5h-129v73h129q106 0 186 28.5t124.5 75.5t66 99.5t21.5 108.5q0 38 -11.5 76t-40 78t-71.5 70t-112.5 49t-156.5 19q-336 0 -415 -321l-72 20 q39 176 167 276.5t320 100.5q101 0 183 -22.5t135.5 -58.5t89 -85t51 -99t15.5 -103q0 -82 -42.5 -161t-119 -131t-164.5 -52q147 0 243.5 -102t96.5 -238q0 -201 -136 -320t-349 -119q-203 0 -349.5 114.5t-173.5 303.5z" />
<glyph unicode="4" horiz-adv-x="1267" d="M98 410v75l824 949h53v-949h170v-75h-170v-410h-82v410h-795zM195 485h698v772l2 37l-29 -37z" />
<glyph unicode="5" horiz-adv-x="1234" d="M96 412l76 20q23 -183 140 -284t309 -101q179 0 294 115t115 293q0 177 -114.5 290t-294.5 113q-295 0 -390 -213l-69 23l123 766h743v-76h-682l-92 -574q38 61 134.5 105.5t232.5 44.5q213 0 352 -135t139 -344t-138.5 -346.5t-350.5 -137.5q-219 0 -359 121.5 t-168 319.5z" />
<glyph unicode="6" horiz-adv-x="1232" d="M98 463q0 124 39 229t131 226l394 516h92l-498 -652q126 162 360 162q226 0 372.5 -136t146.5 -345q0 -213 -147 -352.5t-372 -139.5t-371.5 139.5t-146.5 352.5zM180 463q0 -187 119.5 -301.5t316.5 -114.5q194 0 314 114.5t123 301.5q3 183 -117 294t-320 111 q-197 0 -316.5 -111t-119.5 -294z" />
<glyph unicode="7" horiz-adv-x="1114" d="M94 1358v76h983v-56l-774 -1378h-86l731 1298l45 64l-65 -4h-834z" />
<glyph unicode="8" horiz-adv-x="1253" d="M98 391q0 99 54 185.5t140.5 136t180.5 49.5q-28 0 -66.5 12.5t-81.5 39.5t-79.5 64.5t-60 93t-23.5 118.5q0 157 130 264.5t335 107.5t335 -107.5t130 -264.5q0 -63 -24 -118.5t-60 -93t-79 -64.5t-82 -39.5t-67 -12.5q94 0 180.5 -49.5t140.5 -136t54 -185.5 q0 -189 -145 -303.5t-383 -116.5q-238 2 -383.5 116.5t-145.5 303.5zM180 391q0 -157 123 -249.5t324 -94.5q201 2 323.5 94.5t122.5 249.5q0 150 -123 242t-323 92t-323.5 -92t-123.5 -242zM244 1090q0 -125 99 -210.5t284 -84.5q94 1 169 25t120.5 65.5t69.5 93.5t24 111 q0 128 -103.5 212t-279.5 84t-279.5 -84t-103.5 -212z" />
<glyph unicode="9" horiz-adv-x="1247" d="M98 967q0 148 69 261t188.5 173.5t269.5 60.5q231 0 377.5 -130t146.5 -365q0 -129 -67.5 -268t-233.5 -334l-313 -365h-93l555 651q-139 -164 -372 -164q-120 0 -220 37t-167 101.5t-103.5 152.5t-36.5 189zM180 967q0 -104 37 -183.5t101 -126.5t141.5 -70.5 t165.5 -23.5q124 0 222.5 44.5t159 137.5t60.5 222q0 88 -24 159.5t-64.5 119t-97.5 80t-120.5 46.5t-135.5 14q-88 0 -165.5 -24.5t-141.5 -73t-101 -131.5t-37 -190z" />
<glyph unicode=":" horiz-adv-x="389" d="M123 41q0 30 21 51t51 21t50.5 -21t20.5 -51q0 -31 -21 -51.5t-50 -20.5q-30 0 -51 21t-21 51zM123 696q0 30 21 51t51 21t50.5 -21t20.5 -51t-20.5 -50.5t-50.5 -20.5q-31 0 -51.5 20.5t-20.5 50.5z" />
<glyph unicode=";" horiz-adv-x="415" d="M94 -272q96 107 96 233l15 8l-15 2q-28 -3 -51.5 17t-23.5 55q0 33 21.5 52.5t53.5 19.5q31 0 52.5 -26.5t21.5 -65.5q0 -84 -36.5 -160.5t-86.5 -134.5h-47zM115 696q0 30 20.5 51t50.5 21t51 -21t21 -51t-21 -50.5t-51 -20.5t-50.5 20.5t-20.5 50.5z" />
<glyph unicode="&#x3c;" horiz-adv-x="1370" d="M205 752l827 -502h133l-825 502l825 499h-133z" />
<glyph unicode="=" horiz-adv-x="1345" d="M205 528v72h936v-72h-936zM205 856v72h936v-72h-936z" />
<glyph unicode="&#x3e;" horiz-adv-x="1370" d="M205 250l825 502l-825 499h133l827 -499l-827 -502h-133z" />
<glyph unicode="?" horiz-adv-x="1157" d="M98 1085q39 180 170 278.5t326 98.5q101 0 182 -22.5t133 -60t86.5 -88.5t49 -105t14.5 -113q0 -73 -29 -137t-72.5 -109.5t-109.5 -87.5t-125 -69t-133 -54v-135h-82v176q259 99 364 193t105 223q0 45 -10.5 86.5t-37.5 83.5t-69 73t-110.5 50.5t-155.5 19.5 q-182 0 -285 -82.5t-141 -238.5zM508 0v322h82v-322h-82z" />
<glyph unicode="@" horiz-adv-x="1619" d="M98 727q0 156 54 292.5t147.5 233.5t226 153t283.5 56q152 0 284.5 -56t226.5 -153t148 -233.5t54 -292.5q0 -177 -70.5 -289t-187.5 -112q-77 0 -132 50t-61 128q-29 -83 -107 -130.5t-180 -47.5q-161 0 -265.5 109t-104.5 278q0 183 104.5 302.5t265.5 119.5 q56 0 105 -11.5t81.5 -28.5t56 -36t34 -34.5t10.5 -23.5v93h66v-576q0 -59 37 -99t90 -40q88 0 140 96.5t52 251.5q0 193 -83.5 348.5t-231.5 243.5t-332 88t-331.5 -88t-230.5 -243.5t-83 -348.5q0 -144 49 -273t133.5 -223t205 -149t257.5 -55q95 0 175.5 16t128.5 39.5 t81 46.5t49 39t17 16l49 -30q-10 -12 -22 -24.5t-57 -44t-96 -54t-138.5 -41.5t-186.5 -19q-201 0 -364.5 101t-255 274t-91.5 381zM485 713q0 -142 84 -233t215 -91t209 91t78 239v125q0 99 -82 163t-205 64q-131 0 -215 -100t-84 -258z" />
<glyph unicode="A" horiz-adv-x="1593" d="M37 0l741 1434h37l741 -1434h-86l-229 444h-889l-229 -444h-86zM391 520h811l-393 762l-12 33l-13 -33z" />
<glyph unicode="B" horiz-adv-x="1312" d="M205 0v1434h497q183 0 294.5 -93.5t111.5 -248.5q0 -108 -81 -195.5t-181 -103.5q57 0 119.5 -26t117.5 -71.5t91 -118.5t36 -157q0 -191 -124.5 -305.5t-329.5 -114.5h-551zM287 76h469q161 0 267.5 91t106.5 245q0 144 -114.5 240t-274.5 96h-454v-672zM287 823h403 q153 0 245.5 73.5t92.5 195.5q0 123 -92 194.5t-246 71.5h-403v-535z" />
<glyph unicode="C" horiz-adv-x="1566" d="M98 717q0 159 58.5 298t158.5 237t237 154t290 56q208 0 380.5 -100t270.5 -272l-84 -23q-86 149 -235 234t-332 85q-138 0 -259.5 -48.5t-210.5 -135t-140.5 -212.5t-51.5 -273q0 -145 51.5 -270.5t140 -213t210.5 -137t260 -49.5q195 0 353 97.5t241 263.5l77 -23 q-91 -192 -269.5 -303t-401.5 -111q-153 0 -290 56.5t-237 154t-158.5 237t-58.5 298.5z" />
<glyph unicode="D" horiz-adv-x="1640" d="M205 0v1434h594q153 0 289 -53.5t236.5 -147.5t159 -230t58.5 -294q0 -205 -98.5 -368.5t-263 -252t-361.5 -88.5h-614zM287 76h532q130 0 246 44.5t204 124t139.5 200t51.5 264.5q0 194 -89 343.5t-238.5 227.5t-333.5 78h-512v-1282z" />
<glyph unicode="E" horiz-adv-x="1255" d="M205 0v1434h915v-76h-833v-547h678v-76h-678v-659h846v-76h-928z" />
<glyph unicode="F" horiz-adv-x="1198" d="M205 0v1434h895v-76h-813v-586h657v-76h-657v-696h-82z" />
<glyph unicode="G" horiz-adv-x="1632" d="M98 717q0 159 58.5 298t158.5 237t237 154t290 56q223 -7 389.5 -105.5t261.5 -266.5l-80 -21q-85 148 -236 232.5t-335 84.5q-138 0 -259.5 -48.5t-210.5 -135t-140.5 -212.5t-51.5 -273q0 -145 51.5 -270.5t140 -213t210.5 -137t260 -49.5q109 0 212 31.5t177.5 81 t127.5 103.5t77 106v262h-467v76h540v-711h-73v266q-22 -31 -50.5 -62.5t-83.5 -75t-117.5 -75.5t-153 -55t-189.5 -23q-153 0 -290 56.5t-237 154t-158.5 237t-58.5 298.5z" />
<glyph unicode="H" horiz-adv-x="1478" d="M205 0v1434h82v-641h905v641h82v-1434h-82v717h-905v-717h-82z" />
<glyph unicode="I" horiz-adv-x="491" d="M205 0v1434h82v-1434h-82z" />
<glyph unicode="J" horiz-adv-x="1318" d="M20 385l80 21q35 -165 167.5 -263t310.5 -98q244 0 369.5 136.5t125.5 383.5v869h82v-861q0 -285 -148 -444.5t-429 -159.5q-211 0 -363.5 116t-194.5 300z" />
<glyph unicode="K" horiz-adv-x="1368" d="M205 0v1434h82v-818l823 818h96l-573 -576l653 -858h-96l-612 805l-291 -291v-514h-82z" />
<glyph unicode="L" horiz-adv-x="1140" d="M205 0v1434h82v-1358h813v-76h-895z" />
<glyph unicode="M" horiz-adv-x="1687" d="M205 0v1434h76l546 -940l17 -37l16 37l547 940h76v-1434h-82v1229l4 69l-31 -69l-510 -877h-41l-510 877l-30 65l4 -65v-1229h-82z" />
<glyph unicode="N" horiz-adv-x="1593" d="M233 0v1434h76l946 -1256l27 -45l-4 64v1237h82v-1434h-76l-944 1260l-29 40l4 -61v-1239h-82z" />
<glyph unicode="O" d="M98 717q0 159 58.5 298t158.5 237t237 154t290 56t290 -56t237 -154t159 -237t59 -298q0 -212 -100 -383.5t-270.5 -267t-374.5 -95.5q-153 0 -290 56.5t-237 154t-158.5 237t-58.5 298.5zM180 717q0 -145 51.5 -270.5t140 -213t210.5 -137t260 -49.5q137 0 259 49.5 t211 136.5t141 213t52 271q0 196 -89 350t-239.5 236.5t-334.5 82.5q-138 0 -259.5 -48.5t-210.5 -135t-140.5 -212.5t-51.5 -273z" />
<glyph unicode="P" horiz-adv-x="1173" d="M205 0v1434h389q243 0 380.5 -117.5t137.5 -323.5t-137.5 -323t-380.5 -117h-307v-553h-82zM287 629h307q211 0 323.5 96.5t112.5 267.5q0 176 -116 270.5t-320 94.5h-307v-729z" />
<glyph unicode="Q" d="M98 717q0 159 58.5 298t158.5 237t237 154t290 56t290 -56t237 -154t159 -237t59 -298q0 -207 -96 -375.5t-259 -265.5t-360 -105v-241h-81v243q-144 9 -271.5 69t-220.5 156.5t-147 231.5t-54 287zM180 717q0 -145 51.5 -270.5t140 -213t210.5 -137t260 -49.5 q137 0 259 49.5t211 136.5t141 213t52 271q0 196 -89 350t-239.5 236.5t-334.5 82.5q-138 0 -259.5 -48.5t-210.5 -135t-140.5 -212.5t-51.5 -273z" />
<glyph unicode="R" horiz-adv-x="1261" d="M205 0v1434h389q242 0 380 -115.5t138 -317.5q0 -157 -84.5 -262t-239.5 -147l371 -592h-94l-363 575q-53 -6 -108 -6h-307v-569h-82zM287 645h307q211 0 323.5 94.5t112.5 261.5q0 172 -116 264.5t-320 92.5h-307v-713z" />
<glyph unicode="S" horiz-adv-x="1202" d="M88 389l76 21q9 -156 126.5 -260.5t313.5 -104.5q191 0 307.5 93t116.5 237q0 49 -15.5 91t-40 73t-62 58t-75.5 45.5t-85.5 35t-87.5 28t-86 23.5q-31 8 -46 12q-164 45 -237 84q-178 93 -178 267q0 165 136 267.5t345 102.5q192 0 326 -102.5t163 -276.5l-73 -20 q-23 150 -137.5 239t-278.5 89q-178 0 -288.5 -78.5t-110.5 -220.5q0 -53 23.5 -95.5t58.5 -70t91 -51.5t106 -39t118 -33l24 -6q172 -47 245 -79q225 -102 245 -301q2 -20 2 -42q0 -175 -140 -289.5t-366 -114.5q-225 0 -362.5 119t-153.5 299z" />
<glyph unicode="T" horiz-adv-x="1198" d="M57 1358v76h1084v-76h-502v-1358h-82v1358h-500z" />
<glyph unicode="U" horiz-adv-x="1482" d="M164 573v861h82v-867q0 -247 126.5 -384.5t368.5 -137.5q243 0 369.5 137.5t126.5 384.5v867h82v-861q0 -284 -148.5 -444t-429.5 -160q-280 0 -428.5 160t-148.5 444z" />
<glyph unicode="V" horiz-adv-x="1548" d="M37 1434h90l635 -1282l12 -33l12 33l635 1282h90l-712 -1434h-49z" />
<glyph unicode="W" horiz-adv-x="1974" d="M37 1434h86l491 -1262l11 -39l10 39l332 946h41l333 -946l9 -37l8 37l493 1262h86l-565 -1434h-49l-328 920l-8 32l-8 -32l-330 -920h-47z" />
<glyph unicode="X" horiz-adv-x="1347" d="M41 0l582 750l-529 684h103l471 -623l6 -14l6 14l471 623h102l-528 -684l582 -750h-103l-524 678l-6 14l-6 -14l-525 -678h-102z" />
<glyph unicode="Y" horiz-adv-x="1318" d="M41 1434h96l498 -596l24 -37l25 37l498 596h96l-578 -697v-737h-82v737z" />
<glyph unicode="Z" horiz-adv-x="1390" d="M123 0v72l1010 1249l41 41l-62 -4h-969v76h1125v-72l-1008 -1245l-45 -45l61 4h992v-76h-1145z" />
<glyph unicode="[" horiz-adv-x="643" d="M205 -311v2064h356v-72h-274v-1921h274v-71h-356z" />
<glyph unicode="\" horiz-adv-x="886" d="M37 1434l733 -1434h80l-733 1434h-80z" />
<glyph unicode="]" horiz-adv-x="671" d="M111 -240v-71h356v2064h-356v-72h274v-1921h-274z" />
<glyph unicode="^" horiz-adv-x="1368" d="M205 977l479 481l479 -481l-57 -57l-422 432l-422 -432z" />
<glyph unicode="_" horiz-adv-x="1536" d="M205 0h1126v-72h-1126v72z" />
<glyph unicode="`" horiz-adv-x="614" d="M82 1737l35 61l413 -223l-30 -53z" />
<glyph unicode="a" horiz-adv-x="1593" d="M37 0l741 1434h37l741 -1434h-86l-229 444h-889l-229 -444h-86zM391 520h811l-393 762l-12 33l-13 -33z" />
<glyph unicode="b" horiz-adv-x="1312" d="M205 0v1434h497q183 0 294.5 -93.5t111.5 -248.5q0 -108 -81 -195.5t-181 -103.5q57 0 119.5 -26t117.5 -71.5t91 -118.5t36 -157q0 -191 -124.5 -305.5t-329.5 -114.5h-551zM287 76h469q161 0 267.5 91t106.5 245q0 144 -114.5 240t-274.5 96h-454v-672zM287 823h403 q153 0 245.5 73.5t92.5 195.5q0 123 -92 194.5t-246 71.5h-403v-535z" />
<glyph unicode="c" horiz-adv-x="1566" d="M98 717q0 159 58.5 298t158.5 237t237 154t290 56q208 0 380.5 -100t270.5 -272l-84 -23q-86 149 -235 234t-332 85q-138 0 -259.5 -48.5t-210.5 -135t-140.5 -212.5t-51.5 -273q0 -145 51.5 -270.5t140 -213t210.5 -137t260 -49.5q195 0 353 97.5t241 263.5l77 -23 q-91 -192 -269.5 -303t-401.5 -111q-153 0 -290 56.5t-237 154t-158.5 237t-58.5 298.5z" />
<glyph unicode="d" horiz-adv-x="1640" d="M205 0v1434h594q153 0 289 -53.5t236.5 -147.5t159 -230t58.5 -294q0 -205 -98.5 -368.5t-263 -252t-361.5 -88.5h-614zM287 76h532q130 0 246 44.5t204 124t139.5 200t51.5 264.5q0 194 -89 343.5t-238.5 227.5t-333.5 78h-512v-1282z" />
<glyph unicode="e" horiz-adv-x="1255" d="M205 0v1434h915v-76h-833v-547h678v-76h-678v-659h846v-76h-928z" />
<glyph unicode="f" horiz-adv-x="1198" d="M205 0v1434h895v-76h-813v-586h657v-76h-657v-696h-82z" />
<glyph unicode="g" horiz-adv-x="1632" d="M98 717q0 159 58.5 298t158.5 237t237 154t290 56q223 -7 389.5 -105.5t261.5 -266.5l-80 -21q-85 148 -236 232.5t-335 84.5q-138 0 -259.5 -48.5t-210.5 -135t-140.5 -212.5t-51.5 -273q0 -145 51.5 -270.5t140 -213t210.5 -137t260 -49.5q109 0 212 31.5t177.5 81 t127.5 103.5t77 106v262h-467v76h540v-711h-73v266q-22 -31 -50.5 -62.5t-83.5 -75t-117.5 -75.5t-153 -55t-189.5 -23q-153 0 -290 56.5t-237 154t-158.5 237t-58.5 298.5z" />
<glyph unicode="h" horiz-adv-x="1478" d="M205 0v1434h82v-641h905v641h82v-1434h-82v717h-905v-717h-82z" />
<glyph unicode="i" horiz-adv-x="491" d="M205 0v1434h82v-1434h-82z" />
<glyph unicode="j" horiz-adv-x="1318" d="M20 385l80 21q35 -165 167.5 -263t310.5 -98q244 0 369.5 136.5t125.5 383.5v869h82v-861q0 -285 -148 -444.5t-429 -159.5q-211 0 -363.5 116t-194.5 300z" />
<glyph unicode="k" horiz-adv-x="1368" d="M205 0v1434h82v-818l823 818h96l-573 -576l653 -858h-96l-612 805l-291 -291v-514h-82z" />
<glyph unicode="l" horiz-adv-x="1140" d="M205 0v1434h82v-1358h813v-76h-895z" />
<glyph unicode="m" horiz-adv-x="1687" d="M205 0v1434h76l546 -940l17 -37l16 37l547 940h76v-1434h-82v1229l4 69l-31 -69l-510 -877h-41l-510 877l-30 65l4 -65v-1229h-82z" />
<glyph unicode="n" horiz-adv-x="1536" d="M233 0v1434h76l946 -1256l27 -45l-4 64v1237h82v-1434h-76l-944 1260l-29 40l4 -61v-1239h-82z" />
<glyph unicode="o" d="M98 717q0 159 58.5 298t158.5 237t237 154t290 56t290 -56t237 -154t159 -237t59 -298q0 -212 -100 -383.5t-270.5 -267t-374.5 -95.5q-153 0 -290 56.5t-237 154t-158.5 237t-58.5 298.5zM180 717q0 -145 51.5 -270.5t140 -213t210.5 -137t260 -49.5q137 0 259 49.5 t211 136.5t141 213t52 271q0 196 -89 350t-239.5 236.5t-334.5 82.5q-138 0 -259.5 -48.5t-210.5 -135t-140.5 -212.5t-51.5 -273z" />
<glyph unicode="p" horiz-adv-x="1173" d="M205 0v1434h389q243 0 380.5 -117.5t137.5 -323.5t-137.5 -323t-380.5 -117h-307v-553h-82zM287 629h307q211 0 323.5 96.5t112.5 267.5q0 176 -116 270.5t-320 94.5h-307v-729z" />
<glyph unicode="q" d="M98 717q0 159 58.5 298t158.5 237t237 154t290 56t290 -56t237 -154t159 -237t59 -298q0 -207 -96 -375.5t-259 -265.5t-360 -105v-241h-81v243q-144 9 -271.5 69t-220.5 156.5t-147 231.5t-54 287zM180 717q0 -145 51.5 -270.5t140 -213t210.5 -137t260 -49.5 q137 0 259 49.5t211 136.5t141 213t52 271q0 196 -89 350t-239.5 236.5t-334.5 82.5q-138 0 -259.5 -48.5t-210.5 -135t-140.5 -212.5t-51.5 -273z" />
<glyph unicode="r" horiz-adv-x="1261" d="M205 0v1434h389q242 0 380 -115.5t138 -317.5q0 -157 -84.5 -262t-239.5 -147l371 -592h-94l-363 575q-53 -6 -108 -6h-307v-569h-82zM287 645h307q211 0 323.5 94.5t112.5 261.5q0 172 -116 264.5t-320 92.5h-307v-713z" />
<glyph unicode="s" horiz-adv-x="1202" d="M88 389l76 21q9 -156 126.5 -260.5t313.5 -104.5q191 0 307.5 93t116.5 237q0 49 -15.5 91t-40 73t-62 58t-75.5 45.5t-85.5 35t-87.5 28t-86 23.5q-31 8 -46 12q-164 45 -237 84q-178 93 -178 267q0 165 136 267.5t345 102.5q192 0 326 -102.5t163 -276.5l-73 -20 q-23 150 -137.5 239t-278.5 89q-178 0 -288.5 -78.5t-110.5 -220.5q0 -53 23.5 -95.5t58.5 -70t91 -51.5t106 -39t118 -33l24 -6q172 -47 245 -79q225 -102 245 -301q2 -20 2 -42q0 -175 -140 -289.5t-366 -114.5q-225 0 -362.5 119t-153.5 299z" />
<glyph unicode="t" horiz-adv-x="1198" d="M57 1358v76h1084v-76h-502v-1358h-82v1358h-500z" />
<glyph unicode="u" horiz-adv-x="1482" d="M164 573v861h82v-867q0 -247 126.5 -384.5t368.5 -137.5q243 0 369.5 137.5t126.5 384.5v867h82v-861q0 -284 -148.5 -444t-429.5 -160q-280 0 -428.5 160t-148.5 444z" />
<glyph unicode="v" horiz-adv-x="1548" d="M37 1434h90l635 -1282l12 -33l12 33l635 1282h90l-712 -1434h-49z" />
<glyph unicode="w" horiz-adv-x="1974" d="M37 1434h86l491 -1262l11 -39l10 39l332 946h41l333 -946l9 -37l8 37l493 1262h86l-565 -1434h-49l-328 920l-8 32l-8 -32l-330 -920h-47z" />
<glyph unicode="x" horiz-adv-x="1347" d="M41 0l582 750l-529 684h103l471 -623l6 -14l6 14l471 623h102l-528 -684l582 -750h-103l-524 678l-6 14l-6 -14l-525 -678h-102z" />
<glyph unicode="y" horiz-adv-x="1318" d="M41 1434h96l498 -596l24 -37l25 37l498 596h96l-578 -697v-737h-82v737z" />
<glyph unicode="z" horiz-adv-x="1390" d="M123 0v72l1010 1249l41 41l-62 -4h-969v76h1125v-72l-1008 -1245l-45 -45l61 4h992v-76h-1145z" />
<glyph unicode="{" horiz-adv-x="733" d="M205 721q5 2 14 6t31.5 25.5t40 53t31.5 92.5t14 138v279q0 438 356 438v-72q-274 0 -274 -335v-302q0 -78 -11 -140t-25.5 -95t-32 -54.5t-28 -27.5t-14.5 -6q4 0 14.5 -6.5t28 -28.5t32 -55t25.5 -95.5t11 -140.5v-299q0 -97 23 -165.5t63.5 -104.5t86 -51t101.5 -15 v-71q-356 0 -356 438v279q0 56 -7 104t-19 79.5t-26 56.5t-27.5 38.5t-25.5 22t-19 11.5z" />
<glyph unicode="|" horiz-adv-x="479" d="M205 -152v1739h69v-1739h-69z" />
<glyph unicode="}" horiz-adv-x="761" d="M70 -240v-71q356 0 356 438v279q0 56 7 104t19 79.5t26 56.5t27.5 38.5t25.5 22t19 11.5l7 3q-5 2 -14 6t-31.5 25.5t-40 53t-31.5 92.5t-14 138v279q0 438 -356 438v-72q274 0 274 -335v-302q0 -78 11 -140t25.5 -95t32 -54.5t28 -27.5t14.5 -6q-4 0 -14.5 -6.5 t-28 -28.5t-32 -55t-25.5 -95.5t-11 -140.5v-299q0 -97 -23 -165.5t-63.5 -104.5t-86 -51t-101.5 -15z" />
<glyph unicode="~" horiz-adv-x="913" d="M98 678q12 75 67.5 122.5t137.5 47.5q41 0 78.5 -16.5t64.5 -39.5t52.5 -46t54.5 -39.5t59 -16.5q55 0 92.5 34t40.5 87l70 -18q-9 -74 -64.5 -122t-138.5 -48q-39 0 -75.5 16t-64 39.5t-53.5 46.5t-56 39t-60 16q-57 0 -93 -33.5t-42 -87.5z" />
<glyph unicode="&#xa1;" horiz-adv-x="491" d="M205 0v952h82v-952h-82zM205 1112v322h82v-322h-82z" />
<glyph unicode="&#xa2;" horiz-adv-x="1148" d="M98 721q0 215 141.5 363.5t346.5 160.5v213h67v-211q140 -9 253.5 -80t174.5 -188l-67 -21q-58 104 -161 161t-232 57q-193 0 -318 -125.5t-125 -329.5q0 -202 125.5 -328.5t317.5 -126.5q137 0 245.5 65t163.5 181l66 -20q-59 -129 -176.5 -208.5t-266.5 -88.5v-220h-67 v222q-205 12 -346.5 160.5t-141.5 363.5z" />
<glyph unicode="&#xa3;" horiz-adv-x="1454" d="M205 0v76q72 15 119 54t69 99.5t28 142.5t-5 183l-15 152h-196v75h190l-20 230q-17 193 96 319t303 131q74 2 140.5 -15.5t130 -58.5t113.5 -117.5t77 -183.5l-74 -22q-51 181 -149 253.5t-244 67.5q-154 -5 -241 -108t-74 -264l20 -232h510v-75h-504l15 -152 q19 -204 -21 -324.5t-121 -154.5h897v-76h-1044z" />
<glyph unicode="&#xa4;" horiz-adv-x="1323" d="M98 207l158 160q-121 143 -121 333q0 207 141 361l-147 147l47 47l152 -149q146 123 334 123q189 0 335 -121l150 147l47 -47l-147 -147q67 -72 105 -165.5t38 -195.5q0 -189 -121 -335l156 -158l-47 -47l-156 155q-153 -143 -360 -143q-205 0 -361 143l-156 -155z M211 700q0 -190 131.5 -324t319.5 -134q125 0 229 61.5t163.5 167t59.5 229.5q0 190 -131.5 324.5t-320.5 134.5q-188 0 -319.5 -134.5t-131.5 -324.5z" />
<glyph unicode="&#xa5;" horiz-adv-x="1318" d="M41 1434h96l498 -596l24 -37l25 37l498 596h96l-506 -611h354v-69h-411l-15 -17v-73h426v-70h-426v-594h-82v594h-401v70h401v73l-14 17h-387v69h330z" />
<glyph unicode="&#xa6;" horiz-adv-x="479" d="M205 -152v594h69v-594h-69zM205 1014v573h69v-573h-69z" />
<glyph unicode="&#xa8;" horiz-adv-x="761" d="M41 1638q0 30 21 51t53 21q31 0 52 -21t21 -51q0 -32 -21 -53.5t-52 -21.5q-32 0 -53 21.5t-21 53.5zM489 1638q0 29 21.5 50.5t52.5 21.5q32 0 53 -21t21 -51q0 -32 -21 -53.5t-53 -21.5q-31 0 -52.5 21.5t-21.5 53.5z" />
<glyph unicode="&#xa9;" d="M98 717q0 159 58.5 298t158.5 237t237 154t290 56t290 -56t237 -154t159 -237t59 -298q0 -212 -100 -383.5t-270.5 -267t-374.5 -95.5q-153 0 -290 56.5t-237 154t-158.5 237t-58.5 298.5zM164 717q0 -200 90 -357.5t244 -243t344 -85.5q189 0 343.5 85.5t245.5 243 t91 357.5q0 202 -91 360t-245.5 242t-343.5 84q-142 0 -266.5 -49.5t-215.5 -137.5t-143.5 -217.5t-52.5 -281.5zM487 713q0 160 103.5 264t261.5 104q98 0 188 -53t131 -135l-47 -16q-37 67 -113.5 110t-158.5 43q-135 0 -222 -89.5t-87 -227.5t87 -228t222 -90 q88 0 168 49.5t115 124.5l49 -16q-40 -91 -134 -150t-198 -59q-158 0 -261.5 104.5t-103.5 264.5z" />
<glyph unicode="&#xaa;" horiz-adv-x="802" d="M41 618v54h721v-54h-721zM41 768l352 682h17l352 -682h-64l-96 190h-401l-97 -190h-63zM227 1012h348l-165 325l-9 23l-8 -23z" />
<glyph unicode="&#xab;" horiz-adv-x="1488" d="M262 723l481 -479l45 49l-440 428l440 432l-45 49zM815 723l481 -479l45 49l-440 428l440 432l-45 49z" />
<glyph unicode="&#xad;" horiz-adv-x="778" d="M82 692v72h614v-72h-614z" />
<glyph unicode="&#xae;" d="M98 717q0 159 58.5 298t158.5 237t237 154t290 56t290 -56t237 -154t159 -237t59 -298q0 -212 -100 -383.5t-270.5 -267t-374.5 -95.5q-153 0 -290 56.5t-237 154t-158.5 237t-58.5 298.5zM164 717q0 -200 90 -357.5t244 -243t344 -85.5q189 0 343.5 85.5t245.5 243 t91 357.5q0 202 -91 360t-245.5 242t-343.5 84q-142 0 -266.5 -49.5t-215.5 -137.5t-143.5 -217.5t-52.5 -281.5zM635 344v746h213q126 0 197 -59.5t71 -164.5q0 -84 -43.5 -138t-124.5 -75l193 -309h-62l-188 299q-14 -2 -43 -2h-160v-297h-53zM688 692h160q217 0 217 174 q0 172 -217 172h-160v-346z" />
<glyph unicode="&#xaf;" horiz-adv-x="794" d="M41 1440v59h629v-59h-629z" />
<glyph unicode="&#xb0;" horiz-adv-x="555" d="M98 1407q0 75 51.5 126.5t126.5 51.5q74 0 127.5 -52t53.5 -126q0 -73 -53.5 -125.5t-127.5 -52.5q-75 0 -126.5 52t-51.5 126zM150 1407q0 -51 37 -89t89 -38t91 38t39 89q0 53 -38.5 90t-91.5 37t-89.5 -36.5t-36.5 -90.5z" />
<glyph unicode="&#xb1;" horiz-adv-x="1345" d="M205 -20v71h936v-71h-936zM205 692v72h457v428h81v-428h398v-72h-400v-424h-82v424h-454z" />
<glyph unicode="&#xb4;" horiz-adv-x="614" d="M20 1575l414 223l35 -61l-418 -215z" />
<glyph unicode="&#xb7;" horiz-adv-x="389" d="M123 696q0 30 21 51t51 21t50.5 -21t20.5 -51t-20.5 -50.5t-50.5 -20.5q-31 0 -51.5 20.5t-20.5 50.5z" />
<glyph unicode="&#xb8;" horiz-adv-x="464" d="M41 -444l25 57h71q63 0 102.5 31.5t39.5 83.5q0 54 -39.5 87t-102.5 33h-86l55 152h64l-37 -96q94 2 150.5 -46t56.5 -130q0 -77 -56 -124.5t-147 -47.5h-96z" />
<glyph unicode="&#xba;" horiz-adv-x="743" d="M20 1106q0 152 101.5 252t249.5 100t250 -100t102 -252q0 -151 -102 -250.5t-250 -99.5t-249.5 99.5t-101.5 250.5zM41 618v54h661v-54h-661zM80 1106q0 -127 82.5 -210t208.5 -83t208.5 83t82.5 210q0 129 -82.5 212t-208.5 83t-208.5 -83t-82.5 -212z" />
<glyph unicode="&#xbb;" horiz-adv-x="1488" d="M176 293l440 428l-440 432l45 49l481 -479l-481 -479zM729 293l440 428l-440 432l45 49l481 -479l-481 -479z" />
<glyph unicode="&#xbf;" horiz-adv-x="1157" d="M98 360q0 73 29 137t72.5 109.5t109.5 87.5t125 69t133 54v135h82v-176q-259 -99 -364 -193t-105 -223q0 -45 10.5 -86.5t37.5 -83.5t69 -73t110.5 -50.5t155.5 -19.5q347 0 426 322l70 -21q-39 -180 -170 -278.5t-326 -98.5q-101 0 -182 22.5t-133 60t-86.5 88.5 t-49 105t-14.5 113zM567 1112v322h82v-322h-82z" />
<glyph unicode="&#xc0;" horiz-adv-x="1593" d="M37 0l741 1434h37l741 -1434h-86l-229 444h-889l-229 -444h-86zM391 520h811l-393 762l-12 33l-13 -33zM494 1737l34 61l414 -223l-31 -53z" />
<glyph unicode="&#xc1;" horiz-adv-x="1593" d="M37 0l741 1434h37l741 -1434h-86l-229 444h-889l-229 -444h-86zM391 520h811l-393 762l-12 33l-13 -33zM625 1575l413 223l35 -61l-418 -215z" />
<glyph unicode="&#xc2;" horiz-adv-x="1593" d="M37 0l741 1434h37l741 -1434h-86l-229 444h-889l-229 -444h-86zM391 520h811l-393 762l-12 33l-13 -33zM487 1581l308 260l307 -260l-43 -45l-264 225l-265 -225z" />
<glyph unicode="&#xc3;" horiz-adv-x="1593" d="M37 0l741 1434h37l741 -1434h-86l-229 444h-889l-229 -444h-86zM391 520h811l-393 762l-12 33l-13 -33zM487 1581q0 69 50.5 114.5t126.5 45.5q39 0 77 -17.5t62.5 -39t55.5 -39t59 -17.5q44 0 74 29t32 72h70q2 -69 -48 -114.5t-128 -45.5q-36 0 -72 17.5t-61 38.5 t-58 38.5t-63 17.5q-46 0 -76.5 -28.5t-30.5 -71.5h-70z" />
<glyph unicode="&#xc4;" horiz-adv-x="1593" d="M37 0l741 1434h37l741 -1434h-86l-229 444h-889l-229 -444h-86zM391 520h811l-393 762l-12 33l-13 -33zM494 1638q0 30 20.5 51t52.5 21q31 0 52.5 -21.5t21.5 -50.5q0 -32 -21.5 -53.5t-52.5 -21.5q-32 0 -52.5 21.5t-20.5 53.5zM942 1638q0 29 21.5 50.5t52.5 21.5 q32 0 53 -21t21 -51q0 -32 -21 -53.5t-53 -21.5q-31 0 -52.5 21.5t-21.5 53.5z" />
<glyph unicode="&#xc5;" horiz-adv-x="1593" d="M37 0l723 1397q-62 12 -102 61t-40 113q0 75 52 126.5t127 51.5q74 0 127 -52t53 -126q0 -64 -40.5 -113t-102.5 -61l722 -1397h-86l-229 444h-889l-229 -444h-86zM391 520h811l-393 762l-12 33l-13 -33zM670 1571q0 -51 37.5 -89t89.5 -38t90.5 38t38.5 89q0 53 -38 90 t-91 37t-90 -36.5t-37 -90.5z" />
<glyph unicode="&#xc6;" horiz-adv-x="1959" d="M37 0l954 1434h834v-76h-752v-547h678v-76h-678v-659h764v-76h-846v451h-557l-299 -451h-98zM479 518h512v789l-41 -78z" />
<glyph unicode="&#xc7;" horiz-adv-x="1566" d="M98 717q0 159 58.5 298t158.5 237t237 154t290 56q208 0 380.5 -100t270.5 -272l-84 -23q-86 149 -235 234t-332 85q-138 0 -259.5 -48.5t-210.5 -135t-140.5 -212.5t-51.5 -273q0 -145 51.5 -270.5t140 -213t210.5 -137t260 -49.5q195 0 353 97.5t241 263.5l77 -23 q-91 -190 -268 -301.5t-397 -112.5l-27 -67q94 2 150.5 -46t56.5 -130q0 -77 -56 -124.5t-147 -47.5h-96l25 57h71q63 0 102.5 31.5t39.5 83.5q0 54 -39.5 87t-102.5 33h-86l45 125q-191 13 -347.5 111.5t-247.5 264.5t-91 368z" />
<glyph unicode="&#xc8;" horiz-adv-x="1255" d="M205 0v1434h915v-76h-833v-547h678v-76h-678v-659h846v-76h-928zM362 1737l35 61l414 -223l-31 -53z" />
<glyph unicode="&#xc9;" horiz-adv-x="1255" d="M205 0v1434h915v-76h-833v-547h678v-76h-678v-659h846v-76h-928zM494 1575l413 223l35 -61l-418 -215z" />
<glyph unicode="&#xca;" horiz-adv-x="1255" d="M205 0v1434h915v-76h-833v-547h678v-76h-678v-659h846v-76h-928zM356 1581l308 260l307 -260l-43 -45l-264 225l-265 -225z" />
<glyph unicode="&#xcb;" horiz-adv-x="1255" d="M205 0v1434h915v-76h-833v-547h678v-76h-678v-659h846v-76h-928zM362 1638q0 30 21 51t53 21q31 0 52.5 -21.5t21.5 -50.5q0 -32 -21.5 -53.5t-52.5 -21.5q-32 0 -53 21.5t-21 53.5zM811 1638q0 29 21.5 50.5t52.5 21.5q32 0 52.5 -21t20.5 -51q0 -32 -20.5 -53.5 t-52.5 -21.5q-31 0 -52.5 21.5t-21.5 53.5z" />
<glyph unicode="&#xcc;" horiz-adv-x="491" d="M-57 1737l34 61l414 -223l-31 -53zM205 0v1434h82v-1434h-82z" />
<glyph unicode="&#xcd;" horiz-adv-x="491" d="M74 1575l413 223l35 -61l-418 -215zM205 0v1434h82v-1434h-82z" />
<glyph unicode="&#xce;" horiz-adv-x="491" d="M-63 1581l307 260l307 -260l-43 -45l-264 225l-264 -225zM205 0v1434h82v-1434h-82z" />
<glyph unicode="&#xcf;" horiz-adv-x="491" d="M-57 1638q0 30 20.5 51t52.5 21q31 0 52.5 -21.5t21.5 -50.5q0 -32 -21.5 -53.5t-52.5 -21.5q-32 0 -52.5 21.5t-20.5 53.5zM205 0v1434h82v-1434h-82zM391 1638q0 29 21.5 50.5t52.5 21.5q32 0 53 -21t21 -51q0 -32 -21 -53.5t-53 -21.5q-31 0 -52.5 21.5t-21.5 53.5z " />
<glyph unicode="&#xd0;" horiz-adv-x="1640" d="M98 694v76h107v664h594q153 0 289 -53.5t236.5 -147.5t159 -230t58.5 -294q0 -205 -98.5 -368.5t-263 -252t-361.5 -88.5h-614v694h-107zM287 76h532q130 0 246 44.5t204 124t139.5 200t51.5 264.5q0 194 -89 343.5t-238.5 227.5t-333.5 78h-512v-588h436v-76h-436v-618z " />
<glyph unicode="&#xd1;" horiz-adv-x="1593" d="M233 0v1434h76l946 -1256l27 -45l-4 64v1237h82v-1434h-76l-944 1260l-29 40l4 -61v-1239h-82zM508 1581q0 69 50 114.5t126 45.5q39 0 77 -17.5t62.5 -39t55.5 -39t59 -17.5q44 0 74 29t32 72h70q2 -69 -48 -114.5t-128 -45.5q-36 0 -72 17.5t-61 38.5t-58 38.5 t-63 17.5q-46 0 -76 -28.5t-30 -71.5h-70z" />
<glyph unicode="&#xd2;" d="M98 717q0 159 58.5 298t158.5 237t237 154t290 56t290 -56t237 -154t159 -237t59 -298q0 -212 -100 -383.5t-270.5 -267t-374.5 -95.5q-153 0 -290 56.5t-237 154t-158.5 237t-58.5 298.5zM180 717q0 -145 51.5 -270.5t140 -213t210.5 -137t260 -49.5q137 0 259 49.5 t211 136.5t141 213t52 271q0 196 -89 350t-239.5 236.5t-334.5 82.5q-138 0 -259.5 -48.5t-210.5 -135t-140.5 -212.5t-51.5 -273zM549 1737l35 61l413 -223l-30 -53z" />
<glyph unicode="&#xd3;" d="M98 717q0 159 58.5 298t158.5 237t237 154t290 56t290 -56t237 -154t159 -237t59 -298q0 -212 -100 -383.5t-270.5 -267t-374.5 -95.5q-153 0 -290 56.5t-237 154t-158.5 237t-58.5 298.5zM180 717q0 -145 51.5 -270.5t140 -213t210.5 -137t260 -49.5q137 0 259 49.5 t211 136.5t141 213t52 271q0 196 -89 350t-239.5 236.5t-334.5 82.5q-138 0 -259.5 -48.5t-210.5 -135t-140.5 -212.5t-51.5 -273zM680 1575l414 223l34 -61l-417 -215z" />
<glyph unicode="&#xd4;" d="M98 717q0 159 58.5 298t158.5 237t237 154t290 56t290 -56t237 -154t159 -237t59 -298q0 -212 -100 -383.5t-270.5 -267t-374.5 -95.5q-153 0 -290 56.5t-237 154t-158.5 237t-58.5 298.5zM180 717q0 -145 51.5 -270.5t140 -213t210.5 -137t260 -49.5q137 0 259 49.5 t211 136.5t141 213t52 271q0 196 -89 350t-239.5 236.5t-334.5 82.5q-138 0 -259.5 -48.5t-210.5 -135t-140.5 -212.5t-51.5 -273zM543 1581l307 260l307 -260l-43 -45l-264 225l-264 -225z" />
<glyph unicode="&#xd5;" d="M98 717q0 159 58.5 298t158.5 237t237 154t290 56t290 -56t237 -154t159 -237t59 -298q0 -212 -100 -383.5t-270.5 -267t-374.5 -95.5q-153 0 -290 56.5t-237 154t-158.5 237t-58.5 298.5zM180 717q0 -145 51.5 -270.5t140 -213t210.5 -137t260 -49.5q137 0 259 49.5 t211 136.5t141 213t52 271q0 196 -89 350t-239.5 236.5t-334.5 82.5q-138 0 -259.5 -48.5t-210.5 -135t-140.5 -212.5t-51.5 -273zM543 1581q0 69 50 114.5t126 45.5q39 0 77 -17.5t62.5 -39t55.5 -39t59 -17.5q44 0 74 29t32 72h70q2 -69 -48 -114.5t-128 -45.5 q-35 0 -71.5 17.5t-61.5 38.5t-58 38.5t-63 17.5q-46 0 -76.5 -28.5t-30.5 -71.5h-69z" />
<glyph unicode="&#xd6;" d="M98 717q0 159 58.5 298t158.5 237t237 154t290 56t290 -56t237 -154t159 -237t59 -298q0 -212 -100 -383.5t-270.5 -267t-374.5 -95.5q-153 0 -290 56.5t-237 154t-158.5 237t-58.5 298.5zM180 717q0 -145 51.5 -270.5t140 -213t210.5 -137t260 -49.5q137 0 259 49.5 t211 136.5t141 213t52 271q0 196 -89 350t-239.5 236.5t-334.5 82.5q-138 0 -259.5 -48.5t-210.5 -135t-140.5 -212.5t-51.5 -273zM549 1638q0 30 21 51t53 21q31 0 52 -21t21 -51q0 -32 -21 -53.5t-52 -21.5q-32 0 -53 21.5t-21 53.5zM997 1638q0 29 21.5 50.5t52.5 21.5 q32 0 53 -21t21 -51q0 -32 -21 -53.5t-53 -21.5q-31 0 -52.5 21.5t-21.5 53.5z" />
<glyph unicode="&#xd7;" horiz-adv-x="1163" d="M205 416l325 325l-325 326l51 51l326 -325l325 325l51 -51l-325 -326l325 -325l-51 -51l-325 325l-326 -325z" />
<glyph unicode="&#xd8;" d="M98 717q0 159 58.5 298t158.5 237t237 154t290 56q234 0 420 -125l79 105l58 -43l-78 -105q125 -102 195.5 -251t70.5 -326q0 -212 -100 -383.5t-270.5 -267t-374.5 -95.5q-238 0 -428 129l-82 -108l-58 45l82 108q-121 102 -189.5 249.5t-68.5 322.5zM180 717 q0 -157 59 -289t164 -223l814 1073q-164 108 -375 108q-138 0 -259.5 -48.5t-210.5 -135t-140.5 -212.5t-51.5 -273zM461 162q165 -115 381 -115q137 0 259 49.5t211 136.5t141 213t52 271q0 162 -60.5 295t-168.5 223z" />
<glyph unicode="&#xd9;" horiz-adv-x="1482" d="M164 573v861h82v-867q0 -247 126.5 -384.5t368.5 -137.5q243 0 369.5 137.5t126.5 384.5v867h82v-861q0 -284 -148.5 -444t-429.5 -160q-280 0 -428.5 160t-148.5 444zM444 1737l35 61l414 -223l-31 -53z" />
<glyph unicode="&#xda;" horiz-adv-x="1482" d="M164 573v861h82v-867q0 -247 126.5 -384.5t368.5 -137.5q243 0 369.5 137.5t126.5 384.5v867h82v-861q0 -284 -148.5 -444t-429.5 -160q-280 0 -428.5 160t-148.5 444zM575 1575l414 223l35 -61l-418 -215z" />
<glyph unicode="&#xdb;" horiz-adv-x="1482" d="M164 573v861h82v-867q0 -247 126.5 -384.5t368.5 -137.5q243 0 369.5 137.5t126.5 384.5v867h82v-861q0 -284 -148.5 -444t-429.5 -160q-280 0 -428.5 160t-148.5 444zM438 1581l307 260l308 -260l-43 -45l-265 225l-264 -225z" />
<glyph unicode="&#xdc;" horiz-adv-x="1482" d="M164 573v861h82v-867q0 -247 126.5 -384.5t368.5 -137.5q243 0 369.5 137.5t126.5 384.5v867h82v-861q0 -284 -148.5 -444t-429.5 -160q-280 0 -428.5 160t-148.5 444zM444 1638q0 30 21 51t53 21q31 0 52.5 -21.5t21.5 -50.5q0 -32 -21.5 -53.5t-52.5 -21.5 q-32 0 -53 21.5t-21 53.5zM893 1638q0 29 21.5 50.5t52.5 21.5q32 0 52.5 -21t20.5 -51q0 -32 -20.5 -53.5t-52.5 -21.5q-31 0 -52.5 21.5t-21.5 53.5z" />
<glyph unicode="&#xdd;" horiz-adv-x="1318" d="M41 1434h96l498 -596l24 -37l25 37l498 596h96l-578 -697v-737h-82v737zM479 1575l414 223l35 -61l-418 -215z" />
<glyph unicode="&#xde;" horiz-adv-x="1198" d="M205 0v1434h82v-275h362q198 0 322.5 -124.5t124.5 -317.5q0 -189 -124.5 -309.5t-322.5 -120.5h-362v-287h-82zM287 362h362q163 0 264 99.5t101 255.5q0 101 -45 184t-129 132t-191 50h-362v-721z" />
<glyph unicode="&#xdf;" horiz-adv-x="1519" d="M205 0v1434h1073l-354 -627q230 0 363.5 -115t133.5 -303q0 -181 -129.5 -299.5t-330.5 -118.5q-157 0 -290.5 77t-195.5 208l76 23q56 -108 166 -171t244 -63q165 0 271.5 97t106.5 247q0 139 -97.5 235.5t-280.5 106.5h-121v76l297 518l28 37l-61 -4h-817v-1358h-82z " />
<glyph unicode="&#xe0;" horiz-adv-x="1593" d="M37 0l741 1434h37l741 -1434h-86l-229 444h-889l-229 -444h-86zM391 520h811l-393 762l-12 33l-13 -33zM494 1737l34 61l414 -223l-31 -53z" />
<glyph unicode="&#xe1;" horiz-adv-x="1593" d="M37 0l741 1434h37l741 -1434h-86l-229 444h-889l-229 -444h-86zM391 520h811l-393 762l-12 33l-13 -33zM625 1575l413 223l35 -61l-418 -215z" />
<glyph unicode="&#xe2;" horiz-adv-x="1593" d="M37 0l741 1434h37l741 -1434h-86l-229 444h-889l-229 -444h-86zM391 520h811l-393 762l-12 33l-13 -33zM487 1581l308 260l307 -260l-43 -45l-264 225l-265 -225z" />
<glyph unicode="&#xe3;" horiz-adv-x="1593" d="M37 0l741 1434h37l741 -1434h-86l-229 444h-889l-229 -444h-86zM391 520h811l-393 762l-12 33l-13 -33zM487 1581q0 69 50.5 114.5t126.5 45.5q39 0 77 -17.5t62.5 -39t55.5 -39t59 -17.5q44 0 74 29t32 72h70q2 -69 -48 -114.5t-128 -45.5q-36 0 -72 17.5t-61 38.5 t-58 38.5t-63 17.5q-46 0 -76.5 -28.5t-30.5 -71.5h-70z" />
<glyph unicode="&#xe4;" horiz-adv-x="1593" d="M37 0l741 1434h37l741 -1434h-86l-229 444h-889l-229 -444h-86zM391 520h811l-393 762l-12 33l-13 -33zM494 1638q0 30 20.5 51t52.5 21q31 0 52.5 -21.5t21.5 -50.5q0 -32 -21.5 -53.5t-52.5 -21.5q-32 0 -52.5 21.5t-20.5 53.5zM942 1638q0 29 21.5 50.5t52.5 21.5 q32 0 53 -21t21 -51q0 -32 -21 -53.5t-53 -21.5q-31 0 -52.5 21.5t-21.5 53.5z" />
<glyph unicode="&#xe5;" horiz-adv-x="1593" d="M37 0l723 1397q-62 12 -102 61t-40 113q0 75 52 126.5t127 51.5q74 0 127 -52t53 -126q0 -64 -40.5 -113t-102.5 -61l722 -1397h-86l-229 444h-889l-229 -444h-86zM391 520h811l-393 762l-12 33l-13 -33zM670 1571q0 -51 37.5 -89t89.5 -38t90.5 38t38.5 89q0 53 -38 90 t-91 37t-90 -36.5t-37 -90.5z" />
<glyph unicode="&#xe6;" horiz-adv-x="1959" d="M37 0l954 1434h834v-76h-752v-547h678v-76h-678v-659h764v-76h-846v451h-557l-299 -451h-98zM479 518h512v789l-41 -78z" />
<glyph unicode="&#xe7;" horiz-adv-x="1566" d="M98 717q0 159 58.5 298t158.5 237t237 154t290 56q208 0 380.5 -100t270.5 -272l-84 -23q-86 149 -235 234t-332 85q-138 0 -259.5 -48.5t-210.5 -135t-140.5 -212.5t-51.5 -273q0 -145 51.5 -270.5t140 -213t210.5 -137t260 -49.5q195 0 353 97.5t241 263.5l77 -23 q-91 -190 -268 -301.5t-397 -112.5l-27 -67q94 2 150.5 -46t56.5 -130q0 -77 -56 -124.5t-147 -47.5h-96l25 57h71q63 0 102.5 31.5t39.5 83.5q0 54 -39.5 87t-102.5 33h-86l45 125q-191 13 -347.5 111.5t-247.5 264.5t-91 368z" />
<glyph unicode="&#xe8;" horiz-adv-x="1255" d="M205 0v1434h915v-76h-833v-547h678v-76h-678v-659h846v-76h-928zM350 1737l35 61l414 -223l-31 -53z" />
<glyph unicode="&#xe9;" horiz-adv-x="1255" d="M205 0v1434h915v-76h-833v-547h678v-76h-678v-659h846v-76h-928zM481 1575l414 223l35 -61l-418 -215z" />
<glyph unicode="&#xea;" horiz-adv-x="1255" d="M205 0v1434h915v-76h-833v-547h678v-76h-678v-659h846v-76h-928zM344 1581l307 260l307 -260l-43 -45l-264 225l-264 -225z" />
<glyph unicode="&#xeb;" horiz-adv-x="1255" d="M205 0v1434h915v-76h-833v-547h678v-76h-678v-659h846v-76h-928zM350 1638q0 30 21 51t53 21q31 0 52.5 -21.5t21.5 -50.5q0 -32 -21.5 -53.5t-52.5 -21.5q-32 0 -53 21.5t-21 53.5zM799 1638q0 30 21.5 51t51.5 21q32 0 53 -21t21 -51q0 -32 -21 -53.5t-53 -21.5 q-31 0 -52 21.5t-21 53.5z" />
<glyph unicode="&#xec;" horiz-adv-x="491" d="M-57 1737l34 61l414 -223l-31 -53zM205 0v1434h82v-1434h-82z" />
<glyph unicode="&#xed;" horiz-adv-x="491" d="M74 1575l413 223l35 -61l-418 -215zM205 0v1434h82v-1434h-82z" />
<glyph unicode="&#xee;" horiz-adv-x="491" d="M-63 1581l307 260l307 -260l-43 -45l-264 225l-264 -225zM205 0v1434h82v-1434h-82z" />
<glyph unicode="&#xef;" horiz-adv-x="491" d="M-57 1638q0 30 20.5 51t52.5 21q31 0 52.5 -21.5t21.5 -50.5q0 -32 -21.5 -53.5t-52.5 -21.5q-32 0 -52.5 21.5t-20.5 53.5zM205 0v1434h82v-1434h-82zM391 1638q0 29 21.5 50.5t52.5 21.5q32 0 53 -21t21 -51q0 -32 -21 -53.5t-53 -21.5q-31 0 -52.5 21.5t-21.5 53.5z " />
<glyph unicode="&#xf0;" horiz-adv-x="1640" d="M98 694v76h107v664h594q153 0 289 -53.5t236.5 -147.5t159 -230t58.5 -294q0 -205 -98.5 -368.5t-263 -252t-361.5 -88.5h-614v694h-107zM287 76h532q130 0 246 44.5t204 124t139.5 200t51.5 264.5q0 194 -89 343.5t-238.5 227.5t-333.5 78h-512v-588h436v-76h-436v-618z " />
<glyph unicode="&#xf1;" horiz-adv-x="1536" d="M233 0v1434h76l946 -1256l27 -45l-4 64v1237h82v-1434h-76l-944 1260l-29 40l4 -61v-1239h-82zM459 1581q0 69 50 114.5t126 45.5q39 0 77 -17.5t62.5 -39t55.5 -39t59 -17.5q44 0 74 29t32 72h70q2 -69 -48 -114.5t-128 -45.5q-35 0 -71.5 17.5t-61.5 38.5t-58 38.5 t-63 17.5q-46 0 -76.5 -28.5t-30.5 -71.5h-69z" />
<glyph unicode="&#xf2;" d="M98 717q0 159 58.5 298t158.5 237t237 154t290 56t290 -56t237 -154t159 -237t59 -298q0 -212 -100 -383.5t-270.5 -267t-374.5 -95.5q-153 0 -290 56.5t-237 154t-158.5 237t-58.5 298.5zM180 717q0 -145 51.5 -270.5t140 -213t210.5 -137t260 -49.5q137 0 259 49.5 t211 136.5t141 213t52 271q0 196 -89 350t-239.5 236.5t-334.5 82.5q-138 0 -259.5 -48.5t-210.5 -135t-140.5 -212.5t-51.5 -273zM545 1737l35 61l413 -223l-30 -53z" />
<glyph unicode="&#xf3;" d="M98 717q0 159 58.5 298t158.5 237t237 154t290 56t290 -56t237 -154t159 -237t59 -298q0 -212 -100 -383.5t-270.5 -267t-374.5 -95.5q-153 0 -290 56.5t-237 154t-158.5 237t-58.5 298.5zM180 717q0 -145 51.5 -270.5t140 -213t210.5 -137t260 -49.5q137 0 259 49.5 t211 136.5t141 213t52 271q0 196 -89 350t-239.5 236.5t-334.5 82.5q-138 0 -259.5 -48.5t-210.5 -135t-140.5 -212.5t-51.5 -273zM676 1575l414 223l34 -61l-417 -215z" />
<glyph unicode="&#xf4;" d="M98 717q0 159 58.5 298t158.5 237t237 154t290 56t290 -56t237 -154t159 -237t59 -298q0 -212 -100 -383.5t-270.5 -267t-374.5 -95.5q-153 0 -290 56.5t-237 154t-158.5 237t-58.5 298.5zM180 717q0 -145 51.5 -270.5t140 -213t210.5 -137t260 -49.5q137 0 259 49.5 t211 136.5t141 213t52 271q0 196 -89 350t-239.5 236.5t-334.5 82.5q-138 0 -259.5 -48.5t-210.5 -135t-140.5 -212.5t-51.5 -273zM539 1581l307 260l307 -260l-43 -45l-264 225l-264 -225z" />
<glyph unicode="&#xf5;" d="M98 717q0 159 58.5 298t158.5 237t237 154t290 56t290 -56t237 -154t159 -237t59 -298q0 -212 -100 -383.5t-270.5 -267t-374.5 -95.5q-153 0 -290 56.5t-237 154t-158.5 237t-58.5 298.5zM180 717q0 -145 51.5 -270.5t140 -213t210.5 -137t260 -49.5q137 0 259 49.5 t211 136.5t141 213t52 271q0 196 -89 350t-239.5 236.5t-334.5 82.5q-138 0 -259.5 -48.5t-210.5 -135t-140.5 -212.5t-51.5 -273zM539 1581q0 69 50 114.5t126 45.5q39 0 77 -17.5t62.5 -39t55.5 -39t59 -17.5q44 0 74 29t32 72h70q2 -69 -48 -114.5t-128 -45.5 q-35 0 -71.5 17.5t-61.5 38.5t-58 38.5t-63 17.5q-46 0 -76.5 -28.5t-30.5 -71.5h-69z" />
<glyph unicode="&#xf6;" d="M98 717q0 159 58.5 298t158.5 237t237 154t290 56t290 -56t237 -154t159 -237t59 -298q0 -212 -100 -383.5t-270.5 -267t-374.5 -95.5q-153 0 -290 56.5t-237 154t-158.5 237t-58.5 298.5zM180 717q0 -145 51.5 -270.5t140 -213t210.5 -137t260 -49.5q137 0 259 49.5 t211 136.5t141 213t52 271q0 196 -89 350t-239.5 236.5t-334.5 82.5q-138 0 -259.5 -48.5t-210.5 -135t-140.5 -212.5t-51.5 -273zM545 1638q0 30 20.5 51t52.5 21q31 0 52.5 -21.5t21.5 -50.5q0 -32 -21.5 -53.5t-52.5 -21.5q-32 0 -52.5 21.5t-20.5 53.5zM993 1638 q0 29 21.5 50.5t52.5 21.5q32 0 53 -21t21 -51q0 -32 -21 -53.5t-53 -21.5q-31 0 -52.5 21.5t-21.5 53.5z" />
<glyph unicode="&#xf7;" horiz-adv-x="1345" d="M205 692v72h936v-72h-936zM600 281q0 30 21 50.5t51 20.5t50.5 -20.5t20.5 -50.5q0 -31 -20.5 -51.5t-50.5 -20.5t-51 21t-21 51zM600 1182q0 30 21 50.5t51 20.5t50.5 -20.5t20.5 -50.5t-20.5 -51t-50.5 -21t-51 21t-21 51z" />
<glyph unicode="&#xf8;" d="M98 717q0 159 58.5 298t158.5 237t237 154t290 56q234 0 420 -125l79 105l58 -43l-78 -105q125 -102 195.5 -251t70.5 -326q0 -212 -100 -383.5t-270.5 -267t-374.5 -95.5q-238 0 -428 129l-82 -108l-58 45l82 108q-121 102 -189.5 249.5t-68.5 322.5zM180 717 q0 -157 59 -289t164 -223l814 1073q-164 108 -375 108q-138 0 -259.5 -48.5t-210.5 -135t-140.5 -212.5t-51.5 -273zM461 162q165 -115 381 -115q137 0 259 49.5t211 136.5t141 213t52 271q0 162 -60.5 295t-168.5 223z" />
<glyph unicode="&#xf9;" horiz-adv-x="1482" d="M164 573v861h82v-867q0 -247 126.5 -384.5t368.5 -137.5q243 0 369.5 137.5t126.5 384.5v867h82v-861q0 -284 -148.5 -444t-429.5 -160q-280 0 -428.5 160t-148.5 444zM444 1737l35 61l414 -223l-31 -53z" />
<glyph unicode="&#xfa;" horiz-adv-x="1482" d="M164 573v861h82v-867q0 -247 126.5 -384.5t368.5 -137.5q243 0 369.5 137.5t126.5 384.5v867h82v-861q0 -284 -148.5 -444t-429.5 -160q-280 0 -428.5 160t-148.5 444zM575 1575l414 223l35 -61l-418 -215z" />
<glyph unicode="&#xfb;" horiz-adv-x="1482" d="M164 573v861h82v-867q0 -247 126.5 -384.5t368.5 -137.5q243 0 369.5 137.5t126.5 384.5v867h82v-861q0 -284 -148.5 -444t-429.5 -160q-280 0 -428.5 160t-148.5 444zM438 1581l307 260l308 -260l-43 -45l-265 225l-264 -225z" />
<glyph unicode="&#xfc;" horiz-adv-x="1482" d="M164 573v861h82v-867q0 -247 126.5 -384.5t368.5 -137.5q243 0 369.5 137.5t126.5 384.5v867h82v-861q0 -284 -148.5 -444t-429.5 -160q-280 0 -428.5 160t-148.5 444zM444 1638q0 30 21 51t53 21q31 0 52.5 -21.5t21.5 -50.5q0 -32 -21.5 -53.5t-52.5 -21.5 q-32 0 -53 21.5t-21 53.5zM893 1638q0 29 21.5 50.5t52.5 21.5q32 0 52.5 -21t20.5 -51q0 -32 -20.5 -53.5t-52.5 -21.5q-31 0 -52.5 21.5t-21.5 53.5z" />
<glyph unicode="&#xfd;" horiz-adv-x="1318" d="M41 1434h96l498 -596l24 -37l25 37l498 596h96l-578 -697v-737h-82v737zM479 1575l414 223l35 -61l-418 -215z" />
<glyph unicode="&#xfe;" horiz-adv-x="1198" d="M205 0v1434h82v-275h362q198 0 322.5 -124.5t124.5 -317.5q0 -189 -124.5 -309.5t-322.5 -120.5h-362v-287h-82zM287 362h362q163 0 264 99.5t101 255.5q0 101 -45 184t-129 132t-191 50h-362v-721z" />
<glyph unicode="&#xff;" horiz-adv-x="1318" d="M41 1434h96l498 -596l24 -37l25 37l498 596h96l-578 -697v-737h-82v737zM348 1638q0 30 21 51t53 21q31 0 52.5 -21.5t21.5 -50.5q0 -32 -21.5 -53.5t-52.5 -21.5q-32 0 -53 21.5t-21 53.5zM797 1638q0 30 21.5 51t51.5 21q32 0 53 -21t21 -51q0 -32 -21 -53.5t-53 -21.5 q-31 0 -52 21.5t-21 53.5z" />
<glyph unicode="&#x152;" horiz-adv-x="2142" d="M98 717q0 158 58.5 296.5t157.5 235.5t235.5 153t288.5 56q181 0 336 -76v52h833v-76h-752v-545h678v-78h-678v-659h764v-76h-845v51q-155 -76 -336 -76q-203 0 -372.5 95t-268.5 265.5t-99 381.5zM180 717q0 -193 87.5 -346t237.5 -236.5t333 -83.5q179 0 336 88v1157 q-159 86 -336 86q-184 0 -333.5 -82t-237 -235t-87.5 -348z" />
<glyph unicode="&#x153;" horiz-adv-x="2142" d="M98 717q0 158 58.5 296.5t157.5 235.5t235.5 153t288.5 56q181 0 336 -76v52h833v-76h-752v-545h678v-78h-678v-659h764v-76h-845v51q-155 -76 -336 -76q-203 0 -372.5 95t-268.5 265.5t-99 381.5zM180 717q0 -193 87.5 -346t237.5 -236.5t333 -83.5q179 0 336 88v1157 q-159 86 -336 86q-184 0 -333.5 -82t-237 -235t-87.5 -348z" />
<glyph unicode="&#x178;" horiz-adv-x="1318" d="M41 1434h96l498 -596l24 -37l25 37l498 596h96l-578 -697v-737h-82v737zM348 1638q0 30 21 51t53 21q31 0 52.5 -21.5t21.5 -50.5q0 -32 -21.5 -53.5t-52.5 -21.5q-32 0 -53 21.5t-21 53.5zM797 1638q0 30 21.5 51t51.5 21q32 0 53 -21t21 -51q0 -32 -21 -53.5t-53 -21.5 q-31 0 -52 21.5t-21 53.5z" />
<glyph unicode="&#x2c6;" horiz-adv-x="780" d="M41 1581l307 260l307 -260l-43 -45l-264 225l-264 -225z" />
<glyph unicode="&#x2dc;" horiz-adv-x="772" d="M41 1581q0 69 50 114.5t126 45.5q39 0 77 -17.5t62.5 -39t55.5 -39t59 -17.5q44 0 74.5 29t32.5 72h69q2 -69 -48 -114.5t-128 -45.5q-35 0 -71.5 17.5t-61.5 38.5t-58 38.5t-63 17.5q-46 0 -76 -28.5t-30 -71.5h-70z" />
<glyph unicode="&#x2000;" horiz-adv-x="920" />
<glyph unicode="&#x2001;" horiz-adv-x="1841" />
<glyph unicode="&#x2002;" horiz-adv-x="920" />
<glyph unicode="&#x2003;" horiz-adv-x="1841" />
<glyph unicode="&#x2004;" horiz-adv-x="613" />
<glyph unicode="&#x2005;" horiz-adv-x="460" />
<glyph unicode="&#x2006;" horiz-adv-x="306" />
<glyph unicode="&#x2007;" horiz-adv-x="306" />
<glyph unicode="&#x2008;" horiz-adv-x="230" />
<glyph unicode="&#x2009;" horiz-adv-x="368" />
<glyph unicode="&#x200a;" horiz-adv-x="102" />
<glyph unicode="&#x2010;" horiz-adv-x="778" d="M82 692v72h614v-72h-614z" />
<glyph unicode="&#x2011;" horiz-adv-x="778" d="M82 692v72h614v-72h-614z" />
<glyph unicode="&#x2012;" horiz-adv-x="778" d="M82 692v72h614v-72h-614z" />
<glyph unicode="&#x2013;" horiz-adv-x="993" d="M82 692v72h829v-72h-829z" />
<glyph unicode="&#x2014;" horiz-adv-x="1822" d="M82 692v72h1659v-72h-1659z" />
<glyph unicode="&#x2018;" horiz-adv-x="579" d="M233 1167q0 84 36.5 160.5t86.5 134.5h47q-96 -107 -96 -233l-14 -8l14 -2q28 3 52 -17t24 -55q0 -33 -22 -52.5t-54 -19.5q-31 0 -52.5 26.5t-21.5 65.5z" />
<glyph unicode="&#x2019;" horiz-adv-x="579" d="M205 1075q96 107 96 234l14 8l-14 2q-28 -3 -52 17t-24 55q0 33 22 52t54 19q31 0 52.5 -26.5t21.5 -65.5q0 -84 -36.5 -160.5t-86.5 -134.5h-47z" />
<glyph unicode="&#x201a;" horiz-adv-x="579" d="M205 -270q96 107 96 233l14 8l-14 2q-28 -3 -52 17t-24 55q0 33 22 52.5t54 19.5q31 0 52.5 -26.5t21.5 -65.5q0 -84 -36.5 -160.5t-86.5 -134.5h-47z" />
<glyph unicode="&#x201c;" horiz-adv-x="907" d="M233 1167q0 84 36.5 160.5t86.5 134.5h47q-96 -107 -96 -233l-14 -8l14 -2q28 3 52 -17t24 -55q0 -33 -22 -52.5t-54 -19.5q-31 0 -52.5 26.5t-21.5 65.5zM561 1167q0 84 36.5 160.5t86.5 134.5h47q-96 -107 -96 -233l-14 -8l14 -2q28 3 52 -17t24 -55q0 -33 -22 -52.5 t-54 -19.5q-31 0 -52.5 26.5t-21.5 65.5z" />
<glyph unicode="&#x201d;" horiz-adv-x="907" d="M176 1075q96 107 96 234l15 8l-15 2q-28 -3 -51.5 17t-23.5 55q0 33 21.5 52t53.5 19q31 0 52.5 -26.5t21.5 -65.5q0 -84 -36.5 -160.5t-86.5 -134.5h-47zM504 1075q96 107 96 234l14 8l-14 2q-28 -3 -52 17t-24 55q0 33 22 52t54 19q31 0 52.5 -26.5t21.5 -65.5 q0 -84 -36.5 -160.5t-86.5 -134.5h-47z" />
<glyph unicode="&#x201e;" horiz-adv-x="866" d="M176 -270q96 107 96 233l15 8l-15 2q-28 -3 -51.5 17t-23.5 55q0 33 21.5 52.5t53.5 19.5q31 0 52.5 -26.5t21.5 -65.5q0 -84 -36.5 -160.5t-86.5 -134.5h-47zM463 -270q96 107 96 233l14 8l-14 2q-28 -3 -52 17t-24 55q0 33 22 52.5t54 19.5q31 0 52.5 -26.5t21.5 -65.5 q0 -84 -36.5 -160.5t-86.5 -134.5h-47z" />
<glyph unicode="&#x2022;" horiz-adv-x="731" d="M205 727q0 66 47.5 112t116.5 46q66 0 111.5 -46t45.5 -112q0 -69 -45.5 -115.5t-111.5 -46.5q-69 0 -116.5 46.5t-47.5 115.5z" />
<glyph unicode="&#x2026;" horiz-adv-x="1449" d="M123 27q0 26 17.5 42.5t41.5 16.5q26 0 43 -17t17 -42t-17.5 -41.5t-42.5 -16.5q-24 0 -41.5 17.5t-17.5 40.5zM655 27q0 25 18 42t42 17q26 0 42.5 -17t16.5 -42t-17 -41.5t-42 -16.5t-42.5 17.5t-17.5 40.5zM1208 27q0 25 18 42t42 17q26 0 42.5 -17t16.5 -42 t-17 -41.5t-42 -16.5t-42.5 17.5t-17.5 40.5z" />
<glyph unicode="&#x202f;" horiz-adv-x="368" />
<glyph unicode="&#x2039;" horiz-adv-x="935" d="M233 723l482 -479l45 49l-441 428l441 432l-45 49z" />
<glyph unicode="&#x203a;" horiz-adv-x="935" d="M205 293l440 428l-440 432l45 49l481 -479l-481 -479z" />
<glyph unicode="&#x205f;" horiz-adv-x="460" />
<glyph unicode="&#x20ac;" horiz-adv-x="1640" d="M98 594v70h84q-2 18 -2 53q0 31 2 45h-84v69h90q40 276 245.5 451.5t486.5 175.5q207 0 379 -99.5t268 -271.5l-82 -22q-85 148 -234 231.5t-331 83.5q-251 0 -431.5 -150.5t-216.5 -398.5h672v-69h-678q-2 -14 -2 -45q0 -35 2 -53h678v-70h-670q40 -243 218.5 -392 t427.5 -149q194 0 351.5 96t237.5 261l78 -23q-90 -191 -267.5 -301.5t-399.5 -110.5q-183 0 -340 78t-260 219.5t-130 321.5h-92z" />
<glyph unicode="&#x2122;" horiz-adv-x="1701" d="M57 1382v52h602v-52h-270v-665h-61v665h-271zM813 717v717h61l285 -465l277 465h61v-717h-61v579l2 31l-17 -31l-241 -403h-39l-252 403l-17 31l2 -31v-579h-61z" />
<glyph unicode="&#xe000;" horiz-adv-x="1433" d="M0 0v1434h1434v-1434h-1434z" />
</font>
</defs>
</svg>
