<?xml version="1.0" encoding="utf-8"?>
<!-- Generator: Adobe Illustrator 17.0.0, SVG Export Plug-In . SVG Version: 6.00 Build 0)  -->
<!DOCTYPE svg PUBLIC "-//W3C//DTD SVG 1.1//EN" "http://www.w3.org/Graphics/SVG/1.1/DTD/svg11.dtd">
<svg version="1.1" id="Layer_1" xmlns="http://www.w3.org/2000/svg" xmlns:xlink="http://www.w3.org/1999/xlink" x="0px" y="0px"
	 width="500px" height="auto" viewBox="0 0 1417.32 559.524" enable-background="new 0 0 1417.32 559.524"
	 xml:space="preserve">
<g>
	<g>
		<path d="M483.183,342.139h52.8h50.725c1.993,0,2.98-0.688,2.98-2.069c0-0.107-0.036-0.276-0.084-0.494
			c-0.056-0.22-0.112-0.464-0.163-0.743l-0.171-0.827l0.085,0.082c-3.961-9.632-8.076-19.286-12.342-28.977
			c-4.266-9.686-8.545-19.357-12.836-29.017c-4.294-9.66-8.573-19.322-12.839-28.977c-4.271-9.659-8.381-19.337-12.347-29.024
			c-0.107-0.162-0.206-0.395-0.29-0.703c-0.078-0.299-0.232-0.59-0.452-0.864c-0.218-0.278-0.55-0.504-0.988-0.694
			c-0.437-0.195-1.052-0.294-1.815-0.294h-0.578c-1.378,0-2.258,0.26-2.648,0.782c-0.381,0.529-0.685,1.008-0.903,1.444
			l-50.936,116.324c-0.057,0.112-0.112,0.276-0.169,0.497c-0.056,0.223-0.079,0.714-0.079,1.485
			C480.133,341.451,481.149,342.139,483.183,342.139z M535.029,246.121l34.515,81.483H537.22h-36.943L535.029,246.121z"/>
		<path d="M826.858,342.098h80.262c0.983,0,1.74-0.222,2.226-0.661c0.494-0.437,0.734-1.216,0.734-2.314v-8.256
			c0-0.823-0.239-1.527-0.734-2.103c-0.487-0.581-1.299-0.873-2.397-0.873h-68.516v-23.607h54.821c0.655,0,1.264-0.251,1.816-0.745
			c0.543-0.494,0.825-1.233,0.825-2.23v-8.58c0-0.772-0.25-1.437-0.711-1.987c-0.464-0.55-1.119-0.824-1.931-0.824h-54.821v-21.134
			h54.821c0.813,0,1.467-0.306,1.931-0.911c0.461-0.6,0.711-1.289,0.711-2.062v-8.587c0-0.988-0.283-1.705-0.825-2.144
			c-0.553-0.443-1.162-0.664-1.816-0.664h-54.821v-20.635h69.025c1.865,0,2.789-0.991,2.789-2.973v-8.591
			c0-1.76-0.869-2.639-2.621-2.639h-80.769c-0.925,0-1.612,0.175-2.099,0.534c-0.464,0.362-0.69,1.005-0.69,1.939v117.234
			C824.069,341.16,824.996,342.098,826.858,342.098z"/>
		<path d="M631.52,219.583c-0.823,0-1.48,0.245-1.941,0.744c-0.461,0.494-0.711,1.123-0.711,1.893v117.236
			c0,1.763,0.892,2.639,2.652,2.639h8.753c0.937,0,1.661-0.201,2.191-0.614c0.52-0.415,0.79-1.085,0.79-2.025V222.219
			c0-0.825-0.316-1.47-0.925-1.933c-0.599-0.471-1.289-0.703-2.056-0.703H631.52z"/>
		<path d="M443.367,338.916l-40.887-43.272l38.946-41.083c0.441-0.438,0.655-0.904,0.655-1.398c0-0.336-0.125-0.624-0.405-0.871
			c-0.273-0.247-0.621-0.441-1.039-0.578c-0.408-0.137-0.815-0.232-1.243-0.29c-0.405-0.056-0.746-0.079-1.026-0.079h-11.641
			c-0.713,0-1.391,0.247-2.056,0.736c-0.668,0.499-1.388,1.162-2.147,1.987l-45.381,47.913v-9.377l53.772-57.048
			c0.43-0.431,0.644-0.91,0.644-1.404c0-0.323-0.135-0.611-0.407-0.864c-0.28-0.247-0.622-0.436-1.027-0.578
			c-0.428-0.135-0.825-0.232-1.243-0.291c-0.418-0.053-0.757-0.084-1.039-0.084h-11.629c-0.723,0-1.401,0.252-2.066,0.746
			c-0.667,0.494-1.378,1.159-2.147,1.987l-34.858,37.143v-48.629c0-1.207-0.405-2.183-1.195-2.929
			c-0.802-0.744-1.75-1.113-2.848-1.113h-6.03c-1.32,0-2.323,0.398-2.968,1.195c-0.665,0.8-0.994,1.748-0.994,2.848v114.506
			c0,2.703,1.32,4.05,3.961,4.05h5.94c2.756,0,4.132-1.348,4.132-4.05v-15.72l15.697-16.553l31.615,33.594
			c0.769,0.831,1.48,1.485,2.135,1.982c0.667,0.497,1.355,0.746,2.078,0.746h11.631c0.27,0,0.622-0.033,1.037-0.087
			c0.41-0.056,0.825-0.148,1.243-0.29c0.408-0.133,0.747-0.329,1.029-0.576c0.27-0.247,0.405-0.532,0.405-0.869
			C444.011,339.825,443.787,339.354,443.367,338.916z"/>
		<path d="M1040.318,221.811l-0.609,96.758l-72.679-97.892c-0.667-0.881-1.541-1.33-2.637-1.332l-11.234-0.071
			c-0.82-0.008-1.498,0.247-2.017,0.767c-0.53,0.522-0.803,1.197-0.806,2.02l-0.166,25.924L949.65,306l-0.056,8.755v0.741
			c0.041,1.49,0.916,2.239,2.626,2.252h0.163l41.224,0.26c0.836,0,1.483-0.296,1.946-0.894c0.479-0.601,0.718-1.286,0.718-2.066
			l0.056-8.753c0-0.818-0.24-1.47-0.729-1.941c-0.494-0.466-1.126-0.706-1.895-0.713l-29.844-0.191l0.398-63.632l75.484,102.523
			l10.887,0.064c2.089,0.015,3.125-0.856,3.148-2.608l0.747-117.239c0-0.825-0.326-1.475-0.971-1.944
			c-0.665-0.474-1.378-0.716-2.145-0.716l-8.426-0.059C1041.561,219.829,1040.669,220.486,1040.318,221.811z"/>
		<path d="M1010.384,341.204c0.464-0.601,0.7-1.284,0.713-2.061l0.056-8.75c0-0.825-0.239-1.475-0.734-1.941
			c-0.487-0.479-1.129-0.713-1.885-0.718h-56.224c-0.829-0.008-1.48,0.288-1.949,0.889c-0.474,0.606-0.712,1.289-0.712,2.061
			l-0.056,8.758c-0.005,0.817,0.238,1.472,0.73,1.946c0.492,0.466,1.128,0.706,1.89,0.716h56.218
			C1009.268,342.103,1009.91,341.808,1010.384,341.204z"/>
		<path d="M784.789,327.902h-78.262l76.288-94.282l-0.158,0.163c0.158-0.441,0.316-0.841,0.451-1.203
			c0.135-0.357,0.204-0.667,0.204-0.953v-9.234c0-0.94-0.283-1.638-0.861-2.112c-0.586-0.459-1.286-0.701-2.119-0.701h-88.978
			c-1.118,0-1.885,0.206-2.315,0.624c-0.451,0.408-0.668,1.085-0.668,2.017v8.585c0,0.991,0.216,1.74,0.668,2.224
			c0.43,0.504,1.197,0.752,2.315,0.752h72.979l-77.123,94.448c-0.115,0.329-0.194,0.647-0.237,0.95
			c-0.069,0.296-0.082,0.594-0.082,0.861v9.081c0,0.833,0.285,1.526,0.861,2.112c0.576,0.571,1.286,0.861,2.099,0.861h94.939
			c0.838,0,1.503-0.306,2.033-0.904c0.532-0.604,0.779-1.291,0.779-2.068v-8.253c0-1.095-0.247-1.865-0.779-2.31
			C786.292,328.116,785.628,327.902,784.789,327.902z"/>
		<path d="M784.983,304.171h-38.707c-0.836-0.008-1.49,0.29-1.954,0.897c-0.464,0.601-0.711,1.286-0.723,2.051l-0.056,8.753
			c0,0.833,0.237,1.475,0.733,1.956c0.497,0.466,1.128,0.706,1.898,0.706h38.717c0.825,0.008,1.47-0.296,1.931-0.889
			c0.487-0.609,0.723-1.291,0.723-2.069l0.056-8.74c0-0.833-0.237-1.485-0.733-1.951
			C786.394,304.413,785.739,304.171,784.983,304.171z"/>
	</g>
</g>
</svg>
