<svg xmlns="http://www.w3.org/2000/svg" viewBox="0 0 138.52161 138.52167"><defs><style>.cls-1{fill:#fff;}</style></defs><title>Asset 1</title><g id="Layer_2" data-name="Layer 2"><g id="Layer_1-2" data-name="Layer 1"><path class="cls-1" d="M84.11749,58.33423V78.72681l-1.42383,1.60742.918.873a1.07066,1.07066,0,0,1-.82617.27539,1.29457,1.29457,0,0,1-1.332-1.46973V58.33423a1.31635,1.31635,0,0,1,1.332-1.46973A1.342,1.342,0,0,1,84.11749,58.33423ZM19.09015,75.282H21.157l-.87256-13.82422ZM138.52161,0V138.52167H0V0ZM89.39777,21.32935h3.16894V17.50574H89.39777Zm0,10.86621h3.16894V24.54834H89.39777Zm0,18.48834h3.16894V35.38947H89.39777ZM78.32684,21.32935h3.2345a1.2243,1.2243,0,0,1,1.22412-.83826,1.25415,1.25415,0,0,1,1.21637.83826H87.244a4.46715,4.46715,0,0,0-8.91718,0Zm-.08825,10.86621h3.21484V29.00342a1.31635,1.31635,0,0,1,1.332-1.46973,1.342,1.342,0,0,1,1.332,1.46973v3.19214h3.21485V29.417c0-3.07715-2.06739-5.23584-4.54688-5.23584-2.48047,0-4.54687,2.15869-4.54687,5.23584Zm0,18.48834h3.21484V39.84454a1.31634,1.31634,0,0,1,1.332-1.46972,1.342,1.342,0,0,1,1.332,1.46972V50.6839h3.21485V40.25812c0-3.07715-2.06739-5.23584-4.54688-5.23584-2.48047,0-4.54687,2.15869-4.54687,5.23584ZM63.35382,21.32935h3.19849a1.25325,1.25325,0,0,1,1.21606-.83826,1.34651,1.34651,0,0,1,1.29852.83826h2.89588c-.35889-2.50837-2.00623-4.1908-4.1944-4.1908A4.61337,4.61337,0,0,0,63.35382,21.32935ZM63.2674,32.19556h3.16943V29.00342a1.34137,1.34137,0,0,1,1.33154-1.46973,1.38639,1.38639,0,0,1,1.42383,1.46973v3.19214h2.84766V29.417c0-3.07715-1.791-5.23584-4.27149-5.23584-2.48,0-4.501,2.15869-4.501,5.23584Zm0,18.48834h3.16943V39.84454a1.34136,1.34136,0,0,1,1.33154-1.46972,1.38639,1.38639,0,0,1,1.42383,1.46972v6.20069h2.84766V40.25812c0-3.07715-1.791-5.23584-4.27149-5.23584-2.48,0-4.501,2.15869-4.501,5.23584ZM51.60284,21.32935h3.94367l-.72833-3.82361H51.60284Zm0,10.86621h4.67194l-1.4566-7.64722H51.60284Zm0,18.48834H54.4046V46.137l.78076,4.40918.03156.1377h2.51446l-2.9132-15.29443H51.60284ZM26.25018,21.32935h3.25971a1.28861,1.28861,0,0,1,1.2912-.83826,1.25554,1.25554,0,0,1,1.24621.83826h2.7713c-.32635-2.50837-1.84069-4.1908-4.1098-4.1908A4.66073,4.66073,0,0,0,26.25018,21.32935Zm-8.09594,0h4.20837l-.37891-3.82361H18.53888Zm-.38465,10.86621h2.509l.00592-.06861.00434.06861h2.4527l-.75782-7.64722H18.53888ZM17.00031,50.6839h2.61755l.66662-7.71582.487,7.71582h2.72785L21.9837,35.38947H18.53888Zm1.63922,66.49078H15.84814l-.38641,3.84076h2.84766Zm6.37542,3.84076-.38055-3.84076H21.49811l.2102,3.84076Zm0-7.07513-.76117-7.68152H16.2345l-.77277,7.68152h2.84766l.50537-5.87891h2.57178l.32177,5.87891Zm0-10.89636-1.5224-15.363h-2.7254l.38989,6.177H19.09015l.53363-6.177H17.0072l-1.54547,15.363h2.84766l.50537-5.87891h2.57178l.32177,5.87891Zm0-18.57593L21.9837,53.87915H18.53888L15.46173,84.468h2.84766l.50537-5.87891h2.57178l.32177,5.87891Zm9.80567,32.70666H32.05438a1.25719,1.25719,0,0,1-1.25329.85541,1.28937,1.28937,0,0,1-1.29834-.85541h-3.255a4.63267,4.63267,0,0,0,4.46106,4.20844C32.98645,121.38312,34.502,119.72266,34.82062,117.17468Zm.06787-10.91589h-2.71v3.13464a1.40894,1.40894,0,1,1-2.80127,0v-3.13464H26.16193v2.81287c0,3.12353,2.06689,5.23632,4.54687,5.23632,2.57227,0,4.17969-2.11279,4.17969-5.23632Zm0-13.9624h-2.71v6.20068a1.40894,1.40894,0,1,1-2.80127,0V87.68091H26.16193V98.17529c0,3.12354,2.06689,5.23633,4.54687,5.23633,2.57227,0,4.17969-2.11279,4.17969-5.23633Zm0-33.54859c0-3.07715-1.60742-5.23584-4.17969-5.23584-2.48,0-4.54687,2.15869-4.54687,5.23584V79.59937c0,3.12353,2.06689,5.23632,4.54687,5.23632,2.57227,0,4.17969-2.11279,4.17969-5.23632V73.72046h-2.71v6.20068a1.40894,1.40894,0,1,1-2.80127,0V58.42651a1.409,1.409,0,1,1,2.80127,0v6.1543h2.71Zm0-18.48968c0-3.07715-1.60742-5.23584-4.17969-5.23584-2.48,0-4.54687,2.15869-4.54687,5.23584V50.6839h3.21533V39.93683a1.409,1.409,0,1,1,2.80127,0v6.1543h2.71Zm0-10.84113c0-3.07715-1.60742-5.23584-4.17969-5.23584-2.48,0-4.54687,2.15869-4.54687,5.23584v2.77857h3.21533V29.0957a1.409,1.409,0,1,1,2.80127,0v3.09986h2.71Zm7.02588,87.75769H38.74493v3.84076h3.16944Zm0-10.91589H38.74493v7.68152h3.16944Zm0-18.57788H38.74493v15.363h3.16944Zm2.70947-33.80176H35.89728v3.30713h2.84765V84.468h3.16944V57.18628h2.70947Zm0-18.48968H35.89728v3.30712h2.84765V50.6839h3.16944V38.69659h2.70947Zm0-10.84113H35.89728v3.30713h2.84765v4.34009h3.16944V27.85547h2.70947Zm0-7.0426H35.89728v3.30713h2.84765v.51648h3.16944v-.51648h2.70947Zm4.68408,99.66894H46.09308v3.84076h3.21484Zm0-10.91589H46.09308v7.68152h3.21484Zm0-18.57788H46.09308v15.363h3.21484Zm0-33.80176H46.09308V84.468h3.21484Zm0-18.48968H46.09308V50.6839h3.21484Zm0-10.84113H46.09308v7.64722h3.21484Zm0-7.0426H46.09308v3.82361h3.21484Zm5.09668,99.66894H51.60284v3.84076H54.4046Zm0-10.91589H51.60284v7.68152H54.4046Zm0-18.57788H51.60284v15.363H54.4046Zm6.84375,29.49377H57.8418l.88018,3.84076h2.52637Zm0-10.91589H56.96161l1.76037,7.68152h2.52637Zm0-18.57788H58.44659v4.66138l-.689-4.45508-.03931-.2063H55.20117L58.722,103.044h2.52637Zm0-33.80176H58.44659V73.76636l-.689-4.45508L54.81818,53.87915H51.60284V84.468H54.4046V64.62671l.78076,4.40918L58.722,84.468h2.52637Zm0-18.48968H58.44659V50.6839h2.80176Zm0-10.84113H58.44659v7.64722h2.80176Zm0-7.0426H58.44659v3.82361h2.80176Zm11.06738,99.66894H69.10724a1.27479,1.27479,0,0,1-1.33887,1.1767,1.25659,1.25659,0,0,1-1.29278-1.1767H63.33868c.33808,2.8631,2.06977,4.20844,3.92481,4.20844a2.881,2.881,0,0,0,2.80127-1.69971l.59717,1.332h1.6538Zm0-10.91589H69.1463v3.41c0,.96436-.459,1.60743-1.37793,1.60743-.87256,0-1.33154-.64307-1.33154-1.60743v-3.41H63.2674v2.81287c0,3.58251,1.92919,5.23632,3.99609,5.23632a2.881,2.881,0,0,0,2.80127-1.6997l.59717,1.332h1.6538Zm0-18.1416H67.95245v2.89355H69.1463v7.76172c0,.96436-.459,1.60742-1.37793,1.60742-.87256,0-1.33154-.64306-1.33154-1.60742V87.68091H63.2674V98.17529c0,3.58252,1.92919,5.23633,3.99609,5.23633a2.881,2.881,0,0,0,2.80127-1.69971l.59717,1.332h1.6538Zm0-18.57593H67.95245v2.89355H69.1463v7.76172c0,.96436-.459,1.60743-1.37793,1.60743-.87256,0-1.33154-.64307-1.33154-1.60743V58.33423a1.34137,1.34137,0,0,1,1.33154-1.46973,1.38639,1.38639,0,0,1,1.42383,1.46973v6.20068h2.84766V58.7478c0-3.07715-1.791-5.23584-4.27149-5.23584-2.48,0-4.501,2.15869-4.501,5.23584V79.59937c0,3.58251,1.92919,5.23632,3.99609,5.23632a2.881,2.881,0,0,0,2.80127-1.6997l.59717,1.332h1.6538ZM88.389,118.94855a2.04575,2.04575,0,0,1-1.51563-.459,5.09987,5.09987,0,0,0,.37238-1.31488h-4.244l.60986.58a1.07066,1.07066,0,0,1-.82617.27539,1.20621,1.20621,0,0,1-1.23761-.85541H78.3244a4.63227,4.63227,0,0,0,4.46106,4.20844,4.25433,4.25433,0,0,0,2.47949-.73535,2.02015,2.02015,0,0,0,1.6543.73535,2.672,2.672,0,0,0,1.46973-.36768Zm0-7.07514a2.04575,2.04575,0,0,1-1.51563-.459,5.74425,5.74425,0,0,0,.459-2.34277v-2.81287H84.11749v1.94031l-1.42383,1.60742.918.873a1.07066,1.07066,0,0,1-.82617.27539,1.29457,1.29457,0,0,1-1.332-1.46973v-3.22644H78.23859v2.81287c0,3.12353,2.0664,5.23632,4.54687,5.23632a4.25433,4.25433,0,0,0,2.47949-.73535,2.02015,2.02015,0,0,0,1.6543.73535,2.672,2.672,0,0,0,1.46973-.36767Zm0-10.89636a2.04575,2.04575,0,0,1-1.51563-.459,5.74426,5.74426,0,0,0,.459-2.34278V87.68091H84.11749v9.62182l-1.42383,1.60743.918.873a1.07062,1.07062,0,0,1-.82617.27539,1.29456,1.29456,0,0,1-1.332-1.46972v-10.908H78.23859V98.17529c0,3.12354,2.0664,5.23633,4.54687,5.23633a4.25433,4.25433,0,0,0,2.47949-.73535,2.02015,2.02015,0,0,0,1.6543.73535A2.672,2.672,0,0,0,88.389,103.044Zm0-18.57593a2.04575,2.04575,0,0,1-1.51563-.459,5.74425,5.74425,0,0,0,.459-2.34277V58.7478c0-3.07715-2.06739-5.23584-4.54688-5.23584-2.48047,0-4.54687,2.15869-4.54687,5.23584V79.59937c0,3.12353,2.0664,5.23632,4.54687,5.23632a4.25433,4.25433,0,0,0,2.47949-.73535,2.02015,2.02015,0,0,0,1.6543.73535A2.672,2.672,0,0,0,88.389,84.468Zm9.7467,34.77356H95.07147a1.168,1.168,0,0,1-1.21863.85541,1.13928,1.13928,0,0,1-1.17419-.85541h-3.2005c.37518,2.548,2.13245,4.20844,4.3288,4.20844C96.00244,121.38312,97.76031,119.72266,98.13568,117.17468Zm.08045-10.91589H95.18488v3.08874c0,1.05616-.46,1.60743-1.332,1.60743-.82714,0-1.28613-.55127-1.28613-1.60743v-3.08874H89.39777v2.81287c0,3.12353,1.92871,5.23632,4.40918,5.23632,2.47949,0,4.40918-2.11279,4.40918-5.23632Zm0-18.57788H95.18488V98.45117c0,1.05615-.46,1.60742-1.332,1.60742-.82714,0-1.28613-.55127-1.28613-1.60742V87.68091H89.39777V98.17529c0,3.12354,1.92871,5.23633,4.40918,5.23633,2.47949,0,4.40918-2.11279,4.40918-5.23633Zm0-33.80176H95.18488V79.87524c0,1.05616-.46,1.60743-1.332,1.60743-.82714,0-1.28613-.55127-1.28613-1.60743V53.87915H89.39777V79.59937c0,3.12353,1.92871,5.23632,4.40918,5.23632,2.47949,0,4.40918-2.11279,4.40918-5.23632Zm0-18.48968H95.18488V50.6839h3.03125Zm0-10.84113H95.18488v7.64722h3.03125Zm0-7.0426H95.18488v3.82361h3.03125ZM103.68,117.17468h-3.21484v3.84076H103.68Zm0-10.91589h-3.21484v7.68152H103.68Zm0-18.57788h-3.21484v15.363H103.68Zm0-33.80176h-3.21484V84.468H103.68Zm0-18.48968h-3.21484V50.6839H103.68Zm0-10.84113h-3.21484v7.64722H103.68Zm0-7.0426h-3.21484v3.82361H103.68Zm9.78223,100.34076h-4.22559v-.67182h-3.16894v3.84076h7.39453Zm0-7.07514h-4.22559v-4.51257h-3.16894v7.68152h7.39453Zm0-10.89636h-4.22559V88.898H112.222v-1.217h-6.15429v15.363h7.39453Zm0-45.99585h-7.39453V84.468h7.39453V81.29907h-4.22559V70.322H112.222V67.15259h-2.98535v-10.104h4.22559Zm0-18.48968h-7.39453V50.6839H112.222v-2.021h-2.98535V38.5589h4.22559Zm0-10.84113h-7.39453v7.64722h3.16894V27.71777h4.22559Zm0-7.0426h-7.39453v3.82361h3.16894v-.65418h4.22559Zm6.88769,99.66894H117.181v3.84076h3.16894Zm0-10.91589H117.181v7.68152h3.16894Zm0-18.57788H117.181v15.363h3.16894Zm2.71-33.80176h-8.72657v3.30713H117.181V84.468h3.16894V57.18628h2.71Zm0-18.48968h-8.72657v3.30712H117.181V50.6839h3.16894V38.69659h2.71Zm0-10.84113h-8.72657v3.30713H117.181v4.34009h3.16894V27.85547h2.71Zm0-7.0426h-8.72657v3.30713H117.181v.51648h3.16894v-.51648h2.71Z"/></g></g></svg>