<svg xmlns="http://www.w3.org/2000/svg" viewBox="0 0 1388.07945 1397.81311"><defs><style>.cls-1{fill:#231f20;}</style></defs><title>Asset 1</title><g id="Layer_2" data-name="Layer 2"><g id="Layer_1-2" data-name="Layer 1"><path class="cls-1" d="M1388.07945,698.91c0-192.738-79.822-366.00207-202.47132-492.54525C1059.065,79.822,885.80088,0,693.06322,0,502.27857,0,327.06115,79.822,202.4647,206.36479,79.81533,332.908,0,506.172,0,698.91c0,192.731,79.81533,366.00207,202.4647,492.54491,124.59645,128.48956,299.81387,206.35816,490.59852,206.35816,136.181,0,262.60849-38.91374,369.73209-107.04867l40.07774,98.28838H1313.1313l-93.31979-235.44973C1322.88517,1031.34474,1388.07945,873.076,1388.07945,698.91Zm-198.57786,0a498.53507,498.53507,0,0,1-57.35333,233.49288L851.931,225.393a509.176,509.176,0,0,1,193.50716,121.14175C1133.047,436.09036,1189.50159,558.74008,1189.50159,698.91ZM695.98994,322.19432,863.41381,803.05883H524.66564ZM344.58139,346.53475A494.80486,494.80486,0,0,1,536.33244,224.94029L256.25111,931.62019a498.23441,498.23441,0,0,1,88.33028-585.08544Zm58.2448,755.60644c16.588-39.82263,32.8627-78.56944,47.86467-114.13093H939.3423l46.57137,114.216c-83.4293,61.02863-185.6453,97.01565-292.85045,97.01565C585.81032,1199.24188,484.78551,1163.2207,402.82619,1102.14119Z"/></g></g></svg>