<?xml version="1.0" encoding="utf-8"?>
<!-- Generator: Adobe Illustrator 17.0.0, SVG Export Plug-In . SVG Version: 6.00 Build 0)  -->
<!DOCTYPE svg PUBLIC "-//W3C//DTD SVG 1.1//EN" "http://www.w3.org/Graphics/SVG/1.1/DTD/svg11.dtd">
<svg version="1.1" id="Layer_1" xmlns="http://www.w3.org/2000/svg" xmlns:xlink="http://www.w3.org/1999/xlink" x="0px" y="0px"
	 width="1388.079px" height="1397.813px" viewBox="0 0 1388.079 1397.813" enable-background="new 0 0 1388.079 1397.813"
	 xml:space="preserve">
<path d="M1388.079,698.91c0-192.738-79.822-366.002-202.471-492.545C1059.065,79.822,885.801,0,693.063,0
	C502.279,0,327.061,79.822,202.465,206.365C79.815,332.908,0,506.172,0,698.91c0,192.731,79.815,366.002,202.465,492.545
	c124.596,128.49,299.814,206.358,490.599,206.358c136.181,0,262.608-38.914,369.732-107.049l40.078,98.288h210.258l-93.32-235.45
	C1322.885,1031.345,1388.079,873.076,1388.079,698.91z M1189.502,698.91c0,85.543-21.053,164.541-57.353,233.493l-280.217-707.01
	c73.002,25.168,139.387,67.02,193.507,121.142C1133.047,436.09,1189.502,558.74,1189.502,698.91z M695.99,322.194l167.424,480.865
	H524.666L695.99,322.194z M344.581,346.535c53.289-54.445,118.981-96.476,191.751-121.594L256.251,931.62
	c-36.668-69.278-57.68-148.454-57.68-232.71C198.571,560.687,255.033,436.09,344.581,346.535z M402.826,1102.141
	c16.588-39.823,32.863-78.569,47.865-114.131h488.651l46.571,114.216c-83.429,61.029-185.645,97.016-292.85,97.016
	C585.81,1199.242,484.786,1163.221,402.826,1102.141z"/>
</svg>
